<svg width="761" height="116" viewBox="0 0 761 116" fill="none" xmlns="http://www.w3.org/2000/svg">
<mask id="path-1-outside-1_45_26" maskUnits="userSpaceOnUse" x="0.181824" y="0.5" width="760" height="116" fill="black">
<rect fill="white" x="0.181824" y="0.5" width="760" height="116"/>
<path d="M15.8864 10.2045C14.8258 10.2045 13.9318 10.3864 13.2046 10.75C12.4773 11.1136 11.9318 11.6288 11.5682 12.2955C11.2197 12.9621 11.0455 13.7727 11.0455 14.7273H1.18182C1.18182 12.7121 1.54546 10.8939 2.27273 9.27273C3.00001 7.63636 4.02273 6.24242 5.34091 5.09091C6.67425 3.92424 8.23485 3.03788 10.0227 2.43182C11.8106 1.81061 13.7652 1.5 15.8864 1.5C19.5076 1.5 22.5455 2.27273 25 3.81818C27.4697 5.36363 29.3333 7.47727 30.5909 10.1591C31.8485 12.8258 32.4773 15.8485 32.4773 19.2273V19.9091C32.4773 23.303 31.8561 26.3409 30.6136 29.0227C29.3712 31.6894 27.5152 33.7955 25.0455 35.3409C22.5909 36.8712 19.5379 37.6364 15.8864 37.6364C12.9773 37.6364 10.4167 37.0833 8.20455 35.9773C6.00758 34.8712 4.28788 33.2652 3.04546 31.1591C1.80304 29.053 1.18182 26.5 1.18182 23.5H11.0455C11.0455 24.4848 11.2197 25.3864 11.5682 26.2045C11.9167 27.0076 12.447 27.6515 13.1591 28.1364C13.8864 28.6061 14.7955 28.8485 15.8864 28.8636C17.5985 28.8485 18.8864 28.3788 19.75 27.4545C20.6288 26.5303 21.2121 25.3788 21.5 24C21.803 22.6212 21.9546 21.2576 21.9546 19.9091V19.2273C21.9546 17.6818 21.7955 16.2273 21.4773 14.8636C21.1742 13.4848 20.5833 12.3636 19.7046 11.5C18.8409 10.6364 17.5682 10.2045 15.8864 10.2045ZM24.9318 16.6136V22.5682H13.5909V16.6136H24.9318ZM36.5057 37L36.4375 28.4318H37.5511C38.3087 28.4318 38.9678 28.2348 39.5284 27.8409C40.089 27.447 40.5587 26.8182 40.9375 25.9545C41.3163 25.0758 41.6193 23.947 41.8466 22.5682C42.0739 21.1894 42.2178 19.5152 42.2784 17.5455L42.8466 2.09091H70.483V37H59.9602V10.5909H52.733L52.1875 20.6364C52.0511 23.5909 51.6648 26.1136 51.0284 28.2045C50.4072 30.2803 49.5587 31.9621 48.483 33.25C47.4224 34.5379 46.1648 35.4848 44.7102 36.0909C43.2557 36.697 41.6117 37 39.7784 37H36.5057ZM93.5909 37.6591C89.9394 37.6591 86.7879 36.9394 84.1364 35.5C81.5 34.0455 79.4697 31.9773 78.0455 29.2955C76.6364 26.5985 75.9318 23.3939 75.9318 19.6818C75.9318 16.0758 76.6439 12.9242 78.0682 10.2273C79.4924 7.51515 81.5 5.40909 84.0909 3.90909C86.6818 2.39394 89.7349 1.63636 93.25 1.63636C95.7349 1.63636 98.0076 2.02273 100.068 2.79545C102.129 3.56818 103.909 4.71212 105.409 6.22727C106.909 7.74242 108.076 9.61364 108.909 11.8409C109.742 14.053 110.159 16.5909 110.159 19.4545V22.2273H79.8182V15.7727H99.8182C99.803 14.5909 99.5227 13.5379 98.9773 12.6136C98.4318 11.6894 97.6818 10.9697 96.7273 10.4545C95.7879 9.92424 94.7046 9.65909 93.4773 9.65909C92.2349 9.65909 91.1212 9.93939 90.1364 10.5C89.1515 11.0455 88.3712 11.7955 87.7955 12.75C87.2197 13.6894 86.9167 14.7576 86.8864 15.9545V22.5227C86.8864 23.947 87.1667 25.197 87.7273 26.2727C88.2879 27.3333 89.0833 28.1591 90.1136 28.75C91.1439 29.3409 92.3712 29.6364 93.7955 29.6364C94.7803 29.6364 95.6742 29.5 96.4773 29.2273C97.2803 28.9545 97.9697 28.553 98.5455 28.0227C99.1212 27.4924 99.553 26.8409 99.8409 26.0682L110.045 26.3636C109.621 28.6515 108.689 30.6439 107.25 32.3409C105.826 34.0227 103.955 35.3333 101.636 36.2727C99.3182 37.197 96.6364 37.6591 93.5909 37.6591ZM115.835 37V2.09091H126.949V15.0909H129.403L137.881 2.09091H150.744L138.994 19.5682L150.858 37H137.835L130.176 25.4091H126.949V37H115.835ZM152.562 10.5909V2.09091H185.29V10.5909H174.131V37H163.585V10.5909H152.562ZM190.585 50.0909V2.09091H201.585V8.06818H201.926C202.381 7.00757 203.025 5.98485 203.858 5C204.706 4.01515 205.782 3.21212 207.085 2.59091C208.403 1.95455 209.979 1.63636 211.812 1.63636C214.237 1.63636 216.502 2.27273 218.608 3.54545C220.729 4.81818 222.441 6.7803 223.744 9.43182C225.047 12.0833 225.699 15.4621 225.699 19.5682C225.699 23.5227 225.07 26.8333 223.812 29.5C222.57 32.1667 220.888 34.1667 218.767 35.5C216.661 36.8333 214.32 37.5 211.744 37.5C209.987 37.5 208.464 37.2121 207.176 36.6364C205.888 36.0606 204.805 35.303 203.926 34.3636C203.063 33.4242 202.396 32.4167 201.926 31.3409H201.699V50.0909H190.585ZM201.472 19.5455C201.472 21.4242 201.722 23.0606 202.222 24.4545C202.737 25.8485 203.472 26.9318 204.426 27.7045C205.396 28.4621 206.555 28.8409 207.903 28.8409C209.267 28.8409 210.426 28.4621 211.381 27.7045C212.335 26.9318 213.055 25.8485 213.54 24.4545C214.04 23.0606 214.29 21.4242 214.29 19.5455C214.29 17.6667 214.04 16.0379 213.54 14.6591C213.055 13.2803 212.335 12.2121 211.381 11.4545C210.441 10.697 209.282 10.3182 207.903 10.3182C206.54 10.3182 205.381 10.6894 204.426 11.4318C203.472 12.1742 202.737 13.2348 202.222 14.6136C201.722 15.9924 201.472 17.6364 201.472 19.5455ZM247.818 37.6591C244.152 37.6591 241 36.9091 238.364 35.4091C235.742 33.8939 233.72 31.7879 232.295 29.0909C230.886 26.3788 230.182 23.2348 230.182 19.6591C230.182 16.0682 230.886 12.9242 232.295 10.2273C233.72 7.51515 235.742 5.40909 238.364 3.90909C241 2.39394 244.152 1.63636 247.818 1.63636C251.485 1.63636 254.629 2.39394 257.25 3.90909C259.886 5.40909 261.909 7.51515 263.318 10.2273C264.742 12.9242 265.455 16.0682 265.455 19.6591C265.455 23.2348 264.742 26.3788 263.318 29.0909C261.909 31.7879 259.886 33.8939 257.25 35.4091C254.629 36.9091 251.485 37.6591 247.818 37.6591ZM247.886 29.2727C249.22 29.2727 250.348 28.8636 251.273 28.0455C252.197 27.2273 252.902 26.0909 253.386 24.6364C253.886 23.1818 254.136 21.5 254.136 19.5909C254.136 17.6515 253.886 15.9545 253.386 14.5C252.902 13.0455 252.197 11.9091 251.273 11.0909C250.348 10.2727 249.22 9.86364 247.886 9.86364C246.508 9.86364 245.341 10.2727 244.386 11.0909C243.447 11.9091 242.727 13.0455 242.227 14.5C241.742 15.9545 241.5 17.6515 241.5 19.5909C241.5 21.5 241.742 23.1818 242.227 24.6364C242.727 26.0909 243.447 27.2273 244.386 28.0455C245.341 28.8636 246.508 29.2727 247.886 29.2727ZM295.761 15.2045V23.6818H277.852V15.2045H295.761ZM281.67 2.09091V37H271.148V2.09091H281.67ZM302.466 2.09091V37H292.011V2.09091H302.466ZM333.824 15.2045V23.6818H315.915V15.2045H333.824ZM319.733 2.09091V37H309.21V2.09091H319.733ZM340.528 2.09091V37H330.074V2.09091H340.528ZM353.795 12.1818H364.386C369.189 12.1818 372.955 13.3106 375.682 15.5682C378.409 17.8106 379.78 20.8561 379.795 24.7045C379.78 27.2045 379.152 29.3788 377.909 31.2273C376.682 33.0606 374.917 34.4848 372.614 35.5C370.326 36.5 367.583 37 364.386 37H347.273V2.09091H357.795V28.5H364.386C365.841 28.5 367.038 28.1439 367.977 27.4318C368.917 26.7197 369.394 25.803 369.409 24.6818C369.394 23.5 368.917 22.5379 367.977 21.7955C367.038 21.053 365.841 20.6818 364.386 20.6818H353.795V12.1818ZM382.932 37V2.09091H394.045V37H382.932ZM417.403 37.6591C413.752 37.6591 410.6 36.9394 407.949 35.5C405.313 34.0455 403.282 31.9773 401.858 29.2955C400.449 26.5985 399.744 23.3939 399.744 19.6818C399.744 16.0758 400.456 12.9242 401.881 10.2273C403.305 7.51515 405.313 5.40909 407.903 3.90909C410.494 2.39394 413.547 1.63636 417.062 1.63636C419.547 1.63636 421.82 2.02273 423.881 2.79545C425.941 3.56818 427.722 4.71212 429.222 6.22727C430.722 7.74242 431.888 9.61364 432.722 11.8409C433.555 14.053 433.972 16.5909 433.972 19.4545V22.2273H403.631V15.7727H423.631C423.616 14.5909 423.335 13.5379 422.79 12.6136C422.244 11.6894 421.494 10.9697 420.54 10.4545C419.6 9.92424 418.517 9.65909 417.29 9.65909C416.047 9.65909 414.934 9.93939 413.949 10.5C412.964 11.0455 412.184 11.7955 411.608 12.75C411.032 13.6894 410.729 14.7576 410.699 15.9545V22.5227C410.699 23.947 410.979 25.197 411.54 26.2727C412.1 27.3333 412.896 28.1591 413.926 28.75C414.956 29.3409 416.184 29.6364 417.608 29.6364C418.593 29.6364 419.487 29.5 420.29 29.2273C421.093 28.9545 421.782 28.553 422.358 28.0227C422.934 27.4924 423.366 26.8409 423.653 26.0682L433.858 26.3636C433.434 28.6515 432.502 30.6439 431.062 32.3409C429.638 34.0227 427.767 35.3333 425.449 36.2727C423.131 37.197 420.449 37.6591 417.403 37.6591ZM469.693 37.6591C466.011 37.6591 462.852 36.9015 460.216 35.3864C457.595 33.8712 455.58 31.7652 454.17 29.0682C452.761 26.3561 452.057 23.2197 452.057 19.6591C452.057 16.0833 452.761 12.947 454.17 10.25C455.595 7.53788 457.617 5.42424 460.239 3.90909C462.875 2.39394 466.019 1.63636 469.67 1.63636C472.898 1.63636 475.708 2.2197 478.102 3.38636C480.511 4.55303 482.39 6.20454 483.739 8.34091C485.102 10.4621 485.822 12.9545 485.898 15.8182H475.511C475.299 14.0303 474.693 12.6288 473.693 11.6136C472.708 10.5985 471.42 10.0909 469.83 10.0909C468.542 10.0909 467.413 10.4545 466.443 11.1818C465.473 11.8939 464.716 12.9545 464.17 14.3636C463.64 15.7576 463.375 17.4848 463.375 19.5455C463.375 21.6061 463.64 23.3485 464.17 24.7727C464.716 26.1818 465.473 27.25 466.443 27.9773C467.413 28.6894 468.542 29.0455 469.83 29.0455C470.86 29.0455 471.769 28.8258 472.557 28.3864C473.36 27.947 474.019 27.303 474.534 26.4545C475.049 25.5909 475.375 24.5455 475.511 23.3182H485.898C485.792 26.197 485.072 28.7121 483.739 30.8636C482.42 33.0152 480.564 34.6894 478.17 35.8864C475.792 37.0682 472.966 37.6591 469.693 37.6591ZM502.108 22.6136L513.267 2.09091H523.949V37H513.426V16.4091L502.29 37H491.585V2.09091H502.108V22.6136ZM555.705 2.09091V10.5909H541.773V37H531.023V2.09091H555.705ZM569.739 37.5909C567.511 37.5909 565.534 37.2197 563.807 36.4773C562.095 35.7197 560.739 34.5833 559.739 33.0682C558.754 31.5379 558.261 29.6212 558.261 27.3182C558.261 25.3788 558.602 23.7424 559.284 22.4091C559.966 21.0758 560.905 19.9924 562.102 19.1591C563.299 18.3258 564.678 17.697 566.239 17.2727C567.799 16.8333 569.466 16.5379 571.239 16.3864C573.223 16.2045 574.822 16.0152 576.034 15.8182C577.246 15.6061 578.125 15.3106 578.67 14.9318C579.231 14.5379 579.511 13.9848 579.511 13.2727V13.1591C579.511 11.9924 579.11 11.0909 578.307 10.4545C577.504 9.81818 576.42 9.5 575.057 9.5C573.587 9.5 572.405 9.81818 571.511 10.4545C570.617 11.0909 570.049 11.9697 569.807 13.0909L559.557 12.7273C559.86 10.6061 560.64 8.71212 561.898 7.04545C563.17 5.36364 564.913 4.04545 567.125 3.09091C569.352 2.12121 572.026 1.63636 575.148 1.63636C577.375 1.63636 579.428 1.90151 581.307 2.43182C583.186 2.94697 584.822 3.70454 586.216 4.70454C587.61 5.68939 588.686 6.90151 589.443 8.34091C590.216 9.7803 590.602 11.4242 590.602 13.2727V37H580.148V32.1364H579.875C579.254 33.3182 578.458 34.3182 577.489 35.1364C576.534 35.9545 575.405 36.5682 574.102 36.9773C572.814 37.3864 571.36 37.5909 569.739 37.5909ZM573.17 30.3182C574.367 30.3182 575.443 30.0758 576.398 29.5909C577.367 29.1061 578.14 28.4394 578.716 27.5909C579.292 26.7273 579.58 25.7273 579.58 24.5909V21.2727C579.261 21.4394 578.875 21.5909 578.42 21.7273C577.981 21.8636 577.496 21.9924 576.966 22.1136C576.436 22.2348 575.89 22.3409 575.33 22.4318C574.769 22.5227 574.231 22.6061 573.716 22.6818C572.67 22.8485 571.777 23.1061 571.034 23.4545C570.307 23.803 569.746 24.2576 569.352 24.8182C568.974 25.3636 568.784 26.0152 568.784 26.7727C568.784 27.9242 569.193 28.803 570.011 29.4091C570.845 30.0152 571.898 30.3182 573.17 30.3182ZM597.398 50.0909V2.09091H608.398V8.06818H608.739C609.193 7.00757 609.837 5.98485 610.67 5C611.519 4.01515 612.595 3.21212 613.898 2.59091C615.216 1.95455 616.792 1.63636 618.625 1.63636C621.049 1.63636 623.314 2.27273 625.42 3.54545C627.542 4.81818 629.254 6.7803 630.557 9.43182C631.86 12.0833 632.511 15.4621 632.511 19.5682C632.511 23.5227 631.883 26.8333 630.625 29.5C629.383 32.1667 627.701 34.1667 625.58 35.5C623.473 36.8333 621.133 37.5 618.557 37.5C616.799 37.5 615.277 37.2121 613.989 36.6364C612.701 36.0606 611.617 35.303 610.739 34.3636C609.875 33.4242 609.208 32.4167 608.739 31.3409H608.511V50.0909H597.398ZM608.284 19.5455C608.284 21.4242 608.534 23.0606 609.034 24.4545C609.549 25.8485 610.284 26.9318 611.239 27.7045C612.208 28.4621 613.367 28.8409 614.716 28.8409C616.08 28.8409 617.239 28.4621 618.193 27.7045C619.148 26.9318 619.867 25.8485 620.352 24.4545C620.852 23.0606 621.102 21.4242 621.102 19.5455C621.102 17.6667 620.852 16.0379 620.352 14.6591C619.867 13.2803 619.148 12.2121 618.193 11.4545C617.254 10.697 616.095 10.3182 614.716 10.3182C613.352 10.3182 612.193 10.6894 611.239 11.4318C610.284 12.1742 609.549 13.2348 609.034 14.6136C608.534 15.9924 608.284 17.6364 608.284 19.5455ZM654.653 37.6591C651.002 37.6591 647.85 36.9394 645.199 35.5C642.562 34.0455 640.532 31.9773 639.108 29.2955C637.699 26.5985 636.994 23.3939 636.994 19.6818C636.994 16.0758 637.706 12.9242 639.131 10.2273C640.555 7.51515 642.563 5.40909 645.153 3.90909C647.744 2.39394 650.797 1.63636 654.312 1.63636C656.797 1.63636 659.07 2.02273 661.131 2.79545C663.191 3.56818 664.972 4.71212 666.472 6.22727C667.972 7.74242 669.138 9.61364 669.972 11.8409C670.805 14.053 671.222 16.5909 671.222 19.4545V22.2273H640.881V15.7727H660.881C660.866 14.5909 660.585 13.5379 660.04 12.6136C659.494 11.6894 658.744 10.9697 657.79 10.4545C656.85 9.92424 655.767 9.65909 654.54 9.65909C653.297 9.65909 652.184 9.93939 651.199 10.5C650.214 11.0455 649.434 11.7955 648.858 12.75C648.282 13.6894 647.979 14.7576 647.949 15.9545V22.5227C647.949 23.947 648.229 25.197 648.79 26.2727C649.35 27.3333 650.146 28.1591 651.176 28.75C652.206 29.3409 653.434 29.6364 654.858 29.6364C655.843 29.6364 656.737 29.5 657.54 29.2273C658.343 28.9545 659.032 28.553 659.608 28.0227C660.184 27.4924 660.616 26.8409 660.903 26.0682L671.108 26.3636C670.684 28.6515 669.752 30.6439 668.312 32.3409C666.888 34.0227 665.017 35.3333 662.699 36.2727C660.381 37.197 657.699 37.6591 654.653 37.6591ZM674.375 10.5909V2.09091H707.102V10.5909H695.943V37H685.398V10.5909H674.375ZM718.92 12.1818H729.511C734.314 12.1818 738.08 13.3106 740.807 15.5682C743.534 17.8106 744.905 20.8561 744.92 24.7045C744.905 27.2045 744.277 29.3788 743.034 31.2273C741.807 33.0606 740.042 34.4848 737.739 35.5C735.451 36.5 732.708 37 729.511 37H712.398V2.09091H722.92V28.5H729.511C730.966 28.5 732.163 28.1439 733.102 27.4318C734.042 26.7197 734.519 25.803 734.534 24.6818C734.519 23.5 734.042 22.5379 733.102 21.7955C732.163 21.053 730.966 20.6818 729.511 20.6818H718.92V12.1818ZM748.057 37V2.09091H759.17V37H748.057ZM401.273 114V67.4545H412.523V86.1364H430.864V67.4545H442.091V114H430.864V95.2955H412.523V114H401.273ZM493.08 90.7273C493.08 95.8485 492.095 100.189 490.125 103.75C488.155 107.311 485.489 110.015 482.125 111.864C478.777 113.712 475.019 114.636 470.852 114.636C466.67 114.636 462.905 113.705 459.557 111.841C456.208 109.977 453.549 107.273 451.58 103.727C449.625 100.167 448.648 95.8333 448.648 90.7273C448.648 85.6061 449.625 81.2652 451.58 77.7045C453.549 74.1439 456.208 71.4394 459.557 69.5909C462.905 67.7424 466.67 66.8182 470.852 66.8182C475.019 66.8182 478.777 67.7424 482.125 69.5909C485.489 71.4394 488.155 74.1439 490.125 77.7045C492.095 81.2652 493.08 85.6061 493.08 90.7273ZM481.58 90.7273C481.58 87.697 481.148 85.1364 480.284 83.0455C479.436 80.9545 478.208 79.3712 476.602 78.2955C475.011 77.2197 473.095 76.6818 470.852 76.6818C468.625 76.6818 466.708 77.2197 465.102 78.2955C463.496 79.3712 462.261 80.9545 461.398 83.0455C460.549 85.1364 460.125 87.697 460.125 90.7273C460.125 93.7576 460.549 96.3182 461.398 98.4091C462.261 100.5 463.496 102.083 465.102 103.159C466.708 104.235 468.625 104.773 470.852 104.773C473.095 104.773 475.011 104.235 476.602 103.159C478.208 102.083 479.436 100.5 480.284 98.4091C481.148 96.3182 481.58 93.7576 481.58 90.7273ZM496 76.5909V67.4545H535.341V76.5909H521.227V114H510.136V76.5909H496ZM565.994 81.4091C565.843 79.7424 565.169 78.447 563.972 77.5227C562.79 76.5833 561.1 76.1136 558.903 76.1136C557.449 76.1136 556.237 76.303 555.267 76.6818C554.297 77.0606 553.57 77.5833 553.085 78.25C552.6 78.9015 552.35 79.6515 552.335 80.5C552.305 81.197 552.441 81.8106 552.744 82.3409C553.063 82.8712 553.517 83.3409 554.108 83.75C554.714 84.1439 555.441 84.4924 556.29 84.7955C557.138 85.0985 558.093 85.3636 559.153 85.5909L563.153 86.5C565.456 87 567.487 87.6667 569.244 88.5C571.017 89.3333 572.502 90.3258 573.699 91.4773C574.911 92.6288 575.828 93.9545 576.449 95.4545C577.07 96.9545 577.388 98.6364 577.403 100.5C577.388 103.439 576.646 105.962 575.176 108.068C573.706 110.174 571.593 111.788 568.835 112.909C566.093 114.03 562.782 114.591 558.903 114.591C555.01 114.591 551.616 114.008 548.722 112.841C545.828 111.674 543.578 109.902 541.972 107.523C540.366 105.144 539.54 102.136 539.494 98.5H550.267C550.358 100 550.759 101.25 551.472 102.25C552.184 103.25 553.161 104.008 554.403 104.523C555.661 105.038 557.116 105.295 558.767 105.295C560.282 105.295 561.57 105.091 562.631 104.682C563.706 104.273 564.532 103.705 565.108 102.977C565.684 102.25 565.979 101.417 565.994 100.477C565.979 99.5985 565.706 98.8485 565.176 98.2273C564.646 97.5909 563.828 97.0455 562.722 96.5909C561.631 96.1212 560.237 95.6894 558.54 95.2955L553.676 94.1591C549.646 93.2348 546.472 91.7424 544.153 89.6818C541.835 87.6061 540.684 84.803 540.699 81.2727C540.684 78.3939 541.456 75.8712 543.017 73.7045C544.578 71.5379 546.737 69.8485 549.494 68.6364C552.252 67.4242 555.396 66.8182 558.926 66.8182C562.532 66.8182 565.661 67.4318 568.312 68.6591C570.979 69.8712 573.047 71.5758 574.517 73.7727C575.987 75.9697 576.737 78.5151 576.767 81.4091H565.994ZM583.085 114V67.4545H602.312C605.797 67.4545 608.805 68.1364 611.335 69.5C613.881 70.8485 615.843 72.7348 617.222 75.1591C618.6 77.5682 619.29 80.3712 619.29 83.5682C619.29 86.7803 618.585 89.5909 617.176 92C615.782 94.3939 613.79 96.25 611.199 97.5682C608.608 98.8864 605.532 99.5455 601.972 99.5455H590.108V90.6818H599.881C601.578 90.6818 602.994 90.3864 604.131 89.7955C605.282 89.2045 606.153 88.3788 606.744 87.3182C607.335 86.2424 607.631 84.9924 607.631 83.5682C607.631 82.1288 607.335 80.8864 606.744 79.8409C606.153 78.7803 605.282 77.9621 604.131 77.3864C602.979 76.8106 601.562 76.5227 599.881 76.5227H594.335V114H583.085ZM668.767 90.7273C668.767 95.8485 667.782 100.189 665.812 103.75C663.843 107.311 661.176 110.015 657.812 111.864C654.464 113.712 650.706 114.636 646.54 114.636C642.358 114.636 638.593 113.705 635.244 111.841C631.896 109.977 629.237 107.273 627.267 103.727C625.312 100.167 624.335 95.8333 624.335 90.7273C624.335 85.6061 625.312 81.2652 627.267 77.7045C629.237 74.1439 631.896 71.4394 635.244 69.5909C638.593 67.7424 642.358 66.8182 646.54 66.8182C650.706 66.8182 654.464 67.7424 657.812 69.5909C661.176 71.4394 663.843 74.1439 665.812 77.7045C667.782 81.2652 668.767 85.6061 668.767 90.7273ZM657.267 90.7273C657.267 87.697 656.835 85.1364 655.972 83.0455C655.123 80.9545 653.896 79.3712 652.29 78.2955C650.699 77.2197 648.782 76.6818 646.54 76.6818C644.313 76.6818 642.396 77.2197 640.79 78.2955C639.184 79.3712 637.949 80.9545 637.085 83.0455C636.237 85.1364 635.812 87.697 635.812 90.7273C635.812 93.7576 636.237 96.3182 637.085 98.4091C637.949 100.5 639.184 102.083 640.79 103.159C642.396 104.235 644.313 104.773 646.54 104.773C648.782 104.773 650.699 104.235 652.29 103.159C653.896 102.083 655.123 100.5 655.972 98.4091C656.835 96.3182 657.267 93.7576 657.267 90.7273ZM671.688 76.5909V67.4545H711.028V76.5909H696.915V114H685.824V76.5909H671.688Z"/>
</mask>
<path d="M15.8864 10.2045C14.8258 10.2045 13.9318 10.3864 13.2046 10.75C12.4773 11.1136 11.9318 11.6288 11.5682 12.2955C11.2197 12.9621 11.0455 13.7727 11.0455 14.7273H1.18182C1.18182 12.7121 1.54546 10.8939 2.27273 9.27273C3.00001 7.63636 4.02273 6.24242 5.34091 5.09091C6.67425 3.92424 8.23485 3.03788 10.0227 2.43182C11.8106 1.81061 13.7652 1.5 15.8864 1.5C19.5076 1.5 22.5455 2.27273 25 3.81818C27.4697 5.36363 29.3333 7.47727 30.5909 10.1591C31.8485 12.8258 32.4773 15.8485 32.4773 19.2273V19.9091C32.4773 23.303 31.8561 26.3409 30.6136 29.0227C29.3712 31.6894 27.5152 33.7955 25.0455 35.3409C22.5909 36.8712 19.5379 37.6364 15.8864 37.6364C12.9773 37.6364 10.4167 37.0833 8.20455 35.9773C6.00758 34.8712 4.28788 33.2652 3.04546 31.1591C1.80304 29.053 1.18182 26.5 1.18182 23.5H11.0455C11.0455 24.4848 11.2197 25.3864 11.5682 26.2045C11.9167 27.0076 12.447 27.6515 13.1591 28.1364C13.8864 28.6061 14.7955 28.8485 15.8864 28.8636C17.5985 28.8485 18.8864 28.3788 19.75 27.4545C20.6288 26.5303 21.2121 25.3788 21.5 24C21.803 22.6212 21.9546 21.2576 21.9546 19.9091V19.2273C21.9546 17.6818 21.7955 16.2273 21.4773 14.8636C21.1742 13.4848 20.5833 12.3636 19.7046 11.5C18.8409 10.6364 17.5682 10.2045 15.8864 10.2045ZM24.9318 16.6136V22.5682H13.5909V16.6136H24.9318ZM36.5057 37L36.4375 28.4318H37.5511C38.3087 28.4318 38.9678 28.2348 39.5284 27.8409C40.089 27.447 40.5587 26.8182 40.9375 25.9545C41.3163 25.0758 41.6193 23.947 41.8466 22.5682C42.0739 21.1894 42.2178 19.5152 42.2784 17.5455L42.8466 2.09091H70.483V37H59.9602V10.5909H52.733L52.1875 20.6364C52.0511 23.5909 51.6648 26.1136 51.0284 28.2045C50.4072 30.2803 49.5587 31.9621 48.483 33.25C47.4224 34.5379 46.1648 35.4848 44.7102 36.0909C43.2557 36.697 41.6117 37 39.7784 37H36.5057ZM93.5909 37.6591C89.9394 37.6591 86.7879 36.9394 84.1364 35.5C81.5 34.0455 79.4697 31.9773 78.0455 29.2955C76.6364 26.5985 75.9318 23.3939 75.9318 19.6818C75.9318 16.0758 76.6439 12.9242 78.0682 10.2273C79.4924 7.51515 81.5 5.40909 84.0909 3.90909C86.6818 2.39394 89.7349 1.63636 93.25 1.63636C95.7349 1.63636 98.0076 2.02273 100.068 2.79545C102.129 3.56818 103.909 4.71212 105.409 6.22727C106.909 7.74242 108.076 9.61364 108.909 11.8409C109.742 14.053 110.159 16.5909 110.159 19.4545V22.2273H79.8182V15.7727H99.8182C99.803 14.5909 99.5227 13.5379 98.9773 12.6136C98.4318 11.6894 97.6818 10.9697 96.7273 10.4545C95.7879 9.92424 94.7046 9.65909 93.4773 9.65909C92.2349 9.65909 91.1212 9.93939 90.1364 10.5C89.1515 11.0455 88.3712 11.7955 87.7955 12.75C87.2197 13.6894 86.9167 14.7576 86.8864 15.9545V22.5227C86.8864 23.947 87.1667 25.197 87.7273 26.2727C88.2879 27.3333 89.0833 28.1591 90.1136 28.75C91.1439 29.3409 92.3712 29.6364 93.7955 29.6364C94.7803 29.6364 95.6742 29.5 96.4773 29.2273C97.2803 28.9545 97.9697 28.553 98.5455 28.0227C99.1212 27.4924 99.553 26.8409 99.8409 26.0682L110.045 26.3636C109.621 28.6515 108.689 30.6439 107.25 32.3409C105.826 34.0227 103.955 35.3333 101.636 36.2727C99.3182 37.197 96.6364 37.6591 93.5909 37.6591ZM115.835 37V2.09091H126.949V15.0909H129.403L137.881 2.09091H150.744L138.994 19.5682L150.858 37H137.835L130.176 25.4091H126.949V37H115.835ZM152.562 10.5909V2.09091H185.29V10.5909H174.131V37H163.585V10.5909H152.562ZM190.585 50.0909V2.09091H201.585V8.06818H201.926C202.381 7.00757 203.025 5.98485 203.858 5C204.706 4.01515 205.782 3.21212 207.085 2.59091C208.403 1.95455 209.979 1.63636 211.812 1.63636C214.237 1.63636 216.502 2.27273 218.608 3.54545C220.729 4.81818 222.441 6.7803 223.744 9.43182C225.047 12.0833 225.699 15.4621 225.699 19.5682C225.699 23.5227 225.07 26.8333 223.812 29.5C222.57 32.1667 220.888 34.1667 218.767 35.5C216.661 36.8333 214.32 37.5 211.744 37.5C209.987 37.5 208.464 37.2121 207.176 36.6364C205.888 36.0606 204.805 35.303 203.926 34.3636C203.063 33.4242 202.396 32.4167 201.926 31.3409H201.699V50.0909H190.585ZM201.472 19.5455C201.472 21.4242 201.722 23.0606 202.222 24.4545C202.737 25.8485 203.472 26.9318 204.426 27.7045C205.396 28.4621 206.555 28.8409 207.903 28.8409C209.267 28.8409 210.426 28.4621 211.381 27.7045C212.335 26.9318 213.055 25.8485 213.54 24.4545C214.04 23.0606 214.29 21.4242 214.29 19.5455C214.29 17.6667 214.04 16.0379 213.54 14.6591C213.055 13.2803 212.335 12.2121 211.381 11.4545C210.441 10.697 209.282 10.3182 207.903 10.3182C206.54 10.3182 205.381 10.6894 204.426 11.4318C203.472 12.1742 202.737 13.2348 202.222 14.6136C201.722 15.9924 201.472 17.6364 201.472 19.5455ZM247.818 37.6591C244.152 37.6591 241 36.9091 238.364 35.4091C235.742 33.8939 233.72 31.7879 232.295 29.0909C230.886 26.3788 230.182 23.2348 230.182 19.6591C230.182 16.0682 230.886 12.9242 232.295 10.2273C233.72 7.51515 235.742 5.40909 238.364 3.90909C241 2.39394 244.152 1.63636 247.818 1.63636C251.485 1.63636 254.629 2.39394 257.25 3.90909C259.886 5.40909 261.909 7.51515 263.318 10.2273C264.742 12.9242 265.455 16.0682 265.455 19.6591C265.455 23.2348 264.742 26.3788 263.318 29.0909C261.909 31.7879 259.886 33.8939 257.25 35.4091C254.629 36.9091 251.485 37.6591 247.818 37.6591ZM247.886 29.2727C249.22 29.2727 250.348 28.8636 251.273 28.0455C252.197 27.2273 252.902 26.0909 253.386 24.6364C253.886 23.1818 254.136 21.5 254.136 19.5909C254.136 17.6515 253.886 15.9545 253.386 14.5C252.902 13.0455 252.197 11.9091 251.273 11.0909C250.348 10.2727 249.22 9.86364 247.886 9.86364C246.508 9.86364 245.341 10.2727 244.386 11.0909C243.447 11.9091 242.727 13.0455 242.227 14.5C241.742 15.9545 241.5 17.6515 241.5 19.5909C241.5 21.5 241.742 23.1818 242.227 24.6364C242.727 26.0909 243.447 27.2273 244.386 28.0455C245.341 28.8636 246.508 29.2727 247.886 29.2727ZM295.761 15.2045V23.6818H277.852V15.2045H295.761ZM281.67 2.09091V37H271.148V2.09091H281.67ZM302.466 2.09091V37H292.011V2.09091H302.466ZM333.824 15.2045V23.6818H315.915V15.2045H333.824ZM319.733 2.09091V37H309.21V2.09091H319.733ZM340.528 2.09091V37H330.074V2.09091H340.528ZM353.795 12.1818H364.386C369.189 12.1818 372.955 13.3106 375.682 15.5682C378.409 17.8106 379.78 20.8561 379.795 24.7045C379.78 27.2045 379.152 29.3788 377.909 31.2273C376.682 33.0606 374.917 34.4848 372.614 35.5C370.326 36.5 367.583 37 364.386 37H347.273V2.09091H357.795V28.5H364.386C365.841 28.5 367.038 28.1439 367.977 27.4318C368.917 26.7197 369.394 25.803 369.409 24.6818C369.394 23.5 368.917 22.5379 367.977 21.7955C367.038 21.053 365.841 20.6818 364.386 20.6818H353.795V12.1818ZM382.932 37V2.09091H394.045V37H382.932ZM417.403 37.6591C413.752 37.6591 410.6 36.9394 407.949 35.5C405.313 34.0455 403.282 31.9773 401.858 29.2955C400.449 26.5985 399.744 23.3939 399.744 19.6818C399.744 16.0758 400.456 12.9242 401.881 10.2273C403.305 7.51515 405.313 5.40909 407.903 3.90909C410.494 2.39394 413.547 1.63636 417.062 1.63636C419.547 1.63636 421.82 2.02273 423.881 2.79545C425.941 3.56818 427.722 4.71212 429.222 6.22727C430.722 7.74242 431.888 9.61364 432.722 11.8409C433.555 14.053 433.972 16.5909 433.972 19.4545V22.2273H403.631V15.7727H423.631C423.616 14.5909 423.335 13.5379 422.79 12.6136C422.244 11.6894 421.494 10.9697 420.54 10.4545C419.6 9.92424 418.517 9.65909 417.29 9.65909C416.047 9.65909 414.934 9.93939 413.949 10.5C412.964 11.0455 412.184 11.7955 411.608 12.75C411.032 13.6894 410.729 14.7576 410.699 15.9545V22.5227C410.699 23.947 410.979 25.197 411.54 26.2727C412.1 27.3333 412.896 28.1591 413.926 28.75C414.956 29.3409 416.184 29.6364 417.608 29.6364C418.593 29.6364 419.487 29.5 420.29 29.2273C421.093 28.9545 421.782 28.553 422.358 28.0227C422.934 27.4924 423.366 26.8409 423.653 26.0682L433.858 26.3636C433.434 28.6515 432.502 30.6439 431.062 32.3409C429.638 34.0227 427.767 35.3333 425.449 36.2727C423.131 37.197 420.449 37.6591 417.403 37.6591ZM469.693 37.6591C466.011 37.6591 462.852 36.9015 460.216 35.3864C457.595 33.8712 455.58 31.7652 454.17 29.0682C452.761 26.3561 452.057 23.2197 452.057 19.6591C452.057 16.0833 452.761 12.947 454.17 10.25C455.595 7.53788 457.617 5.42424 460.239 3.90909C462.875 2.39394 466.019 1.63636 469.67 1.63636C472.898 1.63636 475.708 2.2197 478.102 3.38636C480.511 4.55303 482.39 6.20454 483.739 8.34091C485.102 10.4621 485.822 12.9545 485.898 15.8182H475.511C475.299 14.0303 474.693 12.6288 473.693 11.6136C472.708 10.5985 471.42 10.0909 469.83 10.0909C468.542 10.0909 467.413 10.4545 466.443 11.1818C465.473 11.8939 464.716 12.9545 464.17 14.3636C463.64 15.7576 463.375 17.4848 463.375 19.5455C463.375 21.6061 463.64 23.3485 464.17 24.7727C464.716 26.1818 465.473 27.25 466.443 27.9773C467.413 28.6894 468.542 29.0455 469.83 29.0455C470.86 29.0455 471.769 28.8258 472.557 28.3864C473.36 27.947 474.019 27.303 474.534 26.4545C475.049 25.5909 475.375 24.5455 475.511 23.3182H485.898C485.792 26.197 485.072 28.7121 483.739 30.8636C482.42 33.0152 480.564 34.6894 478.17 35.8864C475.792 37.0682 472.966 37.6591 469.693 37.6591ZM502.108 22.6136L513.267 2.09091H523.949V37H513.426V16.4091L502.29 37H491.585V2.09091H502.108V22.6136ZM555.705 2.09091V10.5909H541.773V37H531.023V2.09091H555.705ZM569.739 37.5909C567.511 37.5909 565.534 37.2197 563.807 36.4773C562.095 35.7197 560.739 34.5833 559.739 33.0682C558.754 31.5379 558.261 29.6212 558.261 27.3182C558.261 25.3788 558.602 23.7424 559.284 22.4091C559.966 21.0758 560.905 19.9924 562.102 19.1591C563.299 18.3258 564.678 17.697 566.239 17.2727C567.799 16.8333 569.466 16.5379 571.239 16.3864C573.223 16.2045 574.822 16.0152 576.034 15.8182C577.246 15.6061 578.125 15.3106 578.67 14.9318C579.231 14.5379 579.511 13.9848 579.511 13.2727V13.1591C579.511 11.9924 579.11 11.0909 578.307 10.4545C577.504 9.81818 576.42 9.5 575.057 9.5C573.587 9.5 572.405 9.81818 571.511 10.4545C570.617 11.0909 570.049 11.9697 569.807 13.0909L559.557 12.7273C559.86 10.6061 560.64 8.71212 561.898 7.04545C563.17 5.36364 564.913 4.04545 567.125 3.09091C569.352 2.12121 572.026 1.63636 575.148 1.63636C577.375 1.63636 579.428 1.90151 581.307 2.43182C583.186 2.94697 584.822 3.70454 586.216 4.70454C587.61 5.68939 588.686 6.90151 589.443 8.34091C590.216 9.7803 590.602 11.4242 590.602 13.2727V37H580.148V32.1364H579.875C579.254 33.3182 578.458 34.3182 577.489 35.1364C576.534 35.9545 575.405 36.5682 574.102 36.9773C572.814 37.3864 571.36 37.5909 569.739 37.5909ZM573.17 30.3182C574.367 30.3182 575.443 30.0758 576.398 29.5909C577.367 29.1061 578.14 28.4394 578.716 27.5909C579.292 26.7273 579.58 25.7273 579.58 24.5909V21.2727C579.261 21.4394 578.875 21.5909 578.42 21.7273C577.981 21.8636 577.496 21.9924 576.966 22.1136C576.436 22.2348 575.89 22.3409 575.33 22.4318C574.769 22.5227 574.231 22.6061 573.716 22.6818C572.67 22.8485 571.777 23.1061 571.034 23.4545C570.307 23.803 569.746 24.2576 569.352 24.8182C568.974 25.3636 568.784 26.0152 568.784 26.7727C568.784 27.9242 569.193 28.803 570.011 29.4091C570.845 30.0152 571.898 30.3182 573.17 30.3182ZM597.398 50.0909V2.09091H608.398V8.06818H608.739C609.193 7.00757 609.837 5.98485 610.67 5C611.519 4.01515 612.595 3.21212 613.898 2.59091C615.216 1.95455 616.792 1.63636 618.625 1.63636C621.049 1.63636 623.314 2.27273 625.42 3.54545C627.542 4.81818 629.254 6.7803 630.557 9.43182C631.86 12.0833 632.511 15.4621 632.511 19.5682C632.511 23.5227 631.883 26.8333 630.625 29.5C629.383 32.1667 627.701 34.1667 625.58 35.5C623.473 36.8333 621.133 37.5 618.557 37.5C616.799 37.5 615.277 37.2121 613.989 36.6364C612.701 36.0606 611.617 35.303 610.739 34.3636C609.875 33.4242 609.208 32.4167 608.739 31.3409H608.511V50.0909H597.398ZM608.284 19.5455C608.284 21.4242 608.534 23.0606 609.034 24.4545C609.549 25.8485 610.284 26.9318 611.239 27.7045C612.208 28.4621 613.367 28.8409 614.716 28.8409C616.08 28.8409 617.239 28.4621 618.193 27.7045C619.148 26.9318 619.867 25.8485 620.352 24.4545C620.852 23.0606 621.102 21.4242 621.102 19.5455C621.102 17.6667 620.852 16.0379 620.352 14.6591C619.867 13.2803 619.148 12.2121 618.193 11.4545C617.254 10.697 616.095 10.3182 614.716 10.3182C613.352 10.3182 612.193 10.6894 611.239 11.4318C610.284 12.1742 609.549 13.2348 609.034 14.6136C608.534 15.9924 608.284 17.6364 608.284 19.5455ZM654.653 37.6591C651.002 37.6591 647.85 36.9394 645.199 35.5C642.562 34.0455 640.532 31.9773 639.108 29.2955C637.699 26.5985 636.994 23.3939 636.994 19.6818C636.994 16.0758 637.706 12.9242 639.131 10.2273C640.555 7.51515 642.563 5.40909 645.153 3.90909C647.744 2.39394 650.797 1.63636 654.312 1.63636C656.797 1.63636 659.07 2.02273 661.131 2.79545C663.191 3.56818 664.972 4.71212 666.472 6.22727C667.972 7.74242 669.138 9.61364 669.972 11.8409C670.805 14.053 671.222 16.5909 671.222 19.4545V22.2273H640.881V15.7727H660.881C660.866 14.5909 660.585 13.5379 660.04 12.6136C659.494 11.6894 658.744 10.9697 657.79 10.4545C656.85 9.92424 655.767 9.65909 654.54 9.65909C653.297 9.65909 652.184 9.93939 651.199 10.5C650.214 11.0455 649.434 11.7955 648.858 12.75C648.282 13.6894 647.979 14.7576 647.949 15.9545V22.5227C647.949 23.947 648.229 25.197 648.79 26.2727C649.35 27.3333 650.146 28.1591 651.176 28.75C652.206 29.3409 653.434 29.6364 654.858 29.6364C655.843 29.6364 656.737 29.5 657.54 29.2273C658.343 28.9545 659.032 28.553 659.608 28.0227C660.184 27.4924 660.616 26.8409 660.903 26.0682L671.108 26.3636C670.684 28.6515 669.752 30.6439 668.312 32.3409C666.888 34.0227 665.017 35.3333 662.699 36.2727C660.381 37.197 657.699 37.6591 654.653 37.6591ZM674.375 10.5909V2.09091H707.102V10.5909H695.943V37H685.398V10.5909H674.375ZM718.92 12.1818H729.511C734.314 12.1818 738.08 13.3106 740.807 15.5682C743.534 17.8106 744.905 20.8561 744.92 24.7045C744.905 27.2045 744.277 29.3788 743.034 31.2273C741.807 33.0606 740.042 34.4848 737.739 35.5C735.451 36.5 732.708 37 729.511 37H712.398V2.09091H722.92V28.5H729.511C730.966 28.5 732.163 28.1439 733.102 27.4318C734.042 26.7197 734.519 25.803 734.534 24.6818C734.519 23.5 734.042 22.5379 733.102 21.7955C732.163 21.053 730.966 20.6818 729.511 20.6818H718.92V12.1818ZM748.057 37V2.09091H759.17V37H748.057ZM401.273 114V67.4545H412.523V86.1364H430.864V67.4545H442.091V114H430.864V95.2955H412.523V114H401.273ZM493.08 90.7273C493.08 95.8485 492.095 100.189 490.125 103.75C488.155 107.311 485.489 110.015 482.125 111.864C478.777 113.712 475.019 114.636 470.852 114.636C466.67 114.636 462.905 113.705 459.557 111.841C456.208 109.977 453.549 107.273 451.58 103.727C449.625 100.167 448.648 95.8333 448.648 90.7273C448.648 85.6061 449.625 81.2652 451.58 77.7045C453.549 74.1439 456.208 71.4394 459.557 69.5909C462.905 67.7424 466.67 66.8182 470.852 66.8182C475.019 66.8182 478.777 67.7424 482.125 69.5909C485.489 71.4394 488.155 74.1439 490.125 77.7045C492.095 81.2652 493.08 85.6061 493.08 90.7273ZM481.58 90.7273C481.58 87.697 481.148 85.1364 480.284 83.0455C479.436 80.9545 478.208 79.3712 476.602 78.2955C475.011 77.2197 473.095 76.6818 470.852 76.6818C468.625 76.6818 466.708 77.2197 465.102 78.2955C463.496 79.3712 462.261 80.9545 461.398 83.0455C460.549 85.1364 460.125 87.697 460.125 90.7273C460.125 93.7576 460.549 96.3182 461.398 98.4091C462.261 100.5 463.496 102.083 465.102 103.159C466.708 104.235 468.625 104.773 470.852 104.773C473.095 104.773 475.011 104.235 476.602 103.159C478.208 102.083 479.436 100.5 480.284 98.4091C481.148 96.3182 481.58 93.7576 481.58 90.7273ZM496 76.5909V67.4545H535.341V76.5909H521.227V114H510.136V76.5909H496ZM565.994 81.4091C565.843 79.7424 565.169 78.447 563.972 77.5227C562.79 76.5833 561.1 76.1136 558.903 76.1136C557.449 76.1136 556.237 76.303 555.267 76.6818C554.297 77.0606 553.57 77.5833 553.085 78.25C552.6 78.9015 552.35 79.6515 552.335 80.5C552.305 81.197 552.441 81.8106 552.744 82.3409C553.063 82.8712 553.517 83.3409 554.108 83.75C554.714 84.1439 555.441 84.4924 556.29 84.7955C557.138 85.0985 558.093 85.3636 559.153 85.5909L563.153 86.5C565.456 87 567.487 87.6667 569.244 88.5C571.017 89.3333 572.502 90.3258 573.699 91.4773C574.911 92.6288 575.828 93.9545 576.449 95.4545C577.07 96.9545 577.388 98.6364 577.403 100.5C577.388 103.439 576.646 105.962 575.176 108.068C573.706 110.174 571.593 111.788 568.835 112.909C566.093 114.03 562.782 114.591 558.903 114.591C555.01 114.591 551.616 114.008 548.722 112.841C545.828 111.674 543.578 109.902 541.972 107.523C540.366 105.144 539.54 102.136 539.494 98.5H550.267C550.358 100 550.759 101.25 551.472 102.25C552.184 103.25 553.161 104.008 554.403 104.523C555.661 105.038 557.116 105.295 558.767 105.295C560.282 105.295 561.57 105.091 562.631 104.682C563.706 104.273 564.532 103.705 565.108 102.977C565.684 102.25 565.979 101.417 565.994 100.477C565.979 99.5985 565.706 98.8485 565.176 98.2273C564.646 97.5909 563.828 97.0455 562.722 96.5909C561.631 96.1212 560.237 95.6894 558.54 95.2955L553.676 94.1591C549.646 93.2348 546.472 91.7424 544.153 89.6818C541.835 87.6061 540.684 84.803 540.699 81.2727C540.684 78.3939 541.456 75.8712 543.017 73.7045C544.578 71.5379 546.737 69.8485 549.494 68.6364C552.252 67.4242 555.396 66.8182 558.926 66.8182C562.532 66.8182 565.661 67.4318 568.312 68.6591C570.979 69.8712 573.047 71.5758 574.517 73.7727C575.987 75.9697 576.737 78.5151 576.767 81.4091H565.994ZM583.085 114V67.4545H602.312C605.797 67.4545 608.805 68.1364 611.335 69.5C613.881 70.8485 615.843 72.7348 617.222 75.1591C618.6 77.5682 619.29 80.3712 619.29 83.5682C619.29 86.7803 618.585 89.5909 617.176 92C615.782 94.3939 613.79 96.25 611.199 97.5682C608.608 98.8864 605.532 99.5455 601.972 99.5455H590.108V90.6818H599.881C601.578 90.6818 602.994 90.3864 604.131 89.7955C605.282 89.2045 606.153 88.3788 606.744 87.3182C607.335 86.2424 607.631 84.9924 607.631 83.5682C607.631 82.1288 607.335 80.8864 606.744 79.8409C606.153 78.7803 605.282 77.9621 604.131 77.3864C602.979 76.8106 601.562 76.5227 599.881 76.5227H594.335V114H583.085ZM668.767 90.7273C668.767 95.8485 667.782 100.189 665.812 103.75C663.843 107.311 661.176 110.015 657.812 111.864C654.464 113.712 650.706 114.636 646.54 114.636C642.358 114.636 638.593 113.705 635.244 111.841C631.896 109.977 629.237 107.273 627.267 103.727C625.312 100.167 624.335 95.8333 624.335 90.7273C624.335 85.6061 625.312 81.2652 627.267 77.7045C629.237 74.1439 631.896 71.4394 635.244 69.5909C638.593 67.7424 642.358 66.8182 646.54 66.8182C650.706 66.8182 654.464 67.7424 657.812 69.5909C661.176 71.4394 663.843 74.1439 665.812 77.7045C667.782 81.2652 668.767 85.6061 668.767 90.7273ZM657.267 90.7273C657.267 87.697 656.835 85.1364 655.972 83.0455C655.123 80.9545 653.896 79.3712 652.29 78.2955C650.699 77.2197 648.782 76.6818 646.54 76.6818C644.313 76.6818 642.396 77.2197 640.79 78.2955C639.184 79.3712 637.949 80.9545 637.085 83.0455C636.237 85.1364 635.812 87.697 635.812 90.7273C635.812 93.7576 636.237 96.3182 637.085 98.4091C637.949 100.5 639.184 102.083 640.79 103.159C642.396 104.235 644.313 104.773 646.54 104.773C648.782 104.773 650.699 104.235 652.29 103.159C653.896 102.083 655.123 100.5 655.972 98.4091C656.835 96.3182 657.267 93.7576 657.267 90.7273ZM671.688 76.5909V67.4545H711.028V76.5909H696.915V114H685.824V76.5909H671.688Z" stroke="#999999" stroke-width="2" mask="url(#path-1-outside-1_45_26)"/>
</svg>
