<svg width="405" height="139" viewBox="0 0 405 139" fill="none" xmlns="http://www.w3.org/2000/svg">
<path d="M44.9716 1.45457L53.4716 16.1591H53.8352L62.4261 1.45457H75.017L60.9716 24.7273L75.4716 48H62.5625L53.8352 33.1364H53.4716L44.7443 48H31.9261L46.3579 24.7273L32.2898 1.45457H44.9716Z" fill="white"/>
<path d="M80.8352 48V13.0909H95.9034C100.403 13.0909 103.949 13.9015 106.54 15.5228C109.146 17.1288 110.449 19.4849 110.449 22.5909C110.449 24.394 109.714 25.947 108.244 27.25C106.79 28.5379 104.722 29.4091 102.04 29.8637C104.403 29.9849 106.366 30.4546 107.926 31.2727C109.487 32.0909 110.653 33.1288 111.426 34.3864C112.199 35.644 112.585 36.9849 112.585 38.4091C112.585 40.4697 112.032 42.2121 110.926 43.6364C109.82 45.0606 108.199 46.144 106.062 46.8864C103.941 47.6288 101.335 48 98.2443 48H80.8352ZM91.1761 39.9546H98.2443C99.4261 39.9546 100.35 39.6743 101.017 39.1137C101.699 38.5531 102.04 37.7803 102.04 36.7955C102.04 35.7349 101.699 34.9015 101.017 34.2955C100.35 33.6894 99.4261 33.3864 98.2443 33.3864H91.1761V39.9546ZM91.1761 27.3637H96.1988C97.0019 27.3637 97.6913 27.2424 98.267 27C98.8428 26.7576 99.2822 26.4091 99.5852 25.9546C99.9034 25.5 100.062 24.9546 100.062 24.3182C100.062 23.394 99.6913 22.6667 98.9488 22.1364C98.2216 21.6061 97.2064 21.3409 95.9034 21.3409H91.1761V27.3637Z" fill="white"/>
<path d="M127.926 48.5909C125.699 48.5909 123.722 48.2197 121.994 47.4773C120.282 46.7197 118.926 45.5834 117.926 44.0682C116.941 42.5379 116.449 40.6212 116.449 38.3182C116.449 36.3788 116.79 34.7424 117.472 33.4091C118.153 32.0758 119.093 30.9924 120.29 30.1591C121.487 29.3258 122.866 28.697 124.426 28.2727C125.987 27.8334 127.653 27.5379 129.426 27.3864C131.411 27.2046 133.009 27.0152 134.222 26.8182C135.434 26.6061 136.312 26.3106 136.858 25.9318C137.419 25.5379 137.699 24.9849 137.699 24.2727V24.1591C137.699 22.9924 137.297 22.0909 136.494 21.4546C135.691 20.8182 134.608 20.5 133.244 20.5C131.775 20.5 130.593 20.8182 129.699 21.4546C128.805 22.0909 128.237 22.9697 127.994 24.0909L117.744 23.7273C118.047 21.6061 118.828 19.7121 120.085 18.0455C121.358 16.3637 123.1 15.0455 125.312 14.0909C127.54 13.1212 130.214 12.6364 133.335 12.6364C135.562 12.6364 137.616 12.9015 139.494 13.4318C141.373 13.947 143.009 14.7046 144.403 15.7046C145.797 16.6894 146.873 17.9015 147.631 19.3409C148.403 20.7803 148.79 22.4243 148.79 24.2727V48H138.335V43.1364H138.062C137.441 44.3182 136.646 45.3182 135.676 46.1364C134.722 46.9546 133.593 47.5682 132.29 47.9773C131.002 48.3864 129.547 48.5909 127.926 48.5909ZM131.358 41.3182C132.555 41.3182 133.631 41.0758 134.585 40.5909C135.555 40.1061 136.328 39.4394 136.903 38.5909C137.479 37.7273 137.767 36.7273 137.767 35.5909V32.2728C137.449 32.4394 137.062 32.5909 136.608 32.7273C136.169 32.8637 135.684 32.9924 135.153 33.1137C134.623 33.2349 134.078 33.3409 133.517 33.4318C132.956 33.5227 132.419 33.6061 131.903 33.6818C130.858 33.8485 129.964 34.1061 129.222 34.4546C128.494 34.8031 127.934 35.2576 127.54 35.8182C127.161 36.3637 126.972 37.0152 126.972 37.7728C126.972 38.9243 127.381 39.8031 128.199 40.4091C129.032 41.0152 130.085 41.3182 131.358 41.3182Z" fill="white"/>
<path d="M152.5 21.5909V13.0909H185.227V21.5909H174.068V48H163.523V21.5909H152.5Z" fill="white"/>
<path d="M199.301 48.5909C197.074 48.5909 195.097 48.2197 193.369 47.4773C191.657 46.7197 190.301 45.5834 189.301 44.0682C188.316 42.5379 187.824 40.6212 187.824 38.3182C187.824 36.3788 188.165 34.7424 188.847 33.4091C189.528 32.0758 190.468 30.9924 191.665 30.1591C192.862 29.3258 194.241 28.697 195.801 28.2727C197.362 27.8334 199.028 27.5379 200.801 27.3864C202.786 27.2046 204.384 27.0152 205.597 26.8182C206.809 26.6061 207.687 26.3106 208.233 25.9318C208.794 25.5379 209.074 24.9849 209.074 24.2727V24.1591C209.074 22.9924 208.672 22.0909 207.869 21.4546C207.066 20.8182 205.983 20.5 204.619 20.5C203.15 20.5 201.968 20.8182 201.074 21.4546C200.18 22.0909 199.612 22.9697 199.369 24.0909L189.119 23.7273C189.422 21.6061 190.203 19.7121 191.46 18.0455C192.733 16.3637 194.475 15.0455 196.687 14.0909C198.915 13.1212 201.589 12.6364 204.71 12.6364C206.937 12.6364 208.991 12.9015 210.869 13.4318C212.748 13.947 214.384 14.7046 215.778 15.7046C217.172 16.6894 218.248 17.9015 219.006 19.3409C219.778 20.7803 220.165 22.4243 220.165 24.2727V48H209.71V43.1364H209.437C208.816 44.3182 208.021 45.3182 207.051 46.1364C206.097 46.9546 204.968 47.5682 203.665 47.9773C202.377 48.3864 200.922 48.5909 199.301 48.5909ZM202.733 41.3182C203.93 41.3182 205.006 41.0758 205.96 40.5909C206.93 40.1061 207.703 39.4394 208.278 38.5909C208.854 37.7273 209.142 36.7273 209.142 35.5909V32.2728C208.824 32.4394 208.437 32.5909 207.983 32.7273C207.544 32.8637 207.059 32.9924 206.528 33.1137C205.998 33.2349 205.453 33.3409 204.892 33.4318C204.331 33.5227 203.794 33.6061 203.278 33.6818C202.233 33.8485 201.339 34.1061 200.597 34.4546C199.869 34.8031 199.309 35.2576 198.915 35.8182C198.536 36.3637 198.347 37.0152 198.347 37.7728C198.347 38.9243 198.756 39.8031 199.574 40.4091C200.407 41.0152 201.46 41.3182 202.733 41.3182Z" fill="white"/>
<path d="M237.483 33.6137L248.642 13.0909H259.324V48H248.801V27.4091L237.665 48H226.96V13.0909H237.483V33.6137ZM247.642 0.727295H254.96C254.945 3.57578 253.869 5.86366 251.733 7.59093C249.612 9.3182 246.733 10.1818 243.097 10.1818C239.46 10.1818 236.574 9.3182 234.437 7.59093C232.316 5.86366 231.263 3.57578 231.278 0.727295H238.528C238.513 1.72729 238.854 2.63639 239.551 3.45457C240.248 4.27275 241.43 4.68184 243.097 4.68184C244.718 4.68184 245.877 4.28032 246.574 3.47729C247.271 2.67426 247.627 1.7576 247.642 0.727295Z" fill="white"/>
<path d="M304.761 26.2046V34.6818H286.852V26.2046H304.761ZM290.67 13.0909V48H280.148V13.0909H290.67ZM311.466 13.0909V48H301.011V13.0909H311.466Z" fill="white"/>
<path d="M328.051 48.5909C325.824 48.5909 323.847 48.2197 322.119 47.4773C320.407 46.7197 319.051 45.5834 318.051 44.0682C317.066 42.5379 316.574 40.6212 316.574 38.3182C316.574 36.3788 316.915 34.7424 317.597 33.4091C318.278 32.0758 319.218 30.9924 320.415 30.1591C321.612 29.3258 322.991 28.697 324.551 28.2727C326.112 27.8334 327.778 27.5379 329.551 27.3864C331.536 27.2046 333.134 27.0152 334.347 26.8182C335.559 26.6061 336.438 26.3106 336.983 25.9318C337.544 25.5379 337.824 24.9849 337.824 24.2727V24.1591C337.824 22.9924 337.422 22.0909 336.619 21.4546C335.816 20.8182 334.733 20.5 333.369 20.5C331.9 20.5 330.718 20.8182 329.824 21.4546C328.93 22.0909 328.362 22.9697 328.119 24.0909L317.869 23.7273C318.172 21.6061 318.953 19.7121 320.21 18.0455C321.483 16.3637 323.225 15.0455 325.437 14.0909C327.665 13.1212 330.339 12.6364 333.46 12.6364C335.687 12.6364 337.741 12.9015 339.619 13.4318C341.498 13.947 343.134 14.7046 344.528 15.7046C345.922 16.6894 346.998 17.9015 347.756 19.3409C348.528 20.7803 348.915 22.4243 348.915 24.2727V48H338.46V43.1364H338.187C337.566 44.3182 336.771 45.3182 335.801 46.1364C334.847 46.9546 333.718 47.5682 332.415 47.9773C331.127 48.3864 329.672 48.5909 328.051 48.5909ZM331.483 41.3182C332.68 41.3182 333.756 41.0758 334.71 40.5909C335.68 40.1061 336.453 39.4394 337.028 38.5909C337.604 37.7273 337.892 36.7273 337.892 35.5909V32.2728C337.574 32.4394 337.188 32.5909 336.733 32.7273C336.294 32.8637 335.809 32.9924 335.278 33.1137C334.748 33.2349 334.203 33.3409 333.642 33.4318C333.081 33.5227 332.544 33.6061 332.028 33.6818C330.983 33.8485 330.089 34.1061 329.347 34.4546C328.619 34.8031 328.059 35.2576 327.665 35.8182C327.286 36.3637 327.097 37.0152 327.097 37.7728C327.097 38.9243 327.506 39.8031 328.324 40.4091C329.157 41.0152 330.21 41.3182 331.483 41.3182Z" fill="white"/>
<path d="M355.71 13.0909H366.233V39.4318H374.983V13.0909H385.506V39.4318H394.256V13.0909H404.778V48H355.71V13.0909Z" fill="white"/>
<path d="M25.2613 103.205V111.682H7.35225V103.205H25.2613ZM11.1704 90.0909V125H0.647705V90.0909H11.1704ZM31.9659 90.0909V125H21.5113V90.0909H31.9659Z" fill="white"/>
<path d="M55.0057 125.659C51.339 125.659 48.1875 124.909 45.5511 123.409C42.9299 121.894 40.9072 119.788 39.4829 117.091C38.0738 114.379 37.3693 111.235 37.3693 107.659C37.3693 104.068 38.0738 100.924 39.4829 98.2273C40.9072 95.5152 42.9299 93.4091 45.5511 91.9091C48.1875 90.394 51.339 89.6364 55.0057 89.6364C58.6723 89.6364 61.8163 90.394 64.4375 91.9091C67.0738 93.4091 69.0966 95.5152 70.5057 98.2273C71.9299 100.924 72.642 104.068 72.642 107.659C72.642 111.235 71.9299 114.379 70.5057 117.091C69.0966 119.788 67.0738 121.894 64.4375 123.409C61.8163 124.909 58.6723 125.659 55.0057 125.659ZM55.0738 117.273C56.4072 117.273 57.536 116.864 58.4602 116.045C59.3844 115.227 60.089 114.091 60.5738 112.636C61.0738 111.182 61.3238 109.5 61.3238 107.591C61.3238 105.652 61.0738 103.955 60.5738 102.5C60.089 101.045 59.3844 99.9091 58.4602 99.0909C57.536 98.2727 56.4072 97.8637 55.0738 97.8637C53.6951 97.8637 52.5284 98.2727 51.5738 99.0909C50.6344 99.9091 49.9147 101.045 49.4147 102.5C48.9299 103.955 48.6875 105.652 48.6875 107.591C48.6875 109.5 48.9299 111.182 49.4147 112.636C49.9147 114.091 50.6344 115.227 51.5738 116.045C52.5284 116.864 53.6951 117.273 55.0738 117.273Z" fill="white"/>
<path d="M78.3352 125V90.0909H93.4034C97.9034 90.0909 101.449 90.9015 104.04 92.5228C106.646 94.1288 107.949 96.4849 107.949 99.5909C107.949 101.394 107.214 102.947 105.744 104.25C104.29 105.538 102.222 106.409 99.5397 106.864C101.903 106.985 103.866 107.455 105.426 108.273C106.987 109.091 108.153 110.129 108.926 111.386C109.699 112.644 110.085 113.985 110.085 115.409C110.085 117.47 109.532 119.212 108.426 120.636C107.32 122.061 105.699 123.144 103.562 123.886C101.441 124.629 98.8352 125 95.7443 125H78.3352ZM88.6761 116.955H95.7443C96.9261 116.955 97.8504 116.674 98.517 116.114C99.1988 115.553 99.5397 114.78 99.5397 113.795C99.5397 112.735 99.1988 111.902 98.517 111.295C97.8504 110.689 96.9261 110.386 95.7443 110.386H88.6761V116.955ZM88.6761 104.364H93.6988C94.5019 104.364 95.1913 104.242 95.767 104C96.3428 103.758 96.7822 103.409 97.0852 102.955C97.4034 102.5 97.5625 101.955 97.5625 101.318C97.5625 100.394 97.1913 99.6667 96.4488 99.1364C95.7216 98.6061 94.7064 98.3409 93.4034 98.3409H88.6761V104.364Z" fill="white"/>
<path d="M122.108 100.182H132.699C137.502 100.182 141.267 101.311 143.994 103.568C146.722 105.811 148.093 108.856 148.108 112.705C148.093 115.205 147.464 117.379 146.222 119.227C144.994 121.061 143.229 122.485 140.926 123.5C138.638 124.5 135.896 125 132.699 125H115.585V90.0909H126.108V116.5H132.699C134.153 116.5 135.35 116.144 136.29 115.432C137.229 114.72 137.706 113.803 137.722 112.682C137.706 111.5 137.229 110.538 136.29 109.795C135.35 109.053 134.153 108.682 132.699 108.682H122.108V100.182ZM151.244 125V90.0909H162.358V125H151.244Z" fill="white"/>
<path d="M179.92 110.614L191.08 90.0909H201.761V125H191.239V104.409L180.102 125H169.398V90.0909H179.92V110.614ZM190.08 77.7273H197.398C197.383 80.5758 196.307 82.8637 194.17 84.5909C192.049 86.3182 189.17 87.1818 185.534 87.1818C181.898 87.1818 179.011 86.3182 176.875 84.5909C174.754 82.8637 173.701 80.5758 173.716 77.7273H180.966C180.951 78.7273 181.292 79.6364 181.989 80.4546C182.686 81.2728 183.867 81.6818 185.534 81.6818C187.155 81.6818 188.314 81.2803 189.011 80.4773C189.708 79.6743 190.064 78.7576 190.08 77.7273Z" fill="white"/>
<path d="M243.722 113.136L252.267 90.0909H260.403L247.29 125H240.153L227.381 90.0909H235.494L243.722 113.136ZM233.108 90.0909V125H222.585V90.0909H233.108ZM254.972 125V90.0909H265.358V125H254.972Z" fill="white"/>
<path d="M288.403 125.659C284.752 125.659 281.6 124.939 278.949 123.5C276.312 122.045 274.282 119.977 272.858 117.295C271.449 114.599 270.744 111.394 270.744 107.682C270.744 104.076 271.456 100.924 272.881 98.2273C274.305 95.5152 276.312 93.4091 278.903 91.9091C281.494 90.394 284.547 89.6364 288.062 89.6364C290.547 89.6364 292.82 90.0227 294.881 90.7955C296.941 91.5682 298.722 92.7121 300.222 94.2273C301.722 95.7424 302.888 97.6137 303.722 99.8409C304.555 102.053 304.972 104.591 304.972 107.455V110.227H274.631V103.773H294.631C294.616 102.591 294.335 101.538 293.79 100.614C293.244 99.6894 292.494 98.9697 291.54 98.4546C290.6 97.9243 289.517 97.6591 288.29 97.6591C287.047 97.6591 285.934 97.9394 284.949 98.5C283.964 99.0455 283.184 99.7955 282.608 100.75C282.032 101.689 281.729 102.758 281.699 103.955V110.523C281.699 111.947 281.979 113.197 282.54 114.273C283.1 115.333 283.896 116.159 284.926 116.75C285.956 117.341 287.184 117.636 288.608 117.636C289.593 117.636 290.487 117.5 291.29 117.227C292.093 116.955 292.782 116.553 293.358 116.023C293.934 115.492 294.366 114.841 294.653 114.068L304.858 114.364C304.434 116.652 303.502 118.644 302.062 120.341C300.638 122.023 298.767 123.333 296.449 124.273C294.131 125.197 291.449 125.659 288.403 125.659Z" fill="white"/>
<path d="M310.648 138.091V90.0909H321.648V96.0682H321.989C322.443 95.0076 323.087 93.9849 323.92 93C324.769 92.0152 325.845 91.2121 327.148 90.5909C328.466 89.9546 330.042 89.6364 331.875 89.6364C334.299 89.6364 336.564 90.2727 338.67 91.5455C340.792 92.8182 342.504 94.7803 343.807 97.4318C345.11 100.083 345.761 103.462 345.761 107.568C345.761 111.523 345.133 114.833 343.875 117.5C342.633 120.167 340.951 122.167 338.83 123.5C336.723 124.833 334.383 125.5 331.807 125.5C330.049 125.5 328.526 125.212 327.239 124.636C325.951 124.061 324.867 123.303 323.989 122.364C323.125 121.424 322.458 120.417 321.989 119.341H321.761V138.091H310.648ZM321.534 107.545C321.534 109.424 321.784 111.061 322.284 112.455C322.799 113.849 323.534 114.932 324.489 115.705C325.458 116.462 326.617 116.841 327.966 116.841C329.33 116.841 330.489 116.462 331.443 115.705C332.398 114.932 333.117 113.849 333.602 112.455C334.102 111.061 334.352 109.424 334.352 107.545C334.352 105.667 334.102 104.038 333.602 102.659C333.117 101.28 332.398 100.212 331.443 99.4546C330.504 98.697 329.345 98.3182 327.966 98.3182C326.602 98.3182 325.443 98.6894 324.489 99.4318C323.534 100.174 322.799 101.235 322.284 102.614C321.784 103.992 321.534 105.636 321.534 107.545Z" fill="white"/>
<path d="M383.017 90.0909V125H372.562V90.0909H383.017ZM377.722 104.977V113.477C377.131 113.78 376.297 114.076 375.222 114.364C374.161 114.636 373.04 114.864 371.858 115.045C370.691 115.227 369.653 115.318 368.744 115.318C363.381 115.318 359.176 114.295 356.131 112.25C353.1 110.189 351.585 106.841 351.585 102.205V90.0682H361.972V102.205C361.972 103.402 362.161 104.333 362.54 105C362.934 105.667 363.616 106.136 364.585 106.409C365.57 106.682 366.956 106.818 368.744 106.818C370.108 106.818 371.502 106.667 372.926 106.364C374.366 106.045 375.964 105.583 377.722 104.977Z" fill="white"/>
<path d="M402.841 78.4546L401.795 110.75H392.455L391.409 78.4546H402.841ZM397.114 125.659C395.492 125.659 394.098 125.083 392.932 123.932C391.78 122.78 391.205 121.386 391.205 119.75C391.205 118.144 391.78 116.773 392.932 115.636C394.098 114.485 395.492 113.909 397.114 113.909C398.674 113.909 400.045 114.485 401.227 115.636C402.424 116.773 403.023 118.144 403.023 119.75C403.023 120.841 402.742 121.833 402.182 122.727C401.636 123.621 400.917 124.333 400.023 124.864C399.144 125.394 398.174 125.659 397.114 125.659Z" fill="white"/>
</svg>
