<svg width="148" height="70" viewBox="0 0 148 70" fill="none" xmlns="http://www.w3.org/2000/svg">
<path d="M1.50003 0.727264H9.36366L14.7728 13.9091H15.0455L20.4546 0.727264H28.3182V24H22.1364V10.5454H21.9546L16.7728 23.8182H13.0455L7.86366 10.4545H7.68185V24H1.50003V0.727264Z" fill="white"/>
<path d="M36.2671 24.2727C35.1534 24.2727 34.1686 24.0909 33.3125 23.7273C32.464 23.3561 31.7974 22.7954 31.3125 22.0454C30.8277 21.2954 30.5853 20.3409 30.5853 19.1818C30.5853 18.2273 30.7481 17.4129 31.0739 16.7386C31.3997 16.0568 31.8542 15.5 32.4375 15.0682C33.0209 14.6364 33.6989 14.3068 34.4716 14.0795C35.2519 13.8523 36.0928 13.7045 36.9943 13.6364C37.9716 13.5606 38.7557 13.4697 39.3466 13.3636C39.9451 13.25 40.3769 13.0947 40.6421 12.8977C40.9072 12.6932 41.0398 12.4242 41.0398 12.0909V12.0454C41.0398 11.5909 40.8656 11.2424 40.5171 11C40.1686 10.7576 39.7216 10.6364 39.1762 10.6364C38.5777 10.6364 38.089 10.7689 37.7103 11.0341C37.339 11.2917 37.1156 11.6894 37.0398 12.2273H31.2671C31.3428 11.1667 31.68 10.1894 32.2784 9.29545C32.8845 8.39393 33.7671 7.67424 34.9262 7.13636C36.0853 6.5909 37.5322 6.31817 39.2671 6.31817C40.5171 6.31817 41.6383 6.4659 42.6307 6.76136C43.6231 7.04924 44.4678 7.45454 45.1648 7.97726C45.8618 8.49242 46.3921 9.09848 46.7557 9.79545C47.1269 10.4848 47.3125 11.2348 47.3125 12.0454V24H41.4489V21.5454H41.3125C40.964 22.197 40.5398 22.7235 40.0398 23.125C39.5474 23.5265 38.983 23.8182 38.3466 24C37.7178 24.1818 37.0246 24.2727 36.2671 24.2727ZM38.3125 20.3182C38.7898 20.3182 39.2368 20.2197 39.6534 20.0227C40.0777 19.8258 40.4224 19.5417 40.6875 19.1704C40.9527 18.7992 41.0853 18.3485 41.0853 17.8182V16.3636C40.9186 16.4318 40.7406 16.4962 40.5512 16.5568C40.3693 16.6174 40.1724 16.6742 39.9603 16.7273C39.7557 16.7803 39.536 16.8295 39.3012 16.875C39.0739 16.9204 38.8353 16.9621 38.5853 17C38.1004 17.0757 37.7027 17.2007 37.3921 17.375C37.089 17.5417 36.8618 17.75 36.7103 18C36.5663 18.2424 36.4943 18.5151 36.4943 18.8182C36.4943 19.303 36.6648 19.6742 37.0057 19.9318C37.3466 20.1894 37.7822 20.3182 38.3125 20.3182Z" fill="white"/>
<path d="M61.1279 17.5L64.9461 6.54545H69.4006L63.0824 24H59.1733L53.037 6.54545H57.4915L61.1279 17.5ZM56.2188 6.54545V24H50.3097V6.54545H56.2188ZM66.4461 24V6.54545H72.2642V24H66.4461Z" fill="white"/>
<path d="M80.1421 24.2727C79.0284 24.2727 78.0436 24.0909 77.1875 23.7273C76.339 23.3561 75.6724 22.7954 75.1875 22.0454C74.7027 21.2954 74.4603 20.3409 74.4603 19.1818C74.4603 18.2273 74.6231 17.4129 74.9489 16.7386C75.2746 16.0568 75.7292 15.5 76.3125 15.0682C76.8959 14.6364 77.5739 14.3068 78.3466 14.0795C79.1269 13.8523 79.9678 13.7045 80.8693 13.6364C81.8466 13.5606 82.6307 13.4697 83.2216 13.3636C83.8201 13.25 84.2519 13.0947 84.5171 12.8977C84.7822 12.6932 84.9148 12.4242 84.9148 12.0909V12.0454C84.9148 11.5909 84.7406 11.2424 84.3921 11C84.0436 10.7576 83.5966 10.6364 83.0512 10.6364C82.4527 10.6364 81.964 10.7689 81.5853 11.0341C81.214 11.2917 80.9906 11.6894 80.9148 12.2273H75.1421C75.2178 11.1667 75.555 10.1894 76.1534 9.29545C76.7595 8.39393 77.6421 7.67424 78.8012 7.13636C79.9603 6.5909 81.4072 6.31817 83.1421 6.31817C84.3921 6.31817 85.5133 6.4659 86.5057 6.76136C87.4981 7.04924 88.3428 7.45454 89.0398 7.97726C89.7368 8.49242 90.2671 9.09848 90.6307 9.79545C91.0019 10.4848 91.1875 11.2348 91.1875 12.0454V24H85.3239V21.5454H85.1875C84.839 22.197 84.4148 22.7235 83.9148 23.125C83.4224 23.5265 82.858 23.8182 82.2216 24C81.5928 24.1818 80.8997 24.2727 80.1421 24.2727ZM82.1875 20.3182C82.6648 20.3182 83.1118 20.2197 83.5284 20.0227C83.9527 19.8258 84.2974 19.5417 84.5625 19.1704C84.8277 18.7992 84.9603 18.3485 84.9603 17.8182V16.3636C84.7936 16.4318 84.6156 16.4962 84.4262 16.5568C84.2444 16.6174 84.0474 16.6742 83.8353 16.7273C83.6307 16.7803 83.411 16.8295 83.1762 16.875C82.9489 16.9204 82.7103 16.9621 82.4603 17C81.9754 17.0757 81.5777 17.2007 81.2671 17.375C80.964 17.5417 80.7368 17.75 80.5853 18C80.4413 18.2424 80.3693 18.5151 80.3693 18.8182C80.3693 19.303 80.5398 19.6742 80.8807 19.9318C81.2216 20.1894 81.6572 20.3182 82.1875 20.3182Z" fill="white"/>
<path d="M100.276 20.8182L100.185 22.0909C100.109 23.1818 99.9271 24.2273 99.6392 25.2273C99.3589 26.2273 99.0597 27.1136 98.7415 27.8864C98.4309 28.6591 98.1847 29.2576 98.0029 29.6818H94.1392C94.2604 29.2576 94.4309 28.6439 94.6506 27.8409C94.8779 27.0454 95.0824 26.1439 95.2642 25.1364C95.4536 24.1364 95.5483 23.1212 95.5483 22.0909V20.8182H100.276Z" fill="white"/>
<path d="M11.6364 63V50.2273H9.27276C8.48488 50.2273 7.90533 50.4091 7.53412 50.7727C7.16291 51.1364 6.98488 51.5 7.00003 51.8636C6.98488 52.25 7.17427 52.6136 7.56821 52.9545C7.96215 53.2879 8.57579 53.4545 9.40912 53.4545H13.8637V57.2273H9.40912C7.70457 57.2273 6.2273 56.9886 4.9773 56.5114C3.7273 56.0341 2.76518 55.375 2.09094 54.5341C1.41669 53.6932 1.08336 52.7273 1.09094 51.6364C1.08336 50.4545 1.40912 49.4053 2.06821 48.4886C2.73488 47.572 3.68185 46.8523 4.90912 46.3295C6.14397 45.8068 7.59851 45.5454 9.27276 45.5454H17.4546V63H11.6364ZM0.909119 63L5.68185 53.6364H11.4546L6.68185 63H0.909119Z" fill="white"/>
<path d="M39.2955 51.8636V56.5454H30.5228V51.8636H39.2955ZM32.75 45.5454V63H26.8409V45.5454H32.75ZM42.9773 45.5454V63H37.1137V45.5454H42.9773Z" fill="white"/>
<path d="M50.8296 63.2727C49.7159 63.2727 48.7311 63.0909 47.875 62.7273C47.0265 62.3561 46.3599 61.7954 45.875 61.0454C45.3902 60.2954 45.1478 59.3409 45.1478 58.1818C45.1478 57.2273 45.3106 56.4129 45.6364 55.7386C45.9621 55.0568 46.4167 54.5 47 54.0682C47.5834 53.6364 48.2614 53.3068 49.0341 53.0795C49.8144 52.8523 50.6553 52.7045 51.5568 52.6364C52.5341 52.5606 53.3182 52.4697 53.9091 52.3636C54.5076 52.25 54.9394 52.0947 55.2046 51.8977C55.4697 51.6932 55.6023 51.4242 55.6023 51.0909V51.0454C55.6023 50.5909 55.4281 50.2424 55.0796 50C54.7311 49.7576 54.2841 49.6364 53.7387 49.6364C53.1402 49.6364 52.6515 49.7689 52.2728 50.0341C51.9015 50.2917 51.6781 50.6894 51.6023 51.2273H45.8296C45.9053 50.1667 46.2424 49.1894 46.8409 48.2954C47.447 47.3939 48.3296 46.6742 49.4887 46.1364C50.6478 45.5909 52.0947 45.3182 53.8296 45.3182C55.0796 45.3182 56.2008 45.4659 57.1932 45.7614C58.1856 46.0492 59.0303 46.4545 59.7273 46.9773C60.4243 47.4924 60.9546 48.0985 61.3182 48.7954C61.6894 49.4848 61.875 50.2348 61.875 51.0454V63H56.0114V60.5454H55.875C55.5265 61.197 55.1023 61.7235 54.6023 62.125C54.1099 62.5265 53.5455 62.8182 52.9091 63C52.2803 63.1818 51.5871 63.2727 50.8296 63.2727ZM52.875 59.3182C53.3523 59.3182 53.7993 59.2197 54.2159 59.0227C54.6402 58.8258 54.9849 58.5417 55.25 58.1704C55.5152 57.7992 55.6478 57.3485 55.6478 56.8182V55.3636C55.4811 55.4318 55.3031 55.4962 55.1137 55.5568C54.9318 55.6174 54.7349 55.6742 54.5228 55.7273C54.3182 55.7803 54.0985 55.8295 53.8637 55.875C53.6364 55.9204 53.3978 55.9621 53.1478 56C52.6629 56.0757 52.2652 56.2007 51.9546 56.375C51.6515 56.5417 51.4243 56.75 51.2728 57C51.1288 57.2424 51.0568 57.5151 51.0568 57.8182C51.0568 58.303 51.2273 58.6742 51.5682 58.9318C51.9091 59.1894 52.3447 59.3182 52.875 59.3182Z" fill="white"/>
<path d="M71.2472 63V45.5454H87.5199V63H81.6108V50.2273H77.0654V63H71.2472Z" fill="white"/>
<path d="M95.5796 63.2727C94.4659 63.2727 93.4811 63.0909 92.625 62.7273C91.7765 62.3561 91.1099 61.7954 90.625 61.0454C90.1402 60.2954 89.8978 59.3409 89.8978 58.1818C89.8978 57.2273 90.0606 56.4129 90.3864 55.7386C90.7121 55.0568 91.1667 54.5 91.75 54.0682C92.3334 53.6364 93.0114 53.3068 93.7841 53.0795C94.5644 52.8523 95.4053 52.7045 96.3068 52.6364C97.2841 52.5606 98.0682 52.4697 98.6591 52.3636C99.2576 52.25 99.6894 52.0947 99.9546 51.8977C100.22 51.6932 100.352 51.4242 100.352 51.0909V51.0454C100.352 50.5909 100.178 50.2424 99.8296 50C99.4811 49.7576 99.0341 49.6364 98.4887 49.6364C97.8902 49.6364 97.4015 49.7689 97.0228 50.0341C96.6515 50.2917 96.4281 50.6894 96.3523 51.2273H90.5796C90.6553 50.1667 90.9925 49.1894 91.5909 48.2954C92.197 47.3939 93.0796 46.6742 94.2387 46.1364C95.3978 45.5909 96.8447 45.3182 98.5796 45.3182C99.8296 45.3182 100.951 45.4659 101.943 45.7614C102.936 46.0492 103.78 46.4545 104.477 46.9773C105.174 47.4924 105.705 48.0985 106.068 48.7954C106.439 49.4848 106.625 50.2348 106.625 51.0454V63H100.761V60.5454H100.625C100.277 61.197 99.8523 61.7235 99.3523 62.125C98.8599 62.5265 98.2955 62.8182 97.6591 63C97.0303 63.1818 96.3372 63.2727 95.5796 63.2727ZM97.625 59.3182C98.1023 59.3182 98.5493 59.2197 98.9659 59.0227C99.3902 58.8258 99.7349 58.5417 100 58.1704C100.265 57.7992 100.398 57.3485 100.398 56.8182V55.3636C100.231 55.4318 100.053 55.4962 99.8637 55.5568C99.6819 55.6174 99.4849 55.6742 99.2728 55.7273C99.0682 55.7803 98.8485 55.8295 98.6137 55.875C98.3864 55.9204 98.1478 55.9621 97.8978 56C97.4129 56.0757 97.0152 56.2007 96.7046 56.375C96.4015 56.5417 96.1743 56.75 96.0228 57C95.8788 57.2424 95.8068 57.5151 95.8068 57.8182C95.8068 58.303 95.9773 58.6742 96.3182 58.9318C96.6591 59.1894 97.0947 59.3182 97.625 59.3182Z" fill="white"/>
<path d="M109.622 69.5454V45.5454H115.849V48.5909H115.986C116.213 48 116.546 47.4583 116.986 46.9659C117.425 46.4659 117.971 46.0682 118.622 45.7727C119.274 45.4697 120.031 45.3182 120.895 45.3182C122.046 45.3182 123.141 45.625 124.179 46.2386C125.224 46.8523 126.073 47.8182 126.724 49.1364C127.384 50.4545 127.713 52.1667 127.713 54.2727C127.713 56.2879 127.399 57.9583 126.77 59.2841C126.149 60.6098 125.315 61.5985 124.27 62.25C123.232 62.9015 122.092 63.2273 120.849 63.2273C120.031 63.2273 119.3 63.0947 118.656 62.8295C118.02 62.5568 117.474 62.1894 117.02 61.7273C116.573 61.2576 116.228 60.7273 115.986 60.1364H115.895V69.5454H109.622ZM115.759 54.2727C115.759 55.1212 115.868 55.8561 116.088 56.4773C116.315 57.0909 116.634 57.5682 117.043 57.9091C117.459 58.2424 117.956 58.4091 118.531 58.4091C119.107 58.4091 119.596 58.2462 119.997 57.9204C120.406 57.5871 120.717 57.1136 120.929 56.5C121.149 55.8788 121.259 55.1364 121.259 54.2727C121.259 53.4091 121.149 52.6704 120.929 52.0568C120.717 51.4356 120.406 50.9621 119.997 50.6364C119.596 50.303 119.107 50.1364 118.531 50.1364C117.956 50.1364 117.459 50.303 117.043 50.6364C116.634 50.9621 116.315 51.4356 116.088 52.0568C115.868 52.6704 115.759 53.4091 115.759 54.2727Z" fill="white"/>
<path d="M138.705 63.3182C136.841 63.3182 135.235 62.9621 133.886 62.25C132.545 61.5303 131.511 60.5 130.784 59.1591C130.064 57.8106 129.705 56.197 129.705 54.3182C129.705 52.5151 130.068 50.9394 130.795 49.5909C131.523 48.2424 132.549 47.1932 133.875 46.4432C135.201 45.6932 136.765 45.3182 138.568 45.3182C139.886 45.3182 141.08 45.5227 142.148 45.9318C143.216 46.3409 144.129 46.9356 144.886 47.7159C145.644 48.4886 146.227 49.428 146.636 50.5341C147.045 51.6401 147.25 52.8864 147.25 54.2727V55.7273H131.659V52.2727H141.477C141.47 51.7727 141.341 51.3333 141.091 50.9545C140.849 50.5682 140.519 50.2689 140.102 50.0568C139.693 49.8371 139.227 49.7273 138.705 49.7273C138.197 49.7273 137.731 49.8371 137.307 50.0568C136.883 50.2689 136.542 50.5644 136.284 50.9432C136.034 51.322 135.902 51.7651 135.886 52.2727V56C135.886 56.5606 136.004 57.0606 136.239 57.5C136.474 57.9394 136.811 58.2841 137.25 58.5341C137.689 58.7841 138.22 58.9091 138.841 58.9091C139.273 58.9091 139.667 58.8485 140.023 58.7273C140.386 58.6061 140.697 58.4318 140.955 58.2045C141.212 57.9697 141.402 57.6894 141.523 57.3636H147.25C147.053 58.5757 146.587 59.6288 145.852 60.5227C145.117 61.4091 144.144 62.0985 142.932 62.5909C141.727 63.0758 140.318 63.3182 138.705 63.3182Z" fill="white"/>
</svg>
