<svg width="599" height="128" viewBox="0 0 599 128" fill="none" xmlns="http://www.w3.org/2000/svg">
<mask id="path-1-outside-1_45_25" maskUnits="userSpaceOnUse" x="0.522705" y="0.818176" width="599" height="127" fill="black">
<rect fill="white" x="0.522705" y="0.818176" width="599" height="127"/>
<path d="M1.52271 49V2.45454H12.7727V21.1364H31.1136V2.45454H42.3409V49H31.1136V30.2955H12.7727V49H1.52271ZM93.3295 25.7273C93.3295 30.8485 92.3447 35.1894 90.375 38.75C88.4053 42.3106 85.7386 45.0151 82.375 46.8636C79.0265 48.7121 75.2689 49.6364 71.1022 49.6364C66.9204 49.6364 63.1553 48.7045 59.8068 46.8409C56.4583 44.9773 53.7992 42.2727 51.8295 38.7273C49.875 35.1667 48.8977 30.8333 48.8977 25.7273C48.8977 20.6061 49.875 16.2651 51.8295 12.7045C53.7992 9.14394 56.4583 6.43939 59.8068 4.5909C63.1553 2.74242 66.9204 1.81818 71.1022 1.81818C75.2689 1.81818 79.0265 2.74242 82.375 4.5909C85.7386 6.43939 88.4053 9.14394 90.375 12.7045C92.3447 16.2651 93.3295 20.6061 93.3295 25.7273ZM81.8295 25.7273C81.8295 22.697 81.3977 20.1364 80.5341 18.0455C79.6856 15.9545 78.4583 14.3712 76.8522 13.2954C75.2613 12.2197 73.3447 11.6818 71.1022 11.6818C68.875 11.6818 66.9583 12.2197 65.3523 13.2954C63.7462 14.3712 62.5113 15.9545 61.6477 18.0455C60.7992 20.1364 60.375 22.697 60.375 25.7273C60.375 28.7576 60.7992 31.3182 61.6477 33.4091C62.5113 35.5 63.7462 37.0833 65.3523 38.1591C66.9583 39.2348 68.875 39.7727 71.1022 39.7727C73.3447 39.7727 75.2613 39.2348 76.8522 38.1591C78.4583 37.0833 79.6856 35.5 80.5341 33.4091C81.3977 31.3182 81.8295 28.7576 81.8295 25.7273ZM99.8977 49V2.45454H119.307C122.792 2.45454 125.708 2.94696 128.057 3.93181C130.42 4.91666 132.193 6.29545 133.375 8.06818C134.572 9.8409 135.17 11.8939 135.17 14.2273C135.17 16 134.799 17.5833 134.057 18.9773C133.314 20.3561 132.292 21.5 130.989 22.4091C129.686 23.3182 128.178 23.9545 126.466 24.3182V24.7727C128.345 24.8636 130.08 25.3712 131.67 26.2955C133.277 27.2197 134.564 28.5076 135.534 30.1591C136.504 31.7955 136.989 33.7348 136.989 35.9773C136.989 38.4773 136.352 40.7121 135.08 42.6818C133.807 44.6364 131.966 46.1818 129.557 47.3182C127.148 48.4394 124.223 49 120.784 49H99.8977ZM111.148 39.9318H118.102C120.542 39.9318 122.337 39.4697 123.489 38.5454C124.655 37.6212 125.239 36.3333 125.239 34.6818C125.239 33.4848 124.958 32.4545 124.398 31.5909C123.837 30.7121 123.042 30.0379 122.011 29.5682C120.981 29.0833 119.746 28.8409 118.307 28.8409H111.148V39.9318ZM111.148 21.5909H117.375C118.602 21.5909 119.693 21.3864 120.648 20.9773C121.602 20.5682 122.345 19.9773 122.875 19.2045C123.42 18.4318 123.693 17.5 123.693 16.4091C123.693 14.8485 123.14 13.6212 122.034 12.7273C120.928 11.8333 119.436 11.3864 117.557 11.3864H111.148V21.5909ZM186.33 25.7273C186.33 30.8485 185.345 35.1894 183.375 38.75C181.405 42.3106 178.739 45.0151 175.375 46.8636C172.027 48.7121 168.269 49.6364 164.102 49.6364C159.92 49.6364 156.155 48.7045 152.807 46.8409C149.458 44.9773 146.799 42.2727 144.83 38.7273C142.875 35.1667 141.898 30.8333 141.898 25.7273C141.898 20.6061 142.875 16.2651 144.83 12.7045C146.799 9.14394 149.458 6.43939 152.807 4.5909C156.155 2.74242 159.92 1.81818 164.102 1.81818C168.269 1.81818 172.027 2.74242 175.375 4.5909C178.739 6.43939 181.405 9.14394 183.375 12.7045C185.345 16.2651 186.33 20.6061 186.33 25.7273ZM174.83 25.7273C174.83 22.697 174.398 20.1364 173.534 18.0455C172.686 15.9545 171.458 14.3712 169.852 13.2954C168.261 12.2197 166.345 11.6818 164.102 11.6818C161.875 11.6818 159.958 12.2197 158.352 13.2954C156.746 14.3712 155.511 15.9545 154.648 18.0455C153.799 20.1364 153.375 22.697 153.375 25.7273C153.375 28.7576 153.799 31.3182 154.648 33.4091C155.511 35.5 156.746 37.0833 158.352 38.1591C159.958 39.2348 161.875 39.7727 164.102 39.7727C166.345 39.7727 168.261 39.2348 169.852 38.1591C171.458 37.0833 172.686 35.5 173.534 33.4091C174.398 31.3182 174.83 28.7576 174.83 25.7273ZM192.898 49V2.45454H225.352V11.5909H204.148V21.1364H223.693V30.2955H204.148V39.8636H225.352V49H192.898ZM138.932 79.4545V126H127.841V88.4545H110.568V126H99.4772V79.4545H138.932ZM191.58 102.727C191.58 107.848 190.595 112.189 188.625 115.75C186.655 119.311 183.989 122.015 180.625 123.864C177.277 125.712 173.519 126.636 169.352 126.636C165.17 126.636 161.405 125.705 158.057 123.841C154.708 121.977 152.049 119.273 150.08 115.727C148.125 112.167 147.148 107.833 147.148 102.727C147.148 97.606 148.125 93.2652 150.08 89.7045C152.049 86.1439 154.708 83.4394 158.057 81.5909C161.405 79.7424 165.17 78.8182 169.352 78.8182C173.519 78.8182 177.277 79.7424 180.625 81.5909C183.989 83.4394 186.655 86.1439 188.625 89.7045C190.595 93.2652 191.58 97.606 191.58 102.727ZM180.08 102.727C180.08 99.697 179.648 97.1364 178.784 95.0454C177.936 92.9545 176.708 91.3712 175.102 90.2954C173.511 89.2197 171.595 88.6818 169.352 88.6818C167.125 88.6818 165.208 89.2197 163.602 90.2954C161.996 91.3712 160.761 92.9545 159.898 95.0454C159.049 97.1364 158.625 99.697 158.625 102.727C158.625 105.758 159.049 108.318 159.898 110.409C160.761 112.5 161.996 114.083 163.602 115.159C165.208 116.235 167.125 116.773 169.352 116.773C171.595 116.773 173.511 116.235 175.102 115.159C176.708 114.083 177.936 112.5 178.784 110.409C179.648 108.318 180.08 105.758 180.08 102.727ZM240.398 96.3182H229.034C228.883 95.1515 228.572 94.0985 228.102 93.1591C227.633 92.2197 227.011 91.4167 226.239 90.75C225.466 90.0833 224.549 89.5758 223.489 89.2273C222.443 88.8636 221.284 88.6818 220.011 88.6818C217.754 88.6818 215.807 89.2348 214.17 90.3409C212.549 91.447 211.299 93.0455 210.42 95.1364C209.557 97.2273 209.125 99.7576 209.125 102.727C209.125 105.818 209.564 108.409 210.443 110.5C211.337 112.576 212.587 114.144 214.193 115.205C215.814 116.25 217.731 116.773 219.943 116.773C221.186 116.773 222.314 116.614 223.33 116.295C224.36 115.977 225.261 115.515 226.034 114.909C226.822 114.288 227.466 113.538 227.966 112.659C228.481 111.765 228.837 110.758 229.034 109.636L240.398 109.705C240.201 111.765 239.602 113.795 238.602 115.795C237.617 117.795 236.261 119.621 234.534 121.273C232.807 122.909 230.701 124.212 228.216 125.182C225.746 126.152 222.913 126.636 219.716 126.636C215.504 126.636 211.731 125.712 208.398 123.864C205.08 122 202.458 119.288 200.534 115.727C198.61 112.167 197.648 107.833 197.648 102.727C197.648 97.606 198.625 93.2652 200.58 89.7045C202.534 86.1439 205.178 83.4394 208.511 81.5909C211.845 79.7424 215.58 78.8182 219.716 78.8182C222.534 78.8182 225.14 79.2121 227.534 80C229.928 80.7727 232.034 81.9091 233.852 83.4091C235.67 84.8939 237.148 86.7197 238.284 88.8864C239.42 91.053 240.125 93.5303 240.398 96.3182ZM245.312 88.5909V79.4545H284.653V88.5909H270.54V126H259.449V88.5909H245.312ZM296.034 126.636V117.727H298.42C299.708 117.727 300.739 117.598 301.511 117.341C302.299 117.068 302.913 116.636 303.352 116.045C303.807 115.455 304.186 114.667 304.489 113.682L305.011 112.25L287.83 79.4545H299.375L309.716 100.364L318.034 79.4545H329.398L313.398 116.341C312.564 118.159 311.579 119.856 310.443 121.432C309.307 122.992 307.875 124.25 306.148 125.205C304.436 126.159 302.276 126.636 299.67 126.636H296.034ZM375.307 79.4545V126H364.216V88.4545H346.943V126H335.852V79.4545H375.307ZM382 126V117.182L383.273 117.045C384.909 116.848 386.242 116.189 387.273 115.068C388.303 113.932 389.083 112.129 389.614 109.659C390.159 107.174 390.508 103.818 390.659 99.5909L391.409 79.4545H424.068V126H413.182V88.3182H401.795L401.068 103.727C400.811 109.045 400.136 113.341 399.045 116.614C397.955 119.871 396.265 122.25 393.977 123.75C391.705 125.25 388.651 126 384.818 126H382ZM431.085 126V79.4545H463.54V88.5909H442.335V98.1364H461.881V107.295H442.335V116.864H463.54V126H431.085ZM470.585 126V79.4545H481.835V98.1364H500.176V79.4545H511.403V126H500.176V107.295H481.835V126H470.585ZM518.46 79.4545H529.688V106.273H530.074L548.392 79.4545H558.074V126H546.824V99.1364H546.528L527.983 126H518.46V79.4545ZM565.148 126V79.4545H597.602V88.5909H576.398V98.1364H595.943V107.295H576.398V116.864H597.602V126H565.148Z"/>
</mask>
<path d="M1.52271 49V2.45454H12.7727V21.1364H31.1136V2.45454H42.3409V49H31.1136V30.2955H12.7727V49H1.52271ZM93.3295 25.7273C93.3295 30.8485 92.3447 35.1894 90.375 38.75C88.4053 42.3106 85.7386 45.0151 82.375 46.8636C79.0265 48.7121 75.2689 49.6364 71.1022 49.6364C66.9204 49.6364 63.1553 48.7045 59.8068 46.8409C56.4583 44.9773 53.7992 42.2727 51.8295 38.7273C49.875 35.1667 48.8977 30.8333 48.8977 25.7273C48.8977 20.6061 49.875 16.2651 51.8295 12.7045C53.7992 9.14394 56.4583 6.43939 59.8068 4.5909C63.1553 2.74242 66.9204 1.81818 71.1022 1.81818C75.2689 1.81818 79.0265 2.74242 82.375 4.5909C85.7386 6.43939 88.4053 9.14394 90.375 12.7045C92.3447 16.2651 93.3295 20.6061 93.3295 25.7273ZM81.8295 25.7273C81.8295 22.697 81.3977 20.1364 80.5341 18.0455C79.6856 15.9545 78.4583 14.3712 76.8522 13.2954C75.2613 12.2197 73.3447 11.6818 71.1022 11.6818C68.875 11.6818 66.9583 12.2197 65.3523 13.2954C63.7462 14.3712 62.5113 15.9545 61.6477 18.0455C60.7992 20.1364 60.375 22.697 60.375 25.7273C60.375 28.7576 60.7992 31.3182 61.6477 33.4091C62.5113 35.5 63.7462 37.0833 65.3523 38.1591C66.9583 39.2348 68.875 39.7727 71.1022 39.7727C73.3447 39.7727 75.2613 39.2348 76.8522 38.1591C78.4583 37.0833 79.6856 35.5 80.5341 33.4091C81.3977 31.3182 81.8295 28.7576 81.8295 25.7273ZM99.8977 49V2.45454H119.307C122.792 2.45454 125.708 2.94696 128.057 3.93181C130.42 4.91666 132.193 6.29545 133.375 8.06818C134.572 9.8409 135.17 11.8939 135.17 14.2273C135.17 16 134.799 17.5833 134.057 18.9773C133.314 20.3561 132.292 21.5 130.989 22.4091C129.686 23.3182 128.178 23.9545 126.466 24.3182V24.7727C128.345 24.8636 130.08 25.3712 131.67 26.2955C133.277 27.2197 134.564 28.5076 135.534 30.1591C136.504 31.7955 136.989 33.7348 136.989 35.9773C136.989 38.4773 136.352 40.7121 135.08 42.6818C133.807 44.6364 131.966 46.1818 129.557 47.3182C127.148 48.4394 124.223 49 120.784 49H99.8977ZM111.148 39.9318H118.102C120.542 39.9318 122.337 39.4697 123.489 38.5454C124.655 37.6212 125.239 36.3333 125.239 34.6818C125.239 33.4848 124.958 32.4545 124.398 31.5909C123.837 30.7121 123.042 30.0379 122.011 29.5682C120.981 29.0833 119.746 28.8409 118.307 28.8409H111.148V39.9318ZM111.148 21.5909H117.375C118.602 21.5909 119.693 21.3864 120.648 20.9773C121.602 20.5682 122.345 19.9773 122.875 19.2045C123.42 18.4318 123.693 17.5 123.693 16.4091C123.693 14.8485 123.14 13.6212 122.034 12.7273C120.928 11.8333 119.436 11.3864 117.557 11.3864H111.148V21.5909ZM186.33 25.7273C186.33 30.8485 185.345 35.1894 183.375 38.75C181.405 42.3106 178.739 45.0151 175.375 46.8636C172.027 48.7121 168.269 49.6364 164.102 49.6364C159.92 49.6364 156.155 48.7045 152.807 46.8409C149.458 44.9773 146.799 42.2727 144.83 38.7273C142.875 35.1667 141.898 30.8333 141.898 25.7273C141.898 20.6061 142.875 16.2651 144.83 12.7045C146.799 9.14394 149.458 6.43939 152.807 4.5909C156.155 2.74242 159.92 1.81818 164.102 1.81818C168.269 1.81818 172.027 2.74242 175.375 4.5909C178.739 6.43939 181.405 9.14394 183.375 12.7045C185.345 16.2651 186.33 20.6061 186.33 25.7273ZM174.83 25.7273C174.83 22.697 174.398 20.1364 173.534 18.0455C172.686 15.9545 171.458 14.3712 169.852 13.2954C168.261 12.2197 166.345 11.6818 164.102 11.6818C161.875 11.6818 159.958 12.2197 158.352 13.2954C156.746 14.3712 155.511 15.9545 154.648 18.0455C153.799 20.1364 153.375 22.697 153.375 25.7273C153.375 28.7576 153.799 31.3182 154.648 33.4091C155.511 35.5 156.746 37.0833 158.352 38.1591C159.958 39.2348 161.875 39.7727 164.102 39.7727C166.345 39.7727 168.261 39.2348 169.852 38.1591C171.458 37.0833 172.686 35.5 173.534 33.4091C174.398 31.3182 174.83 28.7576 174.83 25.7273ZM192.898 49V2.45454H225.352V11.5909H204.148V21.1364H223.693V30.2955H204.148V39.8636H225.352V49H192.898ZM138.932 79.4545V126H127.841V88.4545H110.568V126H99.4772V79.4545H138.932ZM191.58 102.727C191.58 107.848 190.595 112.189 188.625 115.75C186.655 119.311 183.989 122.015 180.625 123.864C177.277 125.712 173.519 126.636 169.352 126.636C165.17 126.636 161.405 125.705 158.057 123.841C154.708 121.977 152.049 119.273 150.08 115.727C148.125 112.167 147.148 107.833 147.148 102.727C147.148 97.606 148.125 93.2652 150.08 89.7045C152.049 86.1439 154.708 83.4394 158.057 81.5909C161.405 79.7424 165.17 78.8182 169.352 78.8182C173.519 78.8182 177.277 79.7424 180.625 81.5909C183.989 83.4394 186.655 86.1439 188.625 89.7045C190.595 93.2652 191.58 97.606 191.58 102.727ZM180.08 102.727C180.08 99.697 179.648 97.1364 178.784 95.0454C177.936 92.9545 176.708 91.3712 175.102 90.2954C173.511 89.2197 171.595 88.6818 169.352 88.6818C167.125 88.6818 165.208 89.2197 163.602 90.2954C161.996 91.3712 160.761 92.9545 159.898 95.0454C159.049 97.1364 158.625 99.697 158.625 102.727C158.625 105.758 159.049 108.318 159.898 110.409C160.761 112.5 161.996 114.083 163.602 115.159C165.208 116.235 167.125 116.773 169.352 116.773C171.595 116.773 173.511 116.235 175.102 115.159C176.708 114.083 177.936 112.5 178.784 110.409C179.648 108.318 180.08 105.758 180.08 102.727ZM240.398 96.3182H229.034C228.883 95.1515 228.572 94.0985 228.102 93.1591C227.633 92.2197 227.011 91.4167 226.239 90.75C225.466 90.0833 224.549 89.5758 223.489 89.2273C222.443 88.8636 221.284 88.6818 220.011 88.6818C217.754 88.6818 215.807 89.2348 214.17 90.3409C212.549 91.447 211.299 93.0455 210.42 95.1364C209.557 97.2273 209.125 99.7576 209.125 102.727C209.125 105.818 209.564 108.409 210.443 110.5C211.337 112.576 212.587 114.144 214.193 115.205C215.814 116.25 217.731 116.773 219.943 116.773C221.186 116.773 222.314 116.614 223.33 116.295C224.36 115.977 225.261 115.515 226.034 114.909C226.822 114.288 227.466 113.538 227.966 112.659C228.481 111.765 228.837 110.758 229.034 109.636L240.398 109.705C240.201 111.765 239.602 113.795 238.602 115.795C237.617 117.795 236.261 119.621 234.534 121.273C232.807 122.909 230.701 124.212 228.216 125.182C225.746 126.152 222.913 126.636 219.716 126.636C215.504 126.636 211.731 125.712 208.398 123.864C205.08 122 202.458 119.288 200.534 115.727C198.61 112.167 197.648 107.833 197.648 102.727C197.648 97.606 198.625 93.2652 200.58 89.7045C202.534 86.1439 205.178 83.4394 208.511 81.5909C211.845 79.7424 215.58 78.8182 219.716 78.8182C222.534 78.8182 225.14 79.2121 227.534 80C229.928 80.7727 232.034 81.9091 233.852 83.4091C235.67 84.8939 237.148 86.7197 238.284 88.8864C239.42 91.053 240.125 93.5303 240.398 96.3182ZM245.312 88.5909V79.4545H284.653V88.5909H270.54V126H259.449V88.5909H245.312ZM296.034 126.636V117.727H298.42C299.708 117.727 300.739 117.598 301.511 117.341C302.299 117.068 302.913 116.636 303.352 116.045C303.807 115.455 304.186 114.667 304.489 113.682L305.011 112.25L287.83 79.4545H299.375L309.716 100.364L318.034 79.4545H329.398L313.398 116.341C312.564 118.159 311.579 119.856 310.443 121.432C309.307 122.992 307.875 124.25 306.148 125.205C304.436 126.159 302.276 126.636 299.67 126.636H296.034ZM375.307 79.4545V126H364.216V88.4545H346.943V126H335.852V79.4545H375.307ZM382 126V117.182L383.273 117.045C384.909 116.848 386.242 116.189 387.273 115.068C388.303 113.932 389.083 112.129 389.614 109.659C390.159 107.174 390.508 103.818 390.659 99.5909L391.409 79.4545H424.068V126H413.182V88.3182H401.795L401.068 103.727C400.811 109.045 400.136 113.341 399.045 116.614C397.955 119.871 396.265 122.25 393.977 123.75C391.705 125.25 388.651 126 384.818 126H382ZM431.085 126V79.4545H463.54V88.5909H442.335V98.1364H461.881V107.295H442.335V116.864H463.54V126H431.085ZM470.585 126V79.4545H481.835V98.1364H500.176V79.4545H511.403V126H500.176V107.295H481.835V126H470.585ZM518.46 79.4545H529.688V106.273H530.074L548.392 79.4545H558.074V126H546.824V99.1364H546.528L527.983 126H518.46V79.4545ZM565.148 126V79.4545H597.602V88.5909H576.398V98.1364H595.943V107.295H576.398V116.864H597.602V126H565.148Z" stroke="#BECB6C" stroke-width="2" mask="url(#path-1-outside-1_45_25)"/>
</svg>
