<svg width="391" height="62" viewBox="0 0 391 62" fill="none" xmlns="http://www.w3.org/2000/svg">
<mask id="path-1-outside-1_61_159" maskUnits="userSpaceOnUse" x="0.227295" y="0.840912" width="391" height="61" fill="black">
<rect fill="white" x="0.227295" y="0.840912" width="391" height="61"/>
<path d="M43.1137 19.75H33.1591C32.9773 18.4621 32.6061 17.3182 32.0455 16.3182C31.4849 15.303 30.7652 14.4394 29.8864 13.7273C29.0076 13.0152 27.9924 12.4697 26.8409 12.0909C25.7046 11.7121 24.4697 11.5227 23.1364 11.5227C20.7273 11.5227 18.6288 12.1212 16.8409 13.3182C15.0531 14.5 13.6667 16.2273 12.6818 18.5C11.697 20.7576 11.2046 23.5 11.2046 26.7273C11.2046 30.0455 11.697 32.8333 12.6818 35.0909C13.6818 37.3485 15.0758 39.053 16.8637 40.2045C18.6515 41.3561 20.7197 41.9318 23.0682 41.9318C24.3864 41.9318 25.6061 41.7576 26.7273 41.4091C27.8637 41.0606 28.8712 40.553 29.75 39.8864C30.6288 39.2045 31.3561 38.3788 31.9318 37.4091C32.5228 36.4394 32.9318 35.3333 33.1591 34.0909L43.1137 34.1364C42.8561 36.2727 42.2121 38.3333 41.1818 40.3182C40.1667 42.2879 38.7955 44.053 37.0682 45.6136C35.3561 47.1591 33.3106 48.3864 30.9318 49.2955C28.5682 50.1894 25.894 50.6364 22.9091 50.6364C18.7576 50.6364 15.0455 49.697 11.7727 47.8182C8.51517 45.9394 5.93942 43.2197 4.04548 39.6591C2.16669 36.0985 1.22729 31.7879 1.22729 26.7273C1.22729 21.6515 2.18184 17.3333 4.09093 13.7727C6.00002 10.2121 8.59093 7.5 11.8637 5.63637C15.1364 3.75758 18.8182 2.81818 22.9091 2.81818C25.6061 2.81818 28.1061 3.19697 30.4091 3.95455C32.7273 4.71212 34.7803 5.81818 36.5682 7.27273C38.3561 8.71212 39.8106 10.4773 40.9318 12.5682C42.0682 14.6591 42.7955 17.053 43.1137 19.75ZM49.9887 50V15.0909H59.6705V28.6364H62.3978L71.8978 15.0909H83.2614L70.9205 32.4091L83.3978 50H71.8978L63.2841 37.6136H59.6705V50H49.9887ZM96.7387 37.2273L109.307 15.0909H118.852V50H109.625V27.7955L97.1023 50H87.4887V15.0909H96.7387V37.2273ZM123.886 60.2273V42.3182H126.568C127.341 41.8333 127.962 41.0606 128.432 40C128.917 38.9394 129.311 37.6894 129.614 36.25C129.932 34.8106 130.174 33.2576 130.341 31.5909C130.523 29.9091 130.682 28.2121 130.818 26.5L131.727 15.0909H158.5V42.3182H163.909V60.2273H154.682V50H133.341V60.2273H123.886ZM136.205 42.3182H149.364V22.5455H139.955L139.591 26.5C139.333 30.2273 138.962 33.3939 138.477 36C137.992 38.5909 137.235 40.697 136.205 42.3182ZM169.551 50V15.0909H179.233V28.6364H181.96L191.46 15.0909H202.824L190.483 32.4091L202.96 50H191.46L182.847 37.6136H179.233V50H169.551ZM217.006 50.6591C214.778 50.6591 212.794 50.2727 211.051 49.5C209.309 48.7121 207.93 47.553 206.915 46.0227C205.915 44.4773 205.415 42.553 205.415 40.25C205.415 38.3106 205.771 36.6818 206.483 35.3636C207.195 34.0455 208.165 32.9849 209.392 32.1818C210.619 31.3788 212.013 30.7727 213.574 30.3636C215.15 29.9545 216.801 29.6667 218.528 29.5C220.559 29.2879 222.195 29.0909 223.438 28.9091C224.68 28.7121 225.581 28.4242 226.142 28.0455C226.703 27.6667 226.983 27.1061 226.983 26.3636V26.2273C226.983 24.7879 226.528 23.6742 225.619 22.8864C224.725 22.0985 223.453 21.7045 221.801 21.7045C220.059 21.7045 218.672 22.0909 217.642 22.8636C216.612 23.6212 215.93 24.5758 215.597 25.7273L206.642 25C207.097 22.8788 207.991 21.0455 209.324 19.5C210.657 17.9394 212.377 16.7424 214.483 15.9091C216.604 15.0606 219.059 14.6364 221.847 14.6364C223.786 14.6364 225.642 14.8636 227.415 15.3182C229.203 15.7727 230.786 16.4773 232.165 17.4318C233.559 18.3864 234.657 19.6136 235.46 21.1136C236.263 22.5985 236.665 24.3788 236.665 26.4545V50H227.483V45.1591H227.21C226.65 46.25 225.9 47.2121 224.96 48.0455C224.021 48.8636 222.892 49.5076 221.574 49.9773C220.256 50.4318 218.733 50.6591 217.006 50.6591ZM219.778 43.9773C221.203 43.9773 222.46 43.697 223.551 43.1364C224.642 42.5606 225.498 41.7879 226.119 40.8182C226.741 39.8485 227.051 38.75 227.051 37.5227V33.8182C226.748 34.0152 226.331 34.197 225.801 34.3636C225.286 34.5152 224.703 34.6591 224.051 34.7955C223.4 34.9167 222.748 35.0303 222.097 35.1364C221.445 35.2273 220.854 35.3106 220.324 35.3864C219.188 35.553 218.195 35.8182 217.347 36.1818C216.498 36.5455 215.839 37.0379 215.369 37.6591C214.9 38.2652 214.665 39.0227 214.665 39.9318C214.665 41.25 215.142 42.2576 216.097 42.9545C217.066 43.6364 218.294 43.9773 219.778 43.9773ZM258.898 50V42.9091L275.466 27.5682C276.875 26.2045 278.057 24.9773 279.011 23.8864C279.981 22.7955 280.716 21.7273 281.216 20.6818C281.716 19.6212 281.966 18.4773 281.966 17.25C281.966 15.8864 281.655 14.7121 281.034 13.7273C280.413 12.7273 279.564 11.9621 278.489 11.4318C277.413 10.8864 276.193 10.6136 274.83 10.6136C273.405 10.6136 272.163 10.9015 271.102 11.4773C270.042 12.053 269.223 12.8788 268.648 13.9545C268.072 15.0303 267.784 16.3106 267.784 17.7955H258.443C258.443 14.75 259.133 12.1061 260.511 9.86364C261.89 7.62122 263.822 5.88637 266.307 4.65909C268.792 3.43182 271.655 2.81818 274.898 2.81818C278.231 2.81818 281.133 3.40909 283.602 4.59091C286.087 5.75758 288.019 7.37879 289.398 9.45455C290.777 11.5303 291.466 13.9091 291.466 16.5909C291.466 18.3485 291.117 20.0833 290.42 21.7955C289.739 23.5076 288.519 25.4091 286.761 27.5C285.004 29.5758 282.527 32.0682 279.33 34.9773L272.534 41.6364V41.9545H292.08V50H258.898ZM317.46 51.0227C313.551 51.0076 310.188 50.0455 307.369 48.1364C304.566 46.2273 302.407 43.4621 300.892 39.8409C299.392 36.2197 298.65 31.8636 298.665 26.7727C298.665 21.697 299.415 17.3712 300.915 13.7955C302.43 10.2197 304.589 7.5 307.392 5.63637C310.21 3.75758 313.566 2.81818 317.46 2.81818C321.354 2.81818 324.703 3.75758 327.506 5.63637C330.324 7.51515 332.491 10.2424 334.006 13.8182C335.521 17.3788 336.271 21.697 336.256 26.7727C336.256 31.8788 335.498 36.2424 333.983 39.8636C332.483 43.4849 330.331 46.25 327.528 48.1591C324.725 50.0682 321.369 51.0227 317.46 51.0227ZM317.46 42.8636C320.127 42.8636 322.256 41.5227 323.847 38.8409C325.438 36.1591 326.225 32.1364 326.21 26.7727C326.21 23.2424 325.847 20.303 325.119 17.9545C324.407 15.6061 323.392 13.8409 322.074 12.6591C320.771 11.4773 319.233 10.8864 317.46 10.8864C314.809 10.8864 312.688 12.2121 311.097 14.8636C309.506 17.5152 308.703 21.4849 308.688 26.7727C308.688 30.3485 309.044 33.3333 309.756 35.7273C310.483 38.1061 311.506 39.8939 312.824 41.0909C314.142 42.2727 315.688 42.8636 317.46 42.8636ZM368.75 41.2727V38.8182C368.75 36.9545 369.144 35.2424 369.932 33.6818C370.735 32.1061 371.894 30.8485 373.409 29.9091C374.939 28.9545 376.803 28.4773 379 28.4773C381.227 28.4773 383.098 28.947 384.614 29.8864C386.144 30.8258 387.295 32.0833 388.068 33.6591C388.856 35.2197 389.25 36.9394 389.25 38.8182V41.2727C389.25 43.1364 388.856 44.8561 388.068 46.4318C387.28 47.9924 386.121 49.2424 384.591 50.1818C383.061 51.1364 381.197 51.6136 379 51.6136C376.773 51.6136 374.902 51.1364 373.386 50.1818C371.871 49.2424 370.72 47.9924 369.932 46.4318C369.144 44.8561 368.75 43.1364 368.75 41.2727ZM375.364 38.8182V41.2727C375.364 42.3485 375.621 43.3636 376.136 44.3182C376.667 45.2727 377.621 45.75 379 45.75C380.379 45.75 381.318 45.2803 381.818 44.3409C382.333 43.4015 382.591 42.3788 382.591 41.2727V38.8182C382.591 37.7121 382.348 36.6818 381.864 35.7273C381.379 34.7727 380.424 34.2955 379 34.2955C377.636 34.2955 376.689 34.7727 376.159 35.7273C375.629 36.6818 375.364 37.7121 375.364 38.8182ZM344.864 14.6364V12.1818C344.864 10.303 345.265 8.58334 346.068 7.02273C346.871 5.44697 348.03 4.1894 349.545 3.25C351.076 2.31061 352.924 1.84091 355.091 1.84091C357.333 1.84091 359.212 2.31061 360.727 3.25C362.242 4.1894 363.394 5.44697 364.182 7.02273C364.97 8.58334 365.364 10.303 365.364 12.1818V14.6364C365.364 16.5152 364.962 18.2349 364.159 19.7955C363.371 21.3561 362.212 22.6061 360.682 23.5455C359.167 24.4697 357.303 24.9318 355.091 24.9318C352.879 24.9318 351.008 24.4621 349.477 23.5227C347.962 22.5682 346.811 21.3182 346.023 19.7727C345.25 18.2121 344.864 16.5 344.864 14.6364ZM351.523 12.1818V14.6364C351.523 15.7424 351.78 16.7652 352.295 17.7045C352.826 18.6439 353.758 19.1136 355.091 19.1136C356.485 19.1136 357.432 18.6439 357.932 17.7045C358.447 16.7652 358.705 15.7424 358.705 14.6364V12.1818C358.705 11.0758 358.462 10.0455 357.977 9.09091C357.492 8.13637 356.53 7.65909 355.091 7.65909C353.742 7.65909 352.811 8.14394 352.295 9.11364C351.78 10.0833 351.523 11.1061 351.523 12.1818ZM347.864 50L379.864 3.45455H385.818L353.818 50H347.864Z"/>
</mask>
<path d="M43.1137 19.75H33.1591C32.9773 18.4621 32.6061 17.3182 32.0455 16.3182C31.4849 15.303 30.7652 14.4394 29.8864 13.7273C29.0076 13.0152 27.9924 12.4697 26.8409 12.0909C25.7046 11.7121 24.4697 11.5227 23.1364 11.5227C20.7273 11.5227 18.6288 12.1212 16.8409 13.3182C15.0531 14.5 13.6667 16.2273 12.6818 18.5C11.697 20.7576 11.2046 23.5 11.2046 26.7273C11.2046 30.0455 11.697 32.8333 12.6818 35.0909C13.6818 37.3485 15.0758 39.053 16.8637 40.2045C18.6515 41.3561 20.7197 41.9318 23.0682 41.9318C24.3864 41.9318 25.6061 41.7576 26.7273 41.4091C27.8637 41.0606 28.8712 40.553 29.75 39.8864C30.6288 39.2045 31.3561 38.3788 31.9318 37.4091C32.5228 36.4394 32.9318 35.3333 33.1591 34.0909L43.1137 34.1364C42.8561 36.2727 42.2121 38.3333 41.1818 40.3182C40.1667 42.2879 38.7955 44.053 37.0682 45.6136C35.3561 47.1591 33.3106 48.3864 30.9318 49.2955C28.5682 50.1894 25.894 50.6364 22.9091 50.6364C18.7576 50.6364 15.0455 49.697 11.7727 47.8182C8.51517 45.9394 5.93942 43.2197 4.04548 39.6591C2.16669 36.0985 1.22729 31.7879 1.22729 26.7273C1.22729 21.6515 2.18184 17.3333 4.09093 13.7727C6.00002 10.2121 8.59093 7.5 11.8637 5.63637C15.1364 3.75758 18.8182 2.81818 22.9091 2.81818C25.6061 2.81818 28.1061 3.19697 30.4091 3.95455C32.7273 4.71212 34.7803 5.81818 36.5682 7.27273C38.3561 8.71212 39.8106 10.4773 40.9318 12.5682C42.0682 14.6591 42.7955 17.053 43.1137 19.75ZM49.9887 50V15.0909H59.6705V28.6364H62.3978L71.8978 15.0909H83.2614L70.9205 32.4091L83.3978 50H71.8978L63.2841 37.6136H59.6705V50H49.9887ZM96.7387 37.2273L109.307 15.0909H118.852V50H109.625V27.7955L97.1023 50H87.4887V15.0909H96.7387V37.2273ZM123.886 60.2273V42.3182H126.568C127.341 41.8333 127.962 41.0606 128.432 40C128.917 38.9394 129.311 37.6894 129.614 36.25C129.932 34.8106 130.174 33.2576 130.341 31.5909C130.523 29.9091 130.682 28.2121 130.818 26.5L131.727 15.0909H158.5V42.3182H163.909V60.2273H154.682V50H133.341V60.2273H123.886ZM136.205 42.3182H149.364V22.5455H139.955L139.591 26.5C139.333 30.2273 138.962 33.3939 138.477 36C137.992 38.5909 137.235 40.697 136.205 42.3182ZM169.551 50V15.0909H179.233V28.6364H181.96L191.46 15.0909H202.824L190.483 32.4091L202.96 50H191.46L182.847 37.6136H179.233V50H169.551ZM217.006 50.6591C214.778 50.6591 212.794 50.2727 211.051 49.5C209.309 48.7121 207.93 47.553 206.915 46.0227C205.915 44.4773 205.415 42.553 205.415 40.25C205.415 38.3106 205.771 36.6818 206.483 35.3636C207.195 34.0455 208.165 32.9849 209.392 32.1818C210.619 31.3788 212.013 30.7727 213.574 30.3636C215.15 29.9545 216.801 29.6667 218.528 29.5C220.559 29.2879 222.195 29.0909 223.438 28.9091C224.68 28.7121 225.581 28.4242 226.142 28.0455C226.703 27.6667 226.983 27.1061 226.983 26.3636V26.2273C226.983 24.7879 226.528 23.6742 225.619 22.8864C224.725 22.0985 223.453 21.7045 221.801 21.7045C220.059 21.7045 218.672 22.0909 217.642 22.8636C216.612 23.6212 215.93 24.5758 215.597 25.7273L206.642 25C207.097 22.8788 207.991 21.0455 209.324 19.5C210.657 17.9394 212.377 16.7424 214.483 15.9091C216.604 15.0606 219.059 14.6364 221.847 14.6364C223.786 14.6364 225.642 14.8636 227.415 15.3182C229.203 15.7727 230.786 16.4773 232.165 17.4318C233.559 18.3864 234.657 19.6136 235.46 21.1136C236.263 22.5985 236.665 24.3788 236.665 26.4545V50H227.483V45.1591H227.21C226.65 46.25 225.9 47.2121 224.96 48.0455C224.021 48.8636 222.892 49.5076 221.574 49.9773C220.256 50.4318 218.733 50.6591 217.006 50.6591ZM219.778 43.9773C221.203 43.9773 222.46 43.697 223.551 43.1364C224.642 42.5606 225.498 41.7879 226.119 40.8182C226.741 39.8485 227.051 38.75 227.051 37.5227V33.8182C226.748 34.0152 226.331 34.197 225.801 34.3636C225.286 34.5152 224.703 34.6591 224.051 34.7955C223.4 34.9167 222.748 35.0303 222.097 35.1364C221.445 35.2273 220.854 35.3106 220.324 35.3864C219.188 35.553 218.195 35.8182 217.347 36.1818C216.498 36.5455 215.839 37.0379 215.369 37.6591C214.9 38.2652 214.665 39.0227 214.665 39.9318C214.665 41.25 215.142 42.2576 216.097 42.9545C217.066 43.6364 218.294 43.9773 219.778 43.9773ZM258.898 50V42.9091L275.466 27.5682C276.875 26.2045 278.057 24.9773 279.011 23.8864C279.981 22.7955 280.716 21.7273 281.216 20.6818C281.716 19.6212 281.966 18.4773 281.966 17.25C281.966 15.8864 281.655 14.7121 281.034 13.7273C280.413 12.7273 279.564 11.9621 278.489 11.4318C277.413 10.8864 276.193 10.6136 274.83 10.6136C273.405 10.6136 272.163 10.9015 271.102 11.4773C270.042 12.053 269.223 12.8788 268.648 13.9545C268.072 15.0303 267.784 16.3106 267.784 17.7955H258.443C258.443 14.75 259.133 12.1061 260.511 9.86364C261.89 7.62122 263.822 5.88637 266.307 4.65909C268.792 3.43182 271.655 2.81818 274.898 2.81818C278.231 2.81818 281.133 3.40909 283.602 4.59091C286.087 5.75758 288.019 7.37879 289.398 9.45455C290.777 11.5303 291.466 13.9091 291.466 16.5909C291.466 18.3485 291.117 20.0833 290.42 21.7955C289.739 23.5076 288.519 25.4091 286.761 27.5C285.004 29.5758 282.527 32.0682 279.33 34.9773L272.534 41.6364V41.9545H292.08V50H258.898ZM317.46 51.0227C313.551 51.0076 310.188 50.0455 307.369 48.1364C304.566 46.2273 302.407 43.4621 300.892 39.8409C299.392 36.2197 298.65 31.8636 298.665 26.7727C298.665 21.697 299.415 17.3712 300.915 13.7955C302.43 10.2197 304.589 7.5 307.392 5.63637C310.21 3.75758 313.566 2.81818 317.46 2.81818C321.354 2.81818 324.703 3.75758 327.506 5.63637C330.324 7.51515 332.491 10.2424 334.006 13.8182C335.521 17.3788 336.271 21.697 336.256 26.7727C336.256 31.8788 335.498 36.2424 333.983 39.8636C332.483 43.4849 330.331 46.25 327.528 48.1591C324.725 50.0682 321.369 51.0227 317.46 51.0227ZM317.46 42.8636C320.127 42.8636 322.256 41.5227 323.847 38.8409C325.438 36.1591 326.225 32.1364 326.21 26.7727C326.21 23.2424 325.847 20.303 325.119 17.9545C324.407 15.6061 323.392 13.8409 322.074 12.6591C320.771 11.4773 319.233 10.8864 317.46 10.8864C314.809 10.8864 312.688 12.2121 311.097 14.8636C309.506 17.5152 308.703 21.4849 308.688 26.7727C308.688 30.3485 309.044 33.3333 309.756 35.7273C310.483 38.1061 311.506 39.8939 312.824 41.0909C314.142 42.2727 315.688 42.8636 317.46 42.8636ZM368.75 41.2727V38.8182C368.75 36.9545 369.144 35.2424 369.932 33.6818C370.735 32.1061 371.894 30.8485 373.409 29.9091C374.939 28.9545 376.803 28.4773 379 28.4773C381.227 28.4773 383.098 28.947 384.614 29.8864C386.144 30.8258 387.295 32.0833 388.068 33.6591C388.856 35.2197 389.25 36.9394 389.25 38.8182V41.2727C389.25 43.1364 388.856 44.8561 388.068 46.4318C387.28 47.9924 386.121 49.2424 384.591 50.1818C383.061 51.1364 381.197 51.6136 379 51.6136C376.773 51.6136 374.902 51.1364 373.386 50.1818C371.871 49.2424 370.72 47.9924 369.932 46.4318C369.144 44.8561 368.75 43.1364 368.75 41.2727ZM375.364 38.8182V41.2727C375.364 42.3485 375.621 43.3636 376.136 44.3182C376.667 45.2727 377.621 45.75 379 45.75C380.379 45.75 381.318 45.2803 381.818 44.3409C382.333 43.4015 382.591 42.3788 382.591 41.2727V38.8182C382.591 37.7121 382.348 36.6818 381.864 35.7273C381.379 34.7727 380.424 34.2955 379 34.2955C377.636 34.2955 376.689 34.7727 376.159 35.7273C375.629 36.6818 375.364 37.7121 375.364 38.8182ZM344.864 14.6364V12.1818C344.864 10.303 345.265 8.58334 346.068 7.02273C346.871 5.44697 348.03 4.1894 349.545 3.25C351.076 2.31061 352.924 1.84091 355.091 1.84091C357.333 1.84091 359.212 2.31061 360.727 3.25C362.242 4.1894 363.394 5.44697 364.182 7.02273C364.97 8.58334 365.364 10.303 365.364 12.1818V14.6364C365.364 16.5152 364.962 18.2349 364.159 19.7955C363.371 21.3561 362.212 22.6061 360.682 23.5455C359.167 24.4697 357.303 24.9318 355.091 24.9318C352.879 24.9318 351.008 24.4621 349.477 23.5227C347.962 22.5682 346.811 21.3182 346.023 19.7727C345.25 18.2121 344.864 16.5 344.864 14.6364ZM351.523 12.1818V14.6364C351.523 15.7424 351.78 16.7652 352.295 17.7045C352.826 18.6439 353.758 19.1136 355.091 19.1136C356.485 19.1136 357.432 18.6439 357.932 17.7045C358.447 16.7652 358.705 15.7424 358.705 14.6364V12.1818C358.705 11.0758 358.462 10.0455 357.977 9.09091C357.492 8.13637 356.53 7.65909 355.091 7.65909C353.742 7.65909 352.811 8.14394 352.295 9.11364C351.78 10.0833 351.523 11.1061 351.523 12.1818ZM347.864 50L379.864 3.45455H385.818L353.818 50H347.864Z" stroke="white" stroke-width="2" mask="url(#path-1-outside-1_61_159)"/>
</svg>
