<svg width="621" height="59" viewBox="0 0 621 59" fill="none" xmlns="http://www.w3.org/2000/svg">
<path d="M25.159 26.6818V34.2954H6.93171V26.6818H25.159ZM10.1135 13.0909V48H0.863525V13.0909H10.1135ZM31.2272 13.0909V48H22.0453V13.0909H31.2272Z" fill="white"/>
<path d="M48.6931 48.6591C46.4658 48.6591 44.4809 48.2727 42.7385 47.5C40.9961 46.7121 39.6173 45.553 38.6022 44.0227C37.6022 42.4773 37.1022 40.553 37.1022 38.25C37.1022 36.3106 37.4582 34.6818 38.1703 33.3636C38.8825 32.0455 39.8522 30.9848 41.0794 30.1818C42.3067 29.3788 43.7006 28.7727 45.2613 28.3636C46.837 27.9545 48.4885 27.6667 50.2158 27.5C52.2461 27.2879 53.8825 27.0909 55.1249 26.9091C56.3673 26.7121 57.2688 26.4242 57.8294 26.0455C58.39 25.6667 58.6703 25.1061 58.6703 24.3636V24.2273C58.6703 22.7879 58.2158 21.6742 57.3067 20.8864C56.4128 20.0985 55.14 19.7045 53.4885 19.7045C51.7461 19.7045 50.3597 20.0909 49.3294 20.8636C48.2991 21.6212 47.6173 22.5758 47.284 23.7273L38.3294 23C38.784 20.8788 39.6779 19.0454 41.0113 17.5C42.3446 15.9394 44.0643 14.7424 46.1703 13.9091C48.2916 13.0606 50.7461 12.6364 53.534 12.6364C55.4734 12.6364 57.3294 12.8636 59.1022 13.3182C60.89 13.7727 62.4734 14.4773 63.8522 15.4318C65.2461 16.3864 66.3446 17.6136 67.1476 19.1136C67.9506 20.5985 68.3522 22.3788 68.3522 24.4545V48H59.1703V43.1591H58.8976C58.337 44.25 57.587 45.2121 56.6476 46.0455C55.7082 46.8636 54.5794 47.5076 53.2613 47.9773C51.9431 48.4318 50.4203 48.6591 48.6931 48.6591ZM51.4658 41.9773C52.89 41.9773 54.1476 41.697 55.2385 41.1364C56.3294 40.5606 57.1855 39.7879 57.8067 38.8182C58.4279 37.8485 58.7385 36.75 58.7385 35.5227V31.8182C58.4355 32.0151 58.0188 32.197 57.4885 32.3636C56.9734 32.5151 56.39 32.6591 55.7385 32.7955C55.087 32.9167 54.4355 33.0303 53.784 33.1364C53.1325 33.2273 52.5416 33.3106 52.0113 33.3864C50.8749 33.553 49.8825 33.8182 49.034 34.1818C48.1855 34.5455 47.5264 35.0379 47.0567 35.6591C46.587 36.2651 46.3522 37.0227 46.3522 37.9318C46.3522 39.25 46.8294 40.2576 47.784 40.9545C48.7537 41.6364 49.9809 41.9773 51.4658 41.9773Z" fill="white"/>
<path d="M88.4033 48L100.608 29.8409L88.4715 13.0909H99.5169L108.585 26.75H110.085V13.0909H119.767V26.75H121.221L130.29 13.0909H141.335L129.221 29.8409L141.403 48H130.108L121.131 34.3636H119.767V48H110.085V34.3636H108.721L99.6988 48H88.4033Z" fill="white"/>
<path d="M156.114 35.2273L168.682 13.0909H178.227V48H169V25.7955L156.477 48H146.864V13.0909H156.114V35.2273Z" fill="white"/>
<path d="M183.261 58.2273V40.3182H185.943C186.716 39.8333 187.337 39.0606 187.807 38C188.292 36.9394 188.685 35.6894 188.989 34.25C189.307 32.8106 189.549 31.2576 189.716 29.5909C189.898 27.9091 190.057 26.2121 190.193 24.5L191.102 13.0909H217.875V40.3182H223.284V58.2273H214.057V48H192.716V58.2273H183.261ZM195.579 40.3182H208.739V20.5455H199.329L198.966 24.5C198.708 28.2273 198.337 31.3939 197.852 34C197.367 36.5909 196.61 38.697 195.579 40.3182Z" fill="white"/>
<path d="M228.926 48V13.0909H238.608V26.6364H241.335L250.835 13.0909H262.199L249.858 30.4091L262.335 48H250.835L242.221 35.6136H238.608V48H228.926Z" fill="white"/>
<path d="M280.761 48.6818C277.231 48.6818 274.178 47.9318 271.602 46.4318C269.042 44.9167 267.064 42.8106 265.67 40.1136C264.276 37.4015 263.579 34.2576 263.579 30.6818C263.579 27.0758 264.276 23.9242 265.67 21.2273C267.064 18.5151 269.042 16.4091 271.602 14.9091C274.178 13.3939 277.231 12.6364 280.761 12.6364C284.292 12.6364 287.337 13.3939 289.898 14.9091C292.473 16.4091 294.458 18.5151 295.852 21.2273C297.246 23.9242 297.943 27.0758 297.943 30.6818C297.943 34.2576 297.246 37.4015 295.852 40.1136C294.458 42.8106 292.473 44.9167 289.898 46.4318C287.337 47.9318 284.292 48.6818 280.761 48.6818ZM280.807 41.1818C282.413 41.1818 283.754 40.7273 284.829 39.8182C285.905 38.8939 286.716 37.6364 287.261 36.0454C287.822 34.4545 288.102 32.6439 288.102 30.6136C288.102 28.5833 287.822 26.7727 287.261 25.1818C286.716 23.5909 285.905 22.3333 284.829 21.4091C283.754 20.4848 282.413 20.0227 280.807 20.0227C279.185 20.0227 277.822 20.4848 276.716 21.4091C275.625 22.3333 274.799 23.5909 274.239 25.1818C273.693 26.7727 273.42 28.5833 273.42 30.6136C273.42 32.6439 273.693 34.4545 274.239 36.0454C274.799 37.6364 275.625 38.8939 276.716 39.8182C277.822 40.7273 279.185 41.1818 280.807 41.1818Z" fill="white"/>
<path d="M320.011 48.6818C316.436 48.6818 313.36 47.9242 310.784 46.4091C308.223 44.8788 306.254 42.7576 304.875 40.0455C303.511 37.3333 302.829 34.2121 302.829 30.6818C302.829 27.1061 303.519 23.9697 304.898 21.2727C306.292 18.5606 308.269 16.447 310.829 14.9318C313.39 13.4015 316.435 12.6364 319.966 12.6364C323.011 12.6364 325.678 13.1894 327.966 14.2954C330.254 15.4015 332.064 16.9545 333.398 18.9545C334.731 20.9545 335.466 23.303 335.602 26H326.466C326.208 24.2576 325.526 22.8561 324.42 21.7955C323.329 20.7197 321.898 20.1818 320.125 20.1818C318.625 20.1818 317.314 20.5909 316.193 21.4091C315.087 22.2121 314.223 23.3864 313.602 24.9318C312.981 26.4773 312.67 28.3485 312.67 30.5455C312.67 32.7727 312.973 34.6667 313.579 36.2273C314.201 37.7879 315.072 38.9773 316.193 39.7954C317.314 40.6136 318.625 41.0227 320.125 41.0227C321.231 41.0227 322.223 40.7954 323.102 40.3409C323.996 39.8864 324.731 39.2273 325.307 38.3636C325.898 37.4848 326.284 36.4318 326.466 35.2045H335.602C335.451 37.8712 334.723 40.2197 333.42 42.25C332.132 44.2651 330.352 45.8409 328.079 46.9773C325.807 48.1136 323.117 48.6818 320.011 48.6818Z" fill="white"/>
<path d="M339.42 20.7045V13.0909H371.057V20.7045H359.807V48H350.579V20.7045H339.42Z" fill="white"/>
<path d="M382.994 23.8182H393.426C398.047 23.8182 401.653 24.9242 404.244 27.1364C406.835 29.3333 408.131 32.2727 408.131 35.9545C408.131 38.3485 407.547 40.4545 406.381 42.2727C405.214 44.0758 403.532 45.4848 401.335 46.5C399.138 47.5 396.502 48 393.426 48H376.926V13.0909H386.176V40.3864H393.426C395.047 40.3864 396.381 39.9773 397.426 39.1591C398.471 38.3409 399.002 37.2955 399.017 36.0227C399.002 34.6742 398.471 33.5758 397.426 32.7273C396.381 31.8636 395.047 31.4318 393.426 31.4318H382.994V23.8182Z" fill="white"/>
<path d="M429.545 1.45454H441.682L454.5 32.7273H455.045L467.864 1.45454H480V48H470.454V17.7045H470.068L458.023 47.7727H451.523L439.477 17.5909H439.091V48H429.545V1.45454Z" fill="white"/>
<path d="M530.881 24.7273C530.881 29.803 529.918 34.1212 527.994 37.6818C526.085 41.2424 523.479 43.9621 520.176 45.8409C516.888 47.7045 513.191 48.6364 509.085 48.6364C504.949 48.6364 501.237 47.697 497.949 45.8182C494.661 43.9394 492.062 41.2197 490.153 37.6591C488.244 34.0985 487.29 29.7879 487.29 24.7273C487.29 19.6515 488.244 15.3333 490.153 11.7727C492.062 8.21212 494.661 5.49999 497.949 3.63636C501.237 1.75757 504.949 0.818176 509.085 0.818176C513.191 0.818176 516.888 1.75757 520.176 3.63636C523.479 5.49999 526.085 8.21212 527.994 11.7727C529.918 15.3333 530.881 19.6515 530.881 24.7273ZM520.903 24.7273C520.903 21.4394 520.411 18.6667 519.426 16.4091C518.456 14.1515 517.085 12.4394 515.312 11.2727C513.54 10.1061 511.464 9.52272 509.085 9.52272C506.706 9.52272 504.631 10.1061 502.858 11.2727C501.085 12.4394 499.706 14.1515 498.721 16.4091C497.752 18.6667 497.267 21.4394 497.267 24.7273C497.267 28.0151 497.752 30.7879 498.721 33.0454C499.706 35.303 501.085 37.0151 502.858 38.1818C504.631 39.3485 506.706 39.9318 509.085 39.9318C511.464 39.9318 513.54 39.3485 515.312 38.1818C517.085 37.0151 518.456 35.303 519.426 33.0454C520.411 30.7879 520.903 28.0151 520.903 24.7273Z" fill="white"/>
<path d="M538.17 48V1.45454H556.534C560.064 1.45454 563.072 2.12878 565.557 3.47727C568.042 4.8106 569.935 6.66666 571.239 9.04545C572.557 11.4091 573.216 14.1364 573.216 17.2273C573.216 20.3182 572.549 23.0455 571.216 25.4091C569.882 27.7727 567.951 29.6136 565.42 30.9318C562.905 32.25 559.86 32.9091 556.284 32.9091H544.579V25.0227H554.693C556.587 25.0227 558.148 24.697 559.375 24.0455C560.617 23.3788 561.542 22.4621 562.148 21.2955C562.769 20.1136 563.079 18.7576 563.079 17.2273C563.079 15.6818 562.769 14.3333 562.148 13.1818C561.542 12.0151 560.617 11.1136 559.375 10.4773C558.132 9.82575 556.557 9.5 554.648 9.5H548.011V48H538.17Z" fill="white"/>
<path d="M620.676 17.75H610.721C610.54 16.4621 610.168 15.3182 609.608 14.3182C609.047 13.303 608.328 12.4394 607.449 11.7273C606.57 11.0151 605.555 10.4697 604.403 10.0909C603.267 9.71212 602.032 9.52272 600.699 9.52272C598.29 9.52272 596.191 10.1212 594.403 11.3182C592.615 12.5 591.229 14.2273 590.244 16.5C589.259 18.7576 588.767 21.5 588.767 24.7273C588.767 28.0454 589.259 30.8333 590.244 33.0909C591.244 35.3485 592.638 37.053 594.426 38.2045C596.214 39.3561 598.282 39.9318 600.631 39.9318C601.949 39.9318 603.168 39.7576 604.29 39.4091C605.426 39.0606 606.434 38.553 607.312 37.8864C608.191 37.2045 608.918 36.3788 609.494 35.4091C610.085 34.4394 610.494 33.3333 610.721 32.0909L620.676 32.1364C620.418 34.2727 619.775 36.3333 618.744 38.3182C617.729 40.2879 616.358 42.053 614.631 43.6136C612.918 45.1591 610.873 46.3864 608.494 47.2955C606.131 48.1894 603.456 48.6364 600.471 48.6364C596.32 48.6364 592.608 47.697 589.335 45.8182C586.078 43.9394 583.502 41.2197 581.608 37.6591C579.729 34.0985 578.79 29.7879 578.79 24.7273C578.79 19.6515 579.744 15.3333 581.653 11.7727C583.562 8.21212 586.153 5.49999 589.426 3.63636C592.699 1.75757 596.381 0.818176 600.471 0.818176C603.168 0.818176 605.668 1.19696 607.971 1.95454C610.29 2.71212 612.343 3.81818 614.131 5.27272C615.918 6.71211 617.373 8.47727 618.494 10.5682C619.631 12.6591 620.358 15.053 620.676 17.75Z" fill="white"/>
</svg>
