<svg width="534" height="163" viewBox="0 0 534 163" fill="none" xmlns="http://www.w3.org/2000/svg">
<mask id="path-1-outside-1_59_25" maskUnits="userSpaceOnUse" x="-0.181885" y="0.681824" width="534" height="162" fill="black">
<rect fill="white" x="-0.181885" y="0.681824" width="534" height="162"/>
<path d="M4.03402 37V2.09092H17.8068C20.4545 2.09092 22.7102 2.5966 24.5738 3.60796C26.4374 4.60796 27.8579 6.00001 28.8352 7.7841C29.8238 9.55682 30.3181 11.6023 30.3181 13.9205C30.3181 16.2386 29.8181 18.2841 28.8181 20.0568C27.8181 21.8296 26.3693 23.2102 24.4715 24.1989C22.5852 25.1875 20.3011 25.6818 17.6193 25.6818H8.84084V19.7671H16.4261C17.8465 19.7671 19.017 19.5227 19.9374 19.0341C20.8693 18.5341 21.5624 17.8466 22.017 16.9716C22.4829 16.0852 22.7158 15.0682 22.7158 13.9205C22.7158 12.7614 22.4829 11.75 22.017 10.8864C21.5624 10.0114 20.8693 9.33523 19.9374 8.85796C19.0056 8.36933 17.8238 8.12501 16.392 8.12501H11.4147V37H4.03402ZM41.7386 37.4943C40.0681 37.4943 38.5795 37.2046 37.2727 36.625C35.9658 36.0341 34.9318 35.1648 34.1704 34.0171C33.4204 32.858 33.0454 31.4148 33.0454 29.6875C33.0454 28.233 33.3124 27.0114 33.8465 26.0227C34.3806 25.0341 35.1079 24.2386 36.0283 23.6364C36.9488 23.0341 37.9943 22.5796 39.1647 22.2727C40.3465 21.9659 41.5852 21.75 42.8806 21.625C44.4033 21.4659 45.6306 21.3182 46.5624 21.1818C47.4943 21.0341 48.1704 20.8182 48.5908 20.5341C49.0113 20.25 49.2215 19.8296 49.2215 19.2727V19.1705C49.2215 18.0909 48.8806 17.2557 48.1988 16.6648C47.5283 16.0739 46.5738 15.7784 45.3352 15.7784C44.0283 15.7784 42.9886 16.0682 42.2158 16.6477C41.4431 17.2159 40.9318 17.9318 40.6818 18.7955L33.9658 18.25C34.3068 16.6591 34.9772 15.2841 35.9772 14.125C36.9772 12.9546 38.267 12.0568 39.8465 11.4318C41.4374 10.7955 43.2783 10.4773 45.3693 10.4773C46.8238 10.4773 48.2158 10.6477 49.5454 10.9886C50.8863 11.3296 52.0738 11.858 53.1079 12.5739C54.1533 13.2898 54.9772 14.2102 55.5795 15.3352C56.1818 16.4489 56.4829 17.7841 56.4829 19.3409V37H49.5965V33.3693H49.392C48.9715 34.1875 48.409 34.9091 47.7045 35.5341C46.9999 36.1477 46.1533 36.6307 45.1647 36.983C44.1761 37.3239 43.034 37.4943 41.7386 37.4943ZM43.8181 32.483C44.8863 32.483 45.8295 32.2727 46.6477 31.8523C47.4658 31.4205 48.1079 30.8409 48.5738 30.1136C49.0397 29.3864 49.2727 28.5625 49.2727 27.6421V24.8636C49.0454 25.0114 48.7329 25.1477 48.3352 25.2727C47.9488 25.3864 47.5113 25.4943 47.0227 25.5966C46.534 25.6875 46.0454 25.7727 45.5568 25.8523C45.0681 25.9205 44.6249 25.983 44.2272 26.0398C43.3749 26.1648 42.6306 26.3636 41.9943 26.6364C41.3579 26.9091 40.8636 27.2784 40.5113 27.7443C40.159 28.1989 39.9829 28.7671 39.9829 29.4489C39.9829 30.4375 40.3408 31.1932 41.0568 31.7159C41.784 32.2273 42.7045 32.483 43.8181 32.483ZM60.7698 29.5852H67.8096C67.8437 30.4489 68.23 31.1307 68.9687 31.6307C69.7073 32.1307 70.6619 32.3807 71.8323 32.3807C73.0141 32.3807 74.0085 32.108 74.8153 31.5625C75.6221 31.0057 76.0255 30.2102 76.0255 29.1761C76.0255 28.5398 75.8664 27.9886 75.5482 27.5227C75.2301 27.0455 74.7869 26.6705 74.2187 26.3977C73.6505 26.125 72.9914 25.9886 72.2414 25.9886H68.4744V21.233H72.2414C73.3664 21.233 74.23 20.9716 74.8323 20.4489C75.446 19.9261 75.7528 19.2727 75.7528 18.4886C75.7528 17.6023 75.4346 16.8921 74.7982 16.358C74.1732 15.8125 73.3266 15.5398 72.2585 15.5398C71.1789 15.5398 70.2812 15.7841 69.5653 16.2727C68.8607 16.75 68.4971 17.375 68.4744 18.1477H61.4687C61.4914 16.5796 61.963 15.2216 62.8835 14.0739C63.8153 12.9261 65.0653 12.0398 66.6335 11.4148C68.213 10.7898 69.98 10.4773 71.9346 10.4773C74.071 10.4773 75.9119 10.7784 77.4573 11.3807C79.0141 11.9716 80.2073 12.8182 81.0369 13.9205C81.8778 15.0227 82.2982 16.3352 82.2982 17.858C82.2982 19.2443 81.8437 20.4034 80.9346 21.3352C80.0255 22.2671 78.7528 22.9318 77.1164 23.3296V23.6023C78.196 23.6705 79.1732 23.9602 80.0482 24.4716C80.9232 24.983 81.6221 25.6875 82.1448 26.5852C82.6675 27.4716 82.9289 28.5227 82.9289 29.7386C82.9289 31.3636 82.4516 32.7557 81.4971 33.9148C80.5539 35.0739 79.2471 35.9659 77.5766 36.5909C75.9175 37.2046 74.0141 37.5114 71.8664 37.5114C69.7755 37.5114 67.9005 37.2102 66.2414 36.608C64.5937 35.9943 63.2812 35.0966 62.3039 33.9148C61.338 32.733 60.8266 31.2898 60.7698 29.5852ZM102.859 28.9716L109.95 10.8182H115.473L105.263 37H100.439L90.4673 10.8182H95.9729L102.859 28.9716ZM94.3195 10.8182V37H87.382V10.8182H94.3195ZM111.757 37V10.8182H118.609V37H111.757ZM131.163 27.4205L140.589 10.8182H147.749V37H140.828V20.3466L131.436 37H124.226V10.8182H131.163V27.4205ZM171.791 21.0114V26.7216H158.121V21.0114H171.791ZM160.507 10.8182V37H153.57V10.8182H160.507ZM176.342 10.8182V37H169.456V10.8182H176.342ZM189.442 37.4943C187.771 37.4943 186.283 37.2046 184.976 36.625C183.669 36.0341 182.635 35.1648 181.874 34.0171C181.124 32.858 180.749 31.4148 180.749 29.6875C180.749 28.233 181.016 27.0114 181.55 26.0227C182.084 25.0341 182.811 24.2386 183.731 23.6364C184.652 23.0341 185.697 22.5796 186.868 22.2727C188.05 21.9659 189.288 21.75 190.584 21.625C192.106 21.4659 193.334 21.3182 194.266 21.1818C195.197 21.0341 195.874 20.8182 196.294 20.5341C196.714 20.25 196.925 19.8296 196.925 19.2727V19.1705C196.925 18.0909 196.584 17.2557 195.902 16.6648C195.231 16.0739 194.277 15.7784 193.038 15.7784C191.731 15.7784 190.692 16.0682 189.919 16.6477C189.146 17.2159 188.635 17.9318 188.385 18.7955L181.669 18.25C182.01 16.6591 182.68 15.2841 183.68 14.125C184.68 12.9546 185.97 12.0568 187.55 11.4318C189.141 10.7955 190.981 10.4773 193.072 10.4773C194.527 10.4773 195.919 10.6477 197.249 10.9886C198.589 11.3296 199.777 11.858 200.811 12.5739C201.856 13.2898 202.68 14.2102 203.283 15.3352C203.885 16.4489 204.186 17.7841 204.186 19.3409V37H197.3V33.3693H197.095C196.675 34.1875 196.112 34.9091 195.408 35.5341C194.703 36.1477 193.856 36.6307 192.868 36.983C191.879 37.3239 190.737 37.4943 189.442 37.4943ZM191.521 32.483C192.589 32.483 193.533 32.2727 194.351 31.8523C195.169 31.4205 195.811 30.8409 196.277 30.1136C196.743 29.3864 196.976 28.5625 196.976 27.6421V24.8636C196.749 25.0114 196.436 25.1477 196.038 25.2727C195.652 25.3864 195.214 25.4943 194.726 25.5966C194.237 25.6875 193.749 25.7727 193.26 25.8523C192.771 25.9205 192.328 25.983 191.93 26.0398C191.078 26.1648 190.334 26.3636 189.697 26.6364C189.061 26.9091 188.567 27.2784 188.214 27.7443C187.862 28.1989 187.686 28.7671 187.686 29.4489C187.686 30.4375 188.044 31.1932 188.76 31.7159C189.487 32.2273 190.408 32.483 191.521 32.483ZM216.757 27.4205L226.183 10.8182H233.342V37H226.422V20.3466L217.03 37H209.82V10.8182H216.757V27.4205ZM224.939 1.68182H230.001C229.99 3.75001 229.223 5.41478 227.7 6.67614C226.189 7.93751 224.143 8.56819 221.564 8.56819C218.973 8.56819 216.922 7.93751 215.41 6.67614C213.899 5.41478 213.143 3.75001 213.143 1.68182H218.172C218.16 2.46592 218.41 3.17046 218.922 3.79546C219.445 4.42046 220.325 4.73296 221.564 4.73296C222.768 4.73296 223.632 4.42614 224.155 3.81251C224.677 3.19887 224.939 2.48864 224.939 1.68182ZM236.534 16.5284V10.8182H260.261V16.5284H251.824V37H244.903V16.5284H236.534ZM275.658 37.5114C272.964 37.5114 270.646 36.9659 268.703 35.875C266.771 34.7727 265.283 33.2159 264.237 31.2046C263.192 29.1818 262.669 26.7898 262.669 24.0284C262.669 21.3352 263.192 18.9716 264.237 16.9375C265.283 14.9034 266.754 13.3182 268.652 12.1818C270.561 11.0455 272.8 10.4773 275.368 10.4773C277.095 10.4773 278.703 10.7557 280.192 11.3125C281.692 11.858 282.999 12.6818 284.112 13.7841C285.237 14.8864 286.112 16.2727 286.737 17.9432C287.362 19.6023 287.675 21.5455 287.675 23.7727V25.7671H265.567V21.2671H280.839C280.839 20.2216 280.612 19.2955 280.158 18.4886C279.703 17.6818 279.072 17.0511 278.266 16.5966C277.47 16.1307 276.544 15.8977 275.487 15.8977C274.385 15.8977 273.408 16.1534 272.555 16.6648C271.714 17.1648 271.055 17.8409 270.578 18.6932C270.101 19.5341 269.856 20.4716 269.845 21.5057V25.7841C269.845 27.0796 270.084 28.1989 270.561 29.1421C271.05 30.0852 271.737 30.8125 272.624 31.3239C273.51 31.8352 274.561 32.0909 275.777 32.0909C276.584 32.0909 277.322 31.9773 277.993 31.75C278.663 31.5227 279.237 31.1818 279.714 30.7273C280.192 30.2727 280.555 29.7159 280.805 29.0568L287.521 29.5C287.18 31.1136 286.481 32.5227 285.425 33.7273C284.379 34.9205 283.027 35.8523 281.368 36.5227C279.72 37.1818 277.817 37.5114 275.658 37.5114ZM315.352 37.5114C312.67 37.5114 310.364 36.9432 308.432 35.8068C306.511 34.6591 305.034 33.0682 304 31.0341C302.977 29 302.466 26.6591 302.466 24.0114C302.466 21.3296 302.983 18.9773 304.017 16.9546C305.062 14.9205 306.545 13.3352 308.466 12.1989C310.386 11.0511 312.67 10.4773 315.318 10.4773C317.602 10.4773 319.602 10.8921 321.318 11.7216C323.034 12.5511 324.392 13.7159 325.392 15.2159C326.392 16.7159 326.943 18.4773 327.045 20.5H320.193C320 19.1932 319.489 18.1421 318.659 17.3466C317.841 16.5398 316.767 16.1364 315.437 16.1364C314.312 16.1364 313.329 16.4432 312.489 17.0568C311.659 17.6591 311.011 18.5398 310.545 19.6989C310.079 20.858 309.847 22.2614 309.847 23.9091C309.847 25.5796 310.074 27 310.528 28.1705C310.994 29.3409 311.648 30.233 312.489 30.8466C313.329 31.4602 314.312 31.7671 315.437 31.7671C316.267 31.7671 317.011 31.5966 317.67 31.2557C318.341 30.9148 318.892 30.4205 319.324 29.7727C319.767 29.1136 320.057 28.3239 320.193 27.4034H327.045C326.932 29.4034 326.386 31.1648 325.409 32.6875C324.443 34.1989 323.108 35.3807 321.403 36.233C319.699 37.0852 317.682 37.5114 315.352 37.5114ZM331.695 37V10.8182H342.859C346.087 10.8182 348.638 11.4318 350.513 12.6591C352.388 13.8864 353.325 15.6307 353.325 17.8921C353.325 19.3125 352.797 20.4943 351.74 21.4375C350.683 22.3807 349.217 23.0171 347.342 23.3466C348.91 23.4602 350.246 23.8182 351.348 24.4205C352.462 25.0114 353.308 25.7784 353.888 26.7216C354.479 27.6648 354.774 28.7102 354.774 29.858C354.774 31.3466 354.376 32.625 353.581 33.6932C352.797 34.7614 351.643 35.5796 350.121 36.1477C348.609 36.7159 346.763 37 344.581 37H331.695ZM338.462 31.5625H344.581C345.592 31.5625 346.382 31.3239 346.95 30.8466C347.53 30.358 347.82 29.6932 347.82 28.8523C347.82 27.9205 347.53 27.1875 346.95 26.6534C346.382 26.1193 345.592 25.8523 344.581 25.8523H338.462V31.5625ZM338.462 21.5909H343.013C343.74 21.5909 344.359 21.4886 344.871 21.2841C345.393 21.0682 345.791 20.7614 346.064 20.3636C346.348 19.9659 346.49 19.4943 346.49 18.9489C346.49 18.1421 346.166 17.5114 345.518 17.0568C344.871 16.6023 343.984 16.375 342.859 16.375H338.462V21.5909ZM371.18 37.5114C368.533 37.5114 366.243 36.9489 364.311 35.8239C362.391 34.6875 360.908 33.108 359.862 31.0852C358.817 29.0511 358.294 26.6932 358.294 24.0114C358.294 21.3068 358.817 18.9432 359.862 16.9205C360.908 14.8864 362.391 13.3068 364.311 12.1818C366.243 11.0455 368.533 10.4773 371.18 10.4773C373.828 10.4773 376.112 11.0455 378.033 12.1818C379.964 13.3068 381.453 14.8864 382.499 16.9205C383.544 18.9432 384.067 21.3068 384.067 24.0114C384.067 26.6932 383.544 29.0511 382.499 31.0852C381.453 33.108 379.964 34.6875 378.033 35.8239C376.112 36.9489 373.828 37.5114 371.18 37.5114ZM371.214 31.8864C372.419 31.8864 373.425 31.5455 374.231 30.8636C375.038 30.1705 375.646 29.2273 376.055 28.0341C376.476 26.8409 376.686 25.483 376.686 23.9602C376.686 22.4375 376.476 21.0796 376.055 19.8864C375.646 18.6932 375.038 17.75 374.231 17.0568C373.425 16.3636 372.419 16.0171 371.214 16.0171C369.999 16.0171 368.976 16.3636 368.146 17.0568C367.328 17.75 366.709 18.6932 366.288 19.8864C365.879 21.0796 365.675 22.4375 365.675 23.9602C365.675 25.483 365.879 26.8409 366.288 28.0341C366.709 29.2273 367.328 30.1705 368.146 30.8636C368.976 31.5455 369.999 31.8864 371.214 31.8864ZM395.726 27.4205L405.152 10.8182H412.311V37H405.391V20.3466L395.999 37H388.788V10.8182H395.726V27.4205ZM429.241 46.8182V10.8182H436.401V15.2159H436.724C437.043 14.5114 437.503 13.7955 438.105 13.0682C438.719 12.3296 439.514 11.7159 440.491 11.2273C441.48 10.7273 442.707 10.4773 444.173 10.4773C446.082 10.4773 447.844 10.9773 449.457 11.9773C451.071 12.9659 452.361 14.4602 453.327 16.4602C454.293 18.4489 454.776 20.9432 454.776 23.9432C454.776 26.8636 454.304 29.3296 453.361 31.3409C452.429 33.3409 451.156 34.858 449.543 35.8921C447.94 36.9148 446.145 37.4261 444.156 37.4261C442.747 37.4261 441.548 37.1932 440.56 36.7273C439.582 36.2614 438.781 35.6761 438.156 34.9716C437.531 34.2557 437.054 33.5341 436.724 32.8068H436.503V46.8182H429.241ZM436.349 23.9091C436.349 25.4659 436.565 26.8239 436.997 27.983C437.429 29.1421 438.054 30.0455 438.872 30.6932C439.69 31.3296 440.685 31.6477 441.855 31.6477C443.037 31.6477 444.037 31.3239 444.855 30.6761C445.673 30.0171 446.293 29.108 446.713 27.9489C447.145 26.7784 447.361 25.4318 447.361 23.9091C447.361 22.3977 447.15 21.0682 446.73 19.9205C446.31 18.7727 445.69 17.875 444.872 17.2273C444.054 16.5796 443.048 16.2557 441.855 16.2557C440.673 16.2557 439.673 16.5682 438.855 17.1932C438.048 17.8182 437.429 18.7046 436.997 19.8523C436.565 21 436.349 22.3523 436.349 23.9091ZM457.081 16.5284V10.8182H480.808V16.5284H472.371V37H465.45V16.5284H457.081ZM489.761 18.8636H497.585C501.051 18.8636 503.756 19.6932 505.699 21.3523C507.642 23 508.614 25.2046 508.614 27.9659C508.614 29.7614 508.176 31.3409 507.301 32.7046C506.426 34.0568 505.165 35.1136 503.517 35.875C501.869 36.625 499.892 37 497.585 37H485.21V10.8182H492.148V31.2898H497.585C498.801 31.2898 499.801 30.983 500.585 30.3693C501.369 29.7557 501.767 28.9716 501.778 28.0171C501.767 27.0057 501.369 26.1818 500.585 25.5455C499.801 24.8977 498.801 24.5739 497.585 24.5739H489.761V18.8636ZM511.426 37V10.8182H518.687V37H511.426ZM532.383 32.2273L532.196 34.1023C532.048 35.6023 531.764 37.0966 531.344 38.5852C530.935 40.0852 530.503 41.4432 530.048 42.6591C529.605 43.875 529.247 44.8296 528.974 45.5227H524.27C524.44 44.8523 524.673 43.9148 524.969 42.7102C525.264 41.5171 525.543 40.1761 525.804 38.6875C526.065 37.1989 526.23 35.6818 526.298 34.1364L526.383 32.2273H532.383ZM8.38062 104.818C7.46016 104.818 6.59652 104.744 5.78971 104.597C4.99425 104.46 4.33516 104.284 3.81243 104.068L5.4488 98.6477C6.30107 98.9091 7.06812 99.0511 7.74993 99.0739C8.44312 99.0966 9.03971 98.9375 9.53971 98.5966C10.0511 98.2557 10.4658 97.6761 10.784 96.858L11.2102 95.75L1.81812 68.8182H9.45448L14.8749 88.0455H15.1477L20.6193 68.8182H28.3068L18.1306 97.8296C17.642 99.2386 16.9772 100.466 16.1363 101.511C15.3068 102.568 14.2556 103.381 12.9829 103.949C11.7102 104.528 10.1761 104.818 8.38062 104.818ZM61.3536 79.0114V84.7216H47.6832V79.0114H61.3536ZM50.0695 68.8182V95H43.132V68.8182H50.0695ZM65.9048 68.8182V95H59.0184V68.8182H65.9048ZM79.0042 95.4943C77.3337 95.4943 75.8451 95.2046 74.5383 94.625C73.2315 94.0341 72.1974 93.1648 71.436 92.0171C70.686 90.858 70.311 89.4148 70.311 87.6875C70.311 86.233 70.5781 85.0114 71.1122 84.0227C71.6462 83.0341 72.3735 82.2386 73.294 81.6364C74.2144 81.0341 75.2599 80.5796 76.4303 80.2727C77.6121 79.9659 78.8508 79.75 80.1462 79.625C81.669 79.4659 82.8962 79.3182 83.8281 79.1818C84.7599 79.0341 85.436 78.8182 85.8565 78.5341C86.2769 78.25 86.4872 77.8296 86.4872 77.2727V77.1705C86.4872 76.0909 86.1462 75.2557 85.4644 74.6648C84.794 74.0739 83.8394 73.7784 82.6008 73.7784C81.294 73.7784 80.2542 74.0682 79.4815 74.6477C78.7087 75.2159 78.1974 75.9318 77.9474 76.7955L71.2315 76.25C71.5724 74.6591 72.2428 73.2841 73.2428 72.125C74.2428 70.9546 75.5326 70.0568 77.1122 69.4318C78.7031 68.7955 80.544 68.4773 82.6349 68.4773C84.0894 68.4773 85.4815 68.6477 86.811 68.9886C88.1519 69.3295 89.3394 69.858 90.3735 70.5739C91.419 71.2898 92.2428 72.2102 92.8451 73.3352C93.4474 74.4489 93.7485 75.7841 93.7485 77.3409V95H86.8622V91.3693H86.6576C86.2372 92.1875 85.6747 92.9091 84.9701 93.5341C84.2656 94.1477 83.419 94.6307 82.4303 94.983C81.4417 95.3239 80.2997 95.4943 79.0042 95.4943ZM81.0837 90.483C82.1519 90.483 83.0951 90.2727 83.9133 89.8523C84.7315 89.4205 85.3735 88.8409 85.8394 88.1136C86.3053 87.3864 86.5383 86.5625 86.5383 85.6421V82.8636C86.311 83.0114 85.9985 83.1477 85.6008 83.2727C85.2144 83.3864 84.7769 83.4943 84.2883 83.5966C83.7996 83.6875 83.311 83.7727 82.8224 83.8523C82.3337 83.9205 81.8906 83.983 81.4928 84.0398C80.6406 84.1648 79.8962 84.3636 79.2599 84.6364C78.6235 84.9091 78.1292 85.2784 77.7769 85.7443C77.4247 86.1989 77.2485 86.767 77.2485 87.4489C77.2485 88.4375 77.6065 89.1932 78.3224 89.7159C79.0497 90.2273 79.9701 90.483 81.0837 90.483ZM111.212 95.5114C108.53 95.5114 106.223 94.9432 104.291 93.8068C102.371 92.6591 100.893 91.0682 99.8593 89.0341C98.8366 87 98.3252 84.6591 98.3252 82.0114C98.3252 79.3295 98.8423 76.9773 99.8764 74.9546C100.922 72.9205 102.405 71.3352 104.325 70.1989C106.246 69.0511 108.53 68.4773 111.177 68.4773C113.462 68.4773 115.462 68.8921 117.177 69.7216C118.893 70.5511 120.251 71.7159 121.251 73.2159C122.251 74.7159 122.802 76.4773 122.905 78.5H116.052C115.859 77.1932 115.348 76.142 114.518 75.3466C113.7 74.5398 112.626 74.1364 111.297 74.1364C110.172 74.1364 109.189 74.4432 108.348 75.0568C107.518 75.6591 106.871 76.5398 106.405 77.6989C105.939 78.858 105.706 80.2614 105.706 81.9091C105.706 83.5796 105.933 85 106.388 86.1705C106.854 87.3409 107.507 88.233 108.348 88.8466C109.189 89.4602 110.172 89.7671 111.297 89.7671C112.126 89.7671 112.871 89.5966 113.53 89.2557C114.2 88.9148 114.751 88.4205 115.183 87.7727C115.626 87.1136 115.916 86.3239 116.052 85.4034H122.905C122.791 87.4034 122.246 89.1648 121.268 90.6875C120.302 92.1989 118.967 93.3807 117.263 94.233C115.558 95.0852 113.541 95.5114 111.212 95.5114ZM156.885 79.0114V84.7216H143.214V79.0114H156.885ZM145.601 68.8182V95H138.663V68.8182H145.601ZM161.436 68.8182V95H154.55V68.8182H161.436ZM178.899 95.5114C176.251 95.5114 173.962 94.9489 172.03 93.8239C170.109 92.6875 168.626 91.108 167.581 89.0852C166.535 87.0511 166.013 84.6932 166.013 82.0114C166.013 79.3068 166.535 76.9432 167.581 74.9205C168.626 72.8864 170.109 71.3068 172.03 70.1818C173.962 69.0455 176.251 68.4773 178.899 68.4773C181.547 68.4773 183.831 69.0455 185.751 70.1818C187.683 71.3068 189.172 72.8864 190.217 74.9205C191.263 76.9432 191.785 79.3068 191.785 82.0114C191.785 84.6932 191.263 87.0511 190.217 89.0852C189.172 91.108 187.683 92.6875 185.751 93.8239C183.831 94.9489 181.547 95.5114 178.899 95.5114ZM178.933 89.8864C180.138 89.8864 181.143 89.5455 181.95 88.8636C182.757 88.1705 183.365 87.2273 183.774 86.0341C184.195 84.8409 184.405 83.483 184.405 81.9602C184.405 80.4375 184.195 79.0795 183.774 77.8864C183.365 76.6932 182.757 75.75 181.95 75.0568C181.143 74.3636 180.138 74.0171 178.933 74.0171C177.717 74.0171 176.695 74.3636 175.865 75.0568C175.047 75.75 174.427 76.6932 174.007 77.8864C173.598 79.0795 173.393 80.4375 173.393 81.9602C173.393 83.483 173.598 84.8409 174.007 86.0341C174.427 87.2273 175.047 88.1705 175.865 88.8636C176.695 89.5455 177.717 89.8864 178.933 89.8864ZM196.507 95V68.8182H207.672C210.899 68.8182 213.45 69.4318 215.325 70.6591C217.2 71.8864 218.138 73.6307 218.138 75.8921C218.138 77.3125 217.609 78.4943 216.552 79.4375C215.496 80.3807 214.03 81.0171 212.155 81.3466C213.723 81.4602 215.058 81.8182 216.16 82.4205C217.274 83.0114 218.121 83.7784 218.7 84.7216C219.291 85.6648 219.587 86.7102 219.587 87.858C219.587 89.3466 219.189 90.625 218.393 91.6932C217.609 92.7614 216.456 93.5796 214.933 94.1477C213.422 94.7159 211.575 95 209.393 95H196.507ZM203.274 89.5625H209.393C210.405 89.5625 211.195 89.3239 211.763 88.8466C212.342 88.358 212.632 87.6932 212.632 86.8523C212.632 85.9205 212.342 85.1875 211.763 84.6534C211.195 84.1193 210.405 83.8523 209.393 83.8523H203.274V89.5625ZM203.274 79.5909H207.825C208.552 79.5909 209.172 79.4886 209.683 79.2841C210.206 79.0682 210.604 78.7614 210.876 78.3636C211.16 77.9659 211.302 77.4943 211.302 76.9489C211.302 76.142 210.979 75.5114 210.331 75.0568C209.683 74.6023 208.797 74.375 207.672 74.375H203.274V79.5909ZM228.714 76.8636H236.538C240.004 76.8636 242.709 77.6932 244.652 79.3523C246.595 81 247.567 83.2046 247.567 85.9659C247.567 87.7614 247.129 89.3409 246.254 90.7046C245.379 92.0568 244.118 93.1136 242.47 93.875C240.822 94.625 238.845 95 236.538 95H224.163V68.8182H231.101V89.2898H236.538C237.754 89.2898 238.754 88.983 239.538 88.3693C240.322 87.7557 240.72 86.9716 240.731 86.0171C240.72 85.0057 240.322 84.1818 239.538 83.5455C238.754 82.8977 237.754 82.5739 236.538 82.5739H228.714V76.8636ZM250.379 95V68.8182H257.641V95H250.379ZM270.382 85.4205L279.808 68.8182H286.967V95H280.047V78.3466L270.655 95H263.445V68.8182H270.382V85.4205ZM278.564 59.6818H283.626C283.615 61.75 282.848 63.4148 281.325 64.6761C279.814 65.9375 277.768 66.5682 275.189 66.5682C272.598 66.5682 270.547 65.9375 269.035 64.6761C267.524 63.4148 266.768 61.75 266.768 59.6818H271.797C271.785 60.4659 272.035 61.1705 272.547 61.7955C273.07 62.4205 273.95 62.733 275.189 62.733C276.393 62.733 277.257 62.4261 277.78 61.8125C278.302 61.1989 278.564 60.4886 278.564 59.6818ZM2.70448 124.176V118.091H31.3749V124.176H20.6874V153H13.392V124.176H2.70448ZM66.5823 135.545C66.5823 139.352 65.8607 142.591 64.4175 145.261C62.9857 147.932 61.0312 149.972 58.5539 151.381C56.088 152.778 53.3153 153.477 50.2357 153.477C47.1335 153.477 44.3494 152.773 41.8835 151.364C39.4175 149.955 37.4687 147.915 36.0369 145.244C34.605 142.574 33.8891 139.341 33.8891 135.545C33.8891 131.739 34.605 128.5 36.0369 125.83C37.4687 123.159 39.4175 121.125 41.8835 119.727C44.3494 118.318 47.1335 117.614 50.2357 117.614C53.3153 117.614 56.088 118.318 58.5539 119.727C61.0312 121.125 62.9857 123.159 64.4175 125.83C65.8607 128.5 66.5823 131.739 66.5823 135.545ZM59.0994 135.545C59.0994 133.08 58.73 131 57.9914 129.307C57.2641 127.614 56.2357 126.33 54.9062 125.455C53.5766 124.58 52.0198 124.142 50.2357 124.142C48.4516 124.142 46.8948 124.58 45.5653 125.455C44.2357 126.33 43.2016 127.614 42.463 129.307C41.7357 131 41.3721 133.08 41.3721 135.545C41.3721 138.011 41.7357 140.091 42.463 141.784C43.2016 143.477 44.2357 144.761 45.5653 145.636C46.8948 146.511 48.4516 146.949 50.2357 146.949C52.0198 146.949 53.5766 146.511 54.9062 145.636C56.2357 144.761 57.2641 143.477 57.9914 141.784C58.73 140.091 59.0994 138.011 59.0994 135.545ZM72.0497 153V118.091H86.0269C88.5951 118.091 90.7371 118.472 92.4531 119.233C94.169 119.994 95.4587 121.051 96.3224 122.403C97.186 123.744 97.6178 125.29 97.6178 127.04C97.6178 128.403 97.3451 129.602 96.7997 130.636C96.2542 131.659 95.5042 132.5 94.5497 133.159C93.6065 133.807 92.5269 134.267 91.311 134.54V134.881C92.6406 134.938 93.8849 135.313 95.044 136.006C96.2144 136.699 97.1633 137.67 97.8906 138.92C98.6178 140.159 98.9815 141.636 98.9815 143.352C98.9815 145.205 98.5212 146.858 97.6008 148.312C96.6917 149.756 95.3451 150.898 93.561 151.739C91.7769 152.58 89.5781 153 86.9644 153H72.0497ZM79.4303 146.966H85.4474C87.5042 146.966 89.0042 146.574 89.9474 145.79C90.8906 144.994 91.3622 143.938 91.3622 142.619C91.3622 141.653 91.1292 140.801 90.6633 140.062C90.1974 139.324 89.5326 138.744 88.669 138.324C87.8167 137.903 86.7996 137.693 85.6178 137.693H79.4303V146.966ZM79.4303 132.699H84.9019C85.9133 132.699 86.811 132.523 87.5951 132.17C88.3906 131.807 89.0156 131.295 89.4701 130.636C89.936 129.977 90.169 129.188 90.169 128.267C90.169 127.006 89.7201 125.989 88.8224 125.216C87.936 124.443 86.6746 124.057 85.0383 124.057H79.4303V132.699ZM109.801 153H101.892L113.943 118.091H123.454L135.489 153H127.579L118.835 126.068H118.562L109.801 153ZM109.307 139.278H127.989V145.04H109.307V139.278ZM139.69 153V118.091H153.463C156.111 118.091 158.366 118.597 160.23 119.608C162.094 120.608 163.514 122 164.491 123.784C165.48 125.557 165.974 127.602 165.974 129.92C165.974 132.239 165.474 134.284 164.474 136.057C163.474 137.83 162.026 139.21 160.128 140.199C158.241 141.188 155.957 141.682 153.275 141.682H144.497V135.767H152.082C153.503 135.767 154.673 135.523 155.594 135.034C156.526 134.534 157.219 133.847 157.673 132.972C158.139 132.085 158.372 131.068 158.372 129.92C158.372 128.761 158.139 127.75 157.673 126.886C157.219 126.011 156.526 125.335 155.594 124.858C154.662 124.369 153.48 124.125 152.048 124.125H147.071V153H139.69ZM181.878 153V118.091H189.258V132.494H204.241V118.091H211.605V153H204.241V138.58H189.258V153H181.878ZM217.69 153V118.091H241.213V124.176H225.071V132.494H240.003V138.58H225.071V146.915H241.281V153H217.69ZM245.189 161.42V147.119H247.558C248.365 146.54 249.104 145.722 249.774 144.665C250.445 143.597 251.018 142.125 251.496 140.25C251.973 138.364 252.314 135.898 252.518 132.852L253.507 118.091H276.604V147.119H280.422V161.386H273.331V153H252.28V161.42H245.189ZM256.081 147.119H269.513V124.176H260.155L259.609 132.852C259.462 135.159 259.217 137.205 258.876 138.989C258.547 140.773 258.143 142.335 257.666 143.676C257.2 145.006 256.672 146.153 256.081 147.119ZM284.909 153V118.091H308.432V124.176H292.29V132.494H307.222V138.58H292.29V146.915H308.5V153H284.909ZM312.408 153V147.068L313.396 146.983C314.669 146.881 315.697 146.398 316.481 145.534C317.266 144.659 317.851 143.267 318.237 141.358C318.635 139.438 318.891 136.858 319.004 133.619L319.584 118.091H343.277V153H336.101V124.006H326.436L325.891 136.159C325.709 140.068 325.243 143.261 324.493 145.739C323.754 148.216 322.572 150.045 320.947 151.227C319.334 152.409 317.123 153 314.317 153H312.408ZM349.362 118.091H356.726V140.045H357.016L372.101 118.091H378.561V153H371.18V131.028H370.925L355.754 153H349.362V118.091ZM393.199 118.091L392.534 142.534H386.295L385.614 118.091H393.199ZM389.415 153.443C388.29 153.443 387.324 153.045 386.517 152.25C385.71 151.443 385.312 150.477 385.324 149.352C385.312 148.239 385.71 147.284 386.517 146.489C387.324 145.693 388.29 145.295 389.415 145.295C390.494 145.295 391.443 145.693 392.261 146.489C393.079 147.284 393.494 148.239 393.506 149.352C393.494 150.102 393.295 150.79 392.909 151.415C392.534 152.028 392.04 152.523 391.426 152.898C390.812 153.261 390.142 153.443 389.415 153.443Z"/>
</mask>
<path d="M4.03402 37V2.09092H17.8068C20.4545 2.09092 22.7102 2.5966 24.5738 3.60796C26.4374 4.60796 27.8579 6.00001 28.8352 7.7841C29.8238 9.55682 30.3181 11.6023 30.3181 13.9205C30.3181 16.2386 29.8181 18.2841 28.8181 20.0568C27.8181 21.8296 26.3693 23.2102 24.4715 24.1989C22.5852 25.1875 20.3011 25.6818 17.6193 25.6818H8.84084V19.7671H16.4261C17.8465 19.7671 19.017 19.5227 19.9374 19.0341C20.8693 18.5341 21.5624 17.8466 22.017 16.9716C22.4829 16.0852 22.7158 15.0682 22.7158 13.9205C22.7158 12.7614 22.4829 11.75 22.017 10.8864C21.5624 10.0114 20.8693 9.33523 19.9374 8.85796C19.0056 8.36933 17.8238 8.12501 16.392 8.12501H11.4147V37H4.03402ZM41.7386 37.4943C40.0681 37.4943 38.5795 37.2046 37.2727 36.625C35.9658 36.0341 34.9318 35.1648 34.1704 34.0171C33.4204 32.858 33.0454 31.4148 33.0454 29.6875C33.0454 28.233 33.3124 27.0114 33.8465 26.0227C34.3806 25.0341 35.1079 24.2386 36.0283 23.6364C36.9488 23.0341 37.9943 22.5796 39.1647 22.2727C40.3465 21.9659 41.5852 21.75 42.8806 21.625C44.4033 21.4659 45.6306 21.3182 46.5624 21.1818C47.4943 21.0341 48.1704 20.8182 48.5908 20.5341C49.0113 20.25 49.2215 19.8296 49.2215 19.2727V19.1705C49.2215 18.0909 48.8806 17.2557 48.1988 16.6648C47.5283 16.0739 46.5738 15.7784 45.3352 15.7784C44.0283 15.7784 42.9886 16.0682 42.2158 16.6477C41.4431 17.2159 40.9318 17.9318 40.6818 18.7955L33.9658 18.25C34.3068 16.6591 34.9772 15.2841 35.9772 14.125C36.9772 12.9546 38.267 12.0568 39.8465 11.4318C41.4374 10.7955 43.2783 10.4773 45.3693 10.4773C46.8238 10.4773 48.2158 10.6477 49.5454 10.9886C50.8863 11.3296 52.0738 11.858 53.1079 12.5739C54.1533 13.2898 54.9772 14.2102 55.5795 15.3352C56.1818 16.4489 56.4829 17.7841 56.4829 19.3409V37H49.5965V33.3693H49.392C48.9715 34.1875 48.409 34.9091 47.7045 35.5341C46.9999 36.1477 46.1533 36.6307 45.1647 36.983C44.1761 37.3239 43.034 37.4943 41.7386 37.4943ZM43.8181 32.483C44.8863 32.483 45.8295 32.2727 46.6477 31.8523C47.4658 31.4205 48.1079 30.8409 48.5738 30.1136C49.0397 29.3864 49.2727 28.5625 49.2727 27.6421V24.8636C49.0454 25.0114 48.7329 25.1477 48.3352 25.2727C47.9488 25.3864 47.5113 25.4943 47.0227 25.5966C46.534 25.6875 46.0454 25.7727 45.5568 25.8523C45.0681 25.9205 44.6249 25.983 44.2272 26.0398C43.3749 26.1648 42.6306 26.3636 41.9943 26.6364C41.3579 26.9091 40.8636 27.2784 40.5113 27.7443C40.159 28.1989 39.9829 28.7671 39.9829 29.4489C39.9829 30.4375 40.3408 31.1932 41.0568 31.7159C41.784 32.2273 42.7045 32.483 43.8181 32.483ZM60.7698 29.5852H67.8096C67.8437 30.4489 68.23 31.1307 68.9687 31.6307C69.7073 32.1307 70.6619 32.3807 71.8323 32.3807C73.0141 32.3807 74.0085 32.108 74.8153 31.5625C75.6221 31.0057 76.0255 30.2102 76.0255 29.1761C76.0255 28.5398 75.8664 27.9886 75.5482 27.5227C75.2301 27.0455 74.7869 26.6705 74.2187 26.3977C73.6505 26.125 72.9914 25.9886 72.2414 25.9886H68.4744V21.233H72.2414C73.3664 21.233 74.23 20.9716 74.8323 20.4489C75.446 19.9261 75.7528 19.2727 75.7528 18.4886C75.7528 17.6023 75.4346 16.8921 74.7982 16.358C74.1732 15.8125 73.3266 15.5398 72.2585 15.5398C71.1789 15.5398 70.2812 15.7841 69.5653 16.2727C68.8607 16.75 68.4971 17.375 68.4744 18.1477H61.4687C61.4914 16.5796 61.963 15.2216 62.8835 14.0739C63.8153 12.9261 65.0653 12.0398 66.6335 11.4148C68.213 10.7898 69.98 10.4773 71.9346 10.4773C74.071 10.4773 75.9119 10.7784 77.4573 11.3807C79.0141 11.9716 80.2073 12.8182 81.0369 13.9205C81.8778 15.0227 82.2982 16.3352 82.2982 17.858C82.2982 19.2443 81.8437 20.4034 80.9346 21.3352C80.0255 22.2671 78.7528 22.9318 77.1164 23.3296V23.6023C78.196 23.6705 79.1732 23.9602 80.0482 24.4716C80.9232 24.983 81.6221 25.6875 82.1448 26.5852C82.6675 27.4716 82.9289 28.5227 82.9289 29.7386C82.9289 31.3636 82.4516 32.7557 81.4971 33.9148C80.5539 35.0739 79.2471 35.9659 77.5766 36.5909C75.9175 37.2046 74.0141 37.5114 71.8664 37.5114C69.7755 37.5114 67.9005 37.2102 66.2414 36.608C64.5937 35.9943 63.2812 35.0966 62.3039 33.9148C61.338 32.733 60.8266 31.2898 60.7698 29.5852ZM102.859 28.9716L109.95 10.8182H115.473L105.263 37H100.439L90.4673 10.8182H95.9729L102.859 28.9716ZM94.3195 10.8182V37H87.382V10.8182H94.3195ZM111.757 37V10.8182H118.609V37H111.757ZM131.163 27.4205L140.589 10.8182H147.749V37H140.828V20.3466L131.436 37H124.226V10.8182H131.163V27.4205ZM171.791 21.0114V26.7216H158.121V21.0114H171.791ZM160.507 10.8182V37H153.57V10.8182H160.507ZM176.342 10.8182V37H169.456V10.8182H176.342ZM189.442 37.4943C187.771 37.4943 186.283 37.2046 184.976 36.625C183.669 36.0341 182.635 35.1648 181.874 34.0171C181.124 32.858 180.749 31.4148 180.749 29.6875C180.749 28.233 181.016 27.0114 181.55 26.0227C182.084 25.0341 182.811 24.2386 183.731 23.6364C184.652 23.0341 185.697 22.5796 186.868 22.2727C188.05 21.9659 189.288 21.75 190.584 21.625C192.106 21.4659 193.334 21.3182 194.266 21.1818C195.197 21.0341 195.874 20.8182 196.294 20.5341C196.714 20.25 196.925 19.8296 196.925 19.2727V19.1705C196.925 18.0909 196.584 17.2557 195.902 16.6648C195.231 16.0739 194.277 15.7784 193.038 15.7784C191.731 15.7784 190.692 16.0682 189.919 16.6477C189.146 17.2159 188.635 17.9318 188.385 18.7955L181.669 18.25C182.01 16.6591 182.68 15.2841 183.68 14.125C184.68 12.9546 185.97 12.0568 187.55 11.4318C189.141 10.7955 190.981 10.4773 193.072 10.4773C194.527 10.4773 195.919 10.6477 197.249 10.9886C198.589 11.3296 199.777 11.858 200.811 12.5739C201.856 13.2898 202.68 14.2102 203.283 15.3352C203.885 16.4489 204.186 17.7841 204.186 19.3409V37H197.3V33.3693H197.095C196.675 34.1875 196.112 34.9091 195.408 35.5341C194.703 36.1477 193.856 36.6307 192.868 36.983C191.879 37.3239 190.737 37.4943 189.442 37.4943ZM191.521 32.483C192.589 32.483 193.533 32.2727 194.351 31.8523C195.169 31.4205 195.811 30.8409 196.277 30.1136C196.743 29.3864 196.976 28.5625 196.976 27.6421V24.8636C196.749 25.0114 196.436 25.1477 196.038 25.2727C195.652 25.3864 195.214 25.4943 194.726 25.5966C194.237 25.6875 193.749 25.7727 193.26 25.8523C192.771 25.9205 192.328 25.983 191.93 26.0398C191.078 26.1648 190.334 26.3636 189.697 26.6364C189.061 26.9091 188.567 27.2784 188.214 27.7443C187.862 28.1989 187.686 28.7671 187.686 29.4489C187.686 30.4375 188.044 31.1932 188.76 31.7159C189.487 32.2273 190.408 32.483 191.521 32.483ZM216.757 27.4205L226.183 10.8182H233.342V37H226.422V20.3466L217.03 37H209.82V10.8182H216.757V27.4205ZM224.939 1.68182H230.001C229.99 3.75001 229.223 5.41478 227.7 6.67614C226.189 7.93751 224.143 8.56819 221.564 8.56819C218.973 8.56819 216.922 7.93751 215.41 6.67614C213.899 5.41478 213.143 3.75001 213.143 1.68182H218.172C218.16 2.46592 218.41 3.17046 218.922 3.79546C219.445 4.42046 220.325 4.73296 221.564 4.73296C222.768 4.73296 223.632 4.42614 224.155 3.81251C224.677 3.19887 224.939 2.48864 224.939 1.68182ZM236.534 16.5284V10.8182H260.261V16.5284H251.824V37H244.903V16.5284H236.534ZM275.658 37.5114C272.964 37.5114 270.646 36.9659 268.703 35.875C266.771 34.7727 265.283 33.2159 264.237 31.2046C263.192 29.1818 262.669 26.7898 262.669 24.0284C262.669 21.3352 263.192 18.9716 264.237 16.9375C265.283 14.9034 266.754 13.3182 268.652 12.1818C270.561 11.0455 272.8 10.4773 275.368 10.4773C277.095 10.4773 278.703 10.7557 280.192 11.3125C281.692 11.858 282.999 12.6818 284.112 13.7841C285.237 14.8864 286.112 16.2727 286.737 17.9432C287.362 19.6023 287.675 21.5455 287.675 23.7727V25.7671H265.567V21.2671H280.839C280.839 20.2216 280.612 19.2955 280.158 18.4886C279.703 17.6818 279.072 17.0511 278.266 16.5966C277.47 16.1307 276.544 15.8977 275.487 15.8977C274.385 15.8977 273.408 16.1534 272.555 16.6648C271.714 17.1648 271.055 17.8409 270.578 18.6932C270.101 19.5341 269.856 20.4716 269.845 21.5057V25.7841C269.845 27.0796 270.084 28.1989 270.561 29.1421C271.05 30.0852 271.737 30.8125 272.624 31.3239C273.51 31.8352 274.561 32.0909 275.777 32.0909C276.584 32.0909 277.322 31.9773 277.993 31.75C278.663 31.5227 279.237 31.1818 279.714 30.7273C280.192 30.2727 280.555 29.7159 280.805 29.0568L287.521 29.5C287.18 31.1136 286.481 32.5227 285.425 33.7273C284.379 34.9205 283.027 35.8523 281.368 36.5227C279.72 37.1818 277.817 37.5114 275.658 37.5114ZM315.352 37.5114C312.67 37.5114 310.364 36.9432 308.432 35.8068C306.511 34.6591 305.034 33.0682 304 31.0341C302.977 29 302.466 26.6591 302.466 24.0114C302.466 21.3296 302.983 18.9773 304.017 16.9546C305.062 14.9205 306.545 13.3352 308.466 12.1989C310.386 11.0511 312.67 10.4773 315.318 10.4773C317.602 10.4773 319.602 10.8921 321.318 11.7216C323.034 12.5511 324.392 13.7159 325.392 15.2159C326.392 16.7159 326.943 18.4773 327.045 20.5H320.193C320 19.1932 319.489 18.1421 318.659 17.3466C317.841 16.5398 316.767 16.1364 315.437 16.1364C314.312 16.1364 313.329 16.4432 312.489 17.0568C311.659 17.6591 311.011 18.5398 310.545 19.6989C310.079 20.858 309.847 22.2614 309.847 23.9091C309.847 25.5796 310.074 27 310.528 28.1705C310.994 29.3409 311.648 30.233 312.489 30.8466C313.329 31.4602 314.312 31.7671 315.437 31.7671C316.267 31.7671 317.011 31.5966 317.67 31.2557C318.341 30.9148 318.892 30.4205 319.324 29.7727C319.767 29.1136 320.057 28.3239 320.193 27.4034H327.045C326.932 29.4034 326.386 31.1648 325.409 32.6875C324.443 34.1989 323.108 35.3807 321.403 36.233C319.699 37.0852 317.682 37.5114 315.352 37.5114ZM331.695 37V10.8182H342.859C346.087 10.8182 348.638 11.4318 350.513 12.6591C352.388 13.8864 353.325 15.6307 353.325 17.8921C353.325 19.3125 352.797 20.4943 351.74 21.4375C350.683 22.3807 349.217 23.0171 347.342 23.3466C348.91 23.4602 350.246 23.8182 351.348 24.4205C352.462 25.0114 353.308 25.7784 353.888 26.7216C354.479 27.6648 354.774 28.7102 354.774 29.858C354.774 31.3466 354.376 32.625 353.581 33.6932C352.797 34.7614 351.643 35.5796 350.121 36.1477C348.609 36.7159 346.763 37 344.581 37H331.695ZM338.462 31.5625H344.581C345.592 31.5625 346.382 31.3239 346.95 30.8466C347.53 30.358 347.82 29.6932 347.82 28.8523C347.82 27.9205 347.53 27.1875 346.95 26.6534C346.382 26.1193 345.592 25.8523 344.581 25.8523H338.462V31.5625ZM338.462 21.5909H343.013C343.74 21.5909 344.359 21.4886 344.871 21.2841C345.393 21.0682 345.791 20.7614 346.064 20.3636C346.348 19.9659 346.49 19.4943 346.49 18.9489C346.49 18.1421 346.166 17.5114 345.518 17.0568C344.871 16.6023 343.984 16.375 342.859 16.375H338.462V21.5909ZM371.18 37.5114C368.533 37.5114 366.243 36.9489 364.311 35.8239C362.391 34.6875 360.908 33.108 359.862 31.0852C358.817 29.0511 358.294 26.6932 358.294 24.0114C358.294 21.3068 358.817 18.9432 359.862 16.9205C360.908 14.8864 362.391 13.3068 364.311 12.1818C366.243 11.0455 368.533 10.4773 371.18 10.4773C373.828 10.4773 376.112 11.0455 378.033 12.1818C379.964 13.3068 381.453 14.8864 382.499 16.9205C383.544 18.9432 384.067 21.3068 384.067 24.0114C384.067 26.6932 383.544 29.0511 382.499 31.0852C381.453 33.108 379.964 34.6875 378.033 35.8239C376.112 36.9489 373.828 37.5114 371.18 37.5114ZM371.214 31.8864C372.419 31.8864 373.425 31.5455 374.231 30.8636C375.038 30.1705 375.646 29.2273 376.055 28.0341C376.476 26.8409 376.686 25.483 376.686 23.9602C376.686 22.4375 376.476 21.0796 376.055 19.8864C375.646 18.6932 375.038 17.75 374.231 17.0568C373.425 16.3636 372.419 16.0171 371.214 16.0171C369.999 16.0171 368.976 16.3636 368.146 17.0568C367.328 17.75 366.709 18.6932 366.288 19.8864C365.879 21.0796 365.675 22.4375 365.675 23.9602C365.675 25.483 365.879 26.8409 366.288 28.0341C366.709 29.2273 367.328 30.1705 368.146 30.8636C368.976 31.5455 369.999 31.8864 371.214 31.8864ZM395.726 27.4205L405.152 10.8182H412.311V37H405.391V20.3466L395.999 37H388.788V10.8182H395.726V27.4205ZM429.241 46.8182V10.8182H436.401V15.2159H436.724C437.043 14.5114 437.503 13.7955 438.105 13.0682C438.719 12.3296 439.514 11.7159 440.491 11.2273C441.48 10.7273 442.707 10.4773 444.173 10.4773C446.082 10.4773 447.844 10.9773 449.457 11.9773C451.071 12.9659 452.361 14.4602 453.327 16.4602C454.293 18.4489 454.776 20.9432 454.776 23.9432C454.776 26.8636 454.304 29.3296 453.361 31.3409C452.429 33.3409 451.156 34.858 449.543 35.8921C447.94 36.9148 446.145 37.4261 444.156 37.4261C442.747 37.4261 441.548 37.1932 440.56 36.7273C439.582 36.2614 438.781 35.6761 438.156 34.9716C437.531 34.2557 437.054 33.5341 436.724 32.8068H436.503V46.8182H429.241ZM436.349 23.9091C436.349 25.4659 436.565 26.8239 436.997 27.983C437.429 29.1421 438.054 30.0455 438.872 30.6932C439.69 31.3296 440.685 31.6477 441.855 31.6477C443.037 31.6477 444.037 31.3239 444.855 30.6761C445.673 30.0171 446.293 29.108 446.713 27.9489C447.145 26.7784 447.361 25.4318 447.361 23.9091C447.361 22.3977 447.15 21.0682 446.73 19.9205C446.31 18.7727 445.69 17.875 444.872 17.2273C444.054 16.5796 443.048 16.2557 441.855 16.2557C440.673 16.2557 439.673 16.5682 438.855 17.1932C438.048 17.8182 437.429 18.7046 436.997 19.8523C436.565 21 436.349 22.3523 436.349 23.9091ZM457.081 16.5284V10.8182H480.808V16.5284H472.371V37H465.45V16.5284H457.081ZM489.761 18.8636H497.585C501.051 18.8636 503.756 19.6932 505.699 21.3523C507.642 23 508.614 25.2046 508.614 27.9659C508.614 29.7614 508.176 31.3409 507.301 32.7046C506.426 34.0568 505.165 35.1136 503.517 35.875C501.869 36.625 499.892 37 497.585 37H485.21V10.8182H492.148V31.2898H497.585C498.801 31.2898 499.801 30.983 500.585 30.3693C501.369 29.7557 501.767 28.9716 501.778 28.0171C501.767 27.0057 501.369 26.1818 500.585 25.5455C499.801 24.8977 498.801 24.5739 497.585 24.5739H489.761V18.8636ZM511.426 37V10.8182H518.687V37H511.426ZM532.383 32.2273L532.196 34.1023C532.048 35.6023 531.764 37.0966 531.344 38.5852C530.935 40.0852 530.503 41.4432 530.048 42.6591C529.605 43.875 529.247 44.8296 528.974 45.5227H524.27C524.44 44.8523 524.673 43.9148 524.969 42.7102C525.264 41.5171 525.543 40.1761 525.804 38.6875C526.065 37.1989 526.23 35.6818 526.298 34.1364L526.383 32.2273H532.383ZM8.38062 104.818C7.46016 104.818 6.59652 104.744 5.78971 104.597C4.99425 104.46 4.33516 104.284 3.81243 104.068L5.4488 98.6477C6.30107 98.9091 7.06812 99.0511 7.74993 99.0739C8.44312 99.0966 9.03971 98.9375 9.53971 98.5966C10.0511 98.2557 10.4658 97.6761 10.784 96.858L11.2102 95.75L1.81812 68.8182H9.45448L14.8749 88.0455H15.1477L20.6193 68.8182H28.3068L18.1306 97.8296C17.642 99.2386 16.9772 100.466 16.1363 101.511C15.3068 102.568 14.2556 103.381 12.9829 103.949C11.7102 104.528 10.1761 104.818 8.38062 104.818ZM61.3536 79.0114V84.7216H47.6832V79.0114H61.3536ZM50.0695 68.8182V95H43.132V68.8182H50.0695ZM65.9048 68.8182V95H59.0184V68.8182H65.9048ZM79.0042 95.4943C77.3337 95.4943 75.8451 95.2046 74.5383 94.625C73.2315 94.0341 72.1974 93.1648 71.436 92.0171C70.686 90.858 70.311 89.4148 70.311 87.6875C70.311 86.233 70.5781 85.0114 71.1122 84.0227C71.6462 83.0341 72.3735 82.2386 73.294 81.6364C74.2144 81.0341 75.2599 80.5796 76.4303 80.2727C77.6121 79.9659 78.8508 79.75 80.1462 79.625C81.669 79.4659 82.8962 79.3182 83.8281 79.1818C84.7599 79.0341 85.436 78.8182 85.8565 78.5341C86.2769 78.25 86.4872 77.8296 86.4872 77.2727V77.1705C86.4872 76.0909 86.1462 75.2557 85.4644 74.6648C84.794 74.0739 83.8394 73.7784 82.6008 73.7784C81.294 73.7784 80.2542 74.0682 79.4815 74.6477C78.7087 75.2159 78.1974 75.9318 77.9474 76.7955L71.2315 76.25C71.5724 74.6591 72.2428 73.2841 73.2428 72.125C74.2428 70.9546 75.5326 70.0568 77.1122 69.4318C78.7031 68.7955 80.544 68.4773 82.6349 68.4773C84.0894 68.4773 85.4815 68.6477 86.811 68.9886C88.1519 69.3295 89.3394 69.858 90.3735 70.5739C91.419 71.2898 92.2428 72.2102 92.8451 73.3352C93.4474 74.4489 93.7485 75.7841 93.7485 77.3409V95H86.8622V91.3693H86.6576C86.2372 92.1875 85.6747 92.9091 84.9701 93.5341C84.2656 94.1477 83.419 94.6307 82.4303 94.983C81.4417 95.3239 80.2997 95.4943 79.0042 95.4943ZM81.0837 90.483C82.1519 90.483 83.0951 90.2727 83.9133 89.8523C84.7315 89.4205 85.3735 88.8409 85.8394 88.1136C86.3053 87.3864 86.5383 86.5625 86.5383 85.6421V82.8636C86.311 83.0114 85.9985 83.1477 85.6008 83.2727C85.2144 83.3864 84.7769 83.4943 84.2883 83.5966C83.7996 83.6875 83.311 83.7727 82.8224 83.8523C82.3337 83.9205 81.8906 83.983 81.4928 84.0398C80.6406 84.1648 79.8962 84.3636 79.2599 84.6364C78.6235 84.9091 78.1292 85.2784 77.7769 85.7443C77.4247 86.1989 77.2485 86.767 77.2485 87.4489C77.2485 88.4375 77.6065 89.1932 78.3224 89.7159C79.0497 90.2273 79.9701 90.483 81.0837 90.483ZM111.212 95.5114C108.53 95.5114 106.223 94.9432 104.291 93.8068C102.371 92.6591 100.893 91.0682 99.8593 89.0341C98.8366 87 98.3252 84.6591 98.3252 82.0114C98.3252 79.3295 98.8423 76.9773 99.8764 74.9546C100.922 72.9205 102.405 71.3352 104.325 70.1989C106.246 69.0511 108.53 68.4773 111.177 68.4773C113.462 68.4773 115.462 68.8921 117.177 69.7216C118.893 70.5511 120.251 71.7159 121.251 73.2159C122.251 74.7159 122.802 76.4773 122.905 78.5H116.052C115.859 77.1932 115.348 76.142 114.518 75.3466C113.7 74.5398 112.626 74.1364 111.297 74.1364C110.172 74.1364 109.189 74.4432 108.348 75.0568C107.518 75.6591 106.871 76.5398 106.405 77.6989C105.939 78.858 105.706 80.2614 105.706 81.9091C105.706 83.5796 105.933 85 106.388 86.1705C106.854 87.3409 107.507 88.233 108.348 88.8466C109.189 89.4602 110.172 89.7671 111.297 89.7671C112.126 89.7671 112.871 89.5966 113.53 89.2557C114.2 88.9148 114.751 88.4205 115.183 87.7727C115.626 87.1136 115.916 86.3239 116.052 85.4034H122.905C122.791 87.4034 122.246 89.1648 121.268 90.6875C120.302 92.1989 118.967 93.3807 117.263 94.233C115.558 95.0852 113.541 95.5114 111.212 95.5114ZM156.885 79.0114V84.7216H143.214V79.0114H156.885ZM145.601 68.8182V95H138.663V68.8182H145.601ZM161.436 68.8182V95H154.55V68.8182H161.436ZM178.899 95.5114C176.251 95.5114 173.962 94.9489 172.03 93.8239C170.109 92.6875 168.626 91.108 167.581 89.0852C166.535 87.0511 166.013 84.6932 166.013 82.0114C166.013 79.3068 166.535 76.9432 167.581 74.9205C168.626 72.8864 170.109 71.3068 172.03 70.1818C173.962 69.0455 176.251 68.4773 178.899 68.4773C181.547 68.4773 183.831 69.0455 185.751 70.1818C187.683 71.3068 189.172 72.8864 190.217 74.9205C191.263 76.9432 191.785 79.3068 191.785 82.0114C191.785 84.6932 191.263 87.0511 190.217 89.0852C189.172 91.108 187.683 92.6875 185.751 93.8239C183.831 94.9489 181.547 95.5114 178.899 95.5114ZM178.933 89.8864C180.138 89.8864 181.143 89.5455 181.95 88.8636C182.757 88.1705 183.365 87.2273 183.774 86.0341C184.195 84.8409 184.405 83.483 184.405 81.9602C184.405 80.4375 184.195 79.0795 183.774 77.8864C183.365 76.6932 182.757 75.75 181.95 75.0568C181.143 74.3636 180.138 74.0171 178.933 74.0171C177.717 74.0171 176.695 74.3636 175.865 75.0568C175.047 75.75 174.427 76.6932 174.007 77.8864C173.598 79.0795 173.393 80.4375 173.393 81.9602C173.393 83.483 173.598 84.8409 174.007 86.0341C174.427 87.2273 175.047 88.1705 175.865 88.8636C176.695 89.5455 177.717 89.8864 178.933 89.8864ZM196.507 95V68.8182H207.672C210.899 68.8182 213.45 69.4318 215.325 70.6591C217.2 71.8864 218.138 73.6307 218.138 75.8921C218.138 77.3125 217.609 78.4943 216.552 79.4375C215.496 80.3807 214.03 81.0171 212.155 81.3466C213.723 81.4602 215.058 81.8182 216.16 82.4205C217.274 83.0114 218.121 83.7784 218.7 84.7216C219.291 85.6648 219.587 86.7102 219.587 87.858C219.587 89.3466 219.189 90.625 218.393 91.6932C217.609 92.7614 216.456 93.5796 214.933 94.1477C213.422 94.7159 211.575 95 209.393 95H196.507ZM203.274 89.5625H209.393C210.405 89.5625 211.195 89.3239 211.763 88.8466C212.342 88.358 212.632 87.6932 212.632 86.8523C212.632 85.9205 212.342 85.1875 211.763 84.6534C211.195 84.1193 210.405 83.8523 209.393 83.8523H203.274V89.5625ZM203.274 79.5909H207.825C208.552 79.5909 209.172 79.4886 209.683 79.2841C210.206 79.0682 210.604 78.7614 210.876 78.3636C211.16 77.9659 211.302 77.4943 211.302 76.9489C211.302 76.142 210.979 75.5114 210.331 75.0568C209.683 74.6023 208.797 74.375 207.672 74.375H203.274V79.5909ZM228.714 76.8636H236.538C240.004 76.8636 242.709 77.6932 244.652 79.3523C246.595 81 247.567 83.2046 247.567 85.9659C247.567 87.7614 247.129 89.3409 246.254 90.7046C245.379 92.0568 244.118 93.1136 242.47 93.875C240.822 94.625 238.845 95 236.538 95H224.163V68.8182H231.101V89.2898H236.538C237.754 89.2898 238.754 88.983 239.538 88.3693C240.322 87.7557 240.72 86.9716 240.731 86.0171C240.72 85.0057 240.322 84.1818 239.538 83.5455C238.754 82.8977 237.754 82.5739 236.538 82.5739H228.714V76.8636ZM250.379 95V68.8182H257.641V95H250.379ZM270.382 85.4205L279.808 68.8182H286.967V95H280.047V78.3466L270.655 95H263.445V68.8182H270.382V85.4205ZM278.564 59.6818H283.626C283.615 61.75 282.848 63.4148 281.325 64.6761C279.814 65.9375 277.768 66.5682 275.189 66.5682C272.598 66.5682 270.547 65.9375 269.035 64.6761C267.524 63.4148 266.768 61.75 266.768 59.6818H271.797C271.785 60.4659 272.035 61.1705 272.547 61.7955C273.07 62.4205 273.95 62.733 275.189 62.733C276.393 62.733 277.257 62.4261 277.78 61.8125C278.302 61.1989 278.564 60.4886 278.564 59.6818ZM2.70448 124.176V118.091H31.3749V124.176H20.6874V153H13.392V124.176H2.70448ZM66.5823 135.545C66.5823 139.352 65.8607 142.591 64.4175 145.261C62.9857 147.932 61.0312 149.972 58.5539 151.381C56.088 152.778 53.3153 153.477 50.2357 153.477C47.1335 153.477 44.3494 152.773 41.8835 151.364C39.4175 149.955 37.4687 147.915 36.0369 145.244C34.605 142.574 33.8891 139.341 33.8891 135.545C33.8891 131.739 34.605 128.5 36.0369 125.83C37.4687 123.159 39.4175 121.125 41.8835 119.727C44.3494 118.318 47.1335 117.614 50.2357 117.614C53.3153 117.614 56.088 118.318 58.5539 119.727C61.0312 121.125 62.9857 123.159 64.4175 125.83C65.8607 128.5 66.5823 131.739 66.5823 135.545ZM59.0994 135.545C59.0994 133.08 58.73 131 57.9914 129.307C57.2641 127.614 56.2357 126.33 54.9062 125.455C53.5766 124.58 52.0198 124.142 50.2357 124.142C48.4516 124.142 46.8948 124.58 45.5653 125.455C44.2357 126.33 43.2016 127.614 42.463 129.307C41.7357 131 41.3721 133.08 41.3721 135.545C41.3721 138.011 41.7357 140.091 42.463 141.784C43.2016 143.477 44.2357 144.761 45.5653 145.636C46.8948 146.511 48.4516 146.949 50.2357 146.949C52.0198 146.949 53.5766 146.511 54.9062 145.636C56.2357 144.761 57.2641 143.477 57.9914 141.784C58.73 140.091 59.0994 138.011 59.0994 135.545ZM72.0497 153V118.091H86.0269C88.5951 118.091 90.7371 118.472 92.4531 119.233C94.169 119.994 95.4587 121.051 96.3224 122.403C97.186 123.744 97.6178 125.29 97.6178 127.04C97.6178 128.403 97.3451 129.602 96.7997 130.636C96.2542 131.659 95.5042 132.5 94.5497 133.159C93.6065 133.807 92.5269 134.267 91.311 134.54V134.881C92.6406 134.938 93.8849 135.313 95.044 136.006C96.2144 136.699 97.1633 137.67 97.8906 138.92C98.6178 140.159 98.9815 141.636 98.9815 143.352C98.9815 145.205 98.5212 146.858 97.6008 148.312C96.6917 149.756 95.3451 150.898 93.561 151.739C91.7769 152.58 89.5781 153 86.9644 153H72.0497ZM79.4303 146.966H85.4474C87.5042 146.966 89.0042 146.574 89.9474 145.79C90.8906 144.994 91.3622 143.938 91.3622 142.619C91.3622 141.653 91.1292 140.801 90.6633 140.062C90.1974 139.324 89.5326 138.744 88.669 138.324C87.8167 137.903 86.7996 137.693 85.6178 137.693H79.4303V146.966ZM79.4303 132.699H84.9019C85.9133 132.699 86.811 132.523 87.5951 132.17C88.3906 131.807 89.0156 131.295 89.4701 130.636C89.936 129.977 90.169 129.188 90.169 128.267C90.169 127.006 89.7201 125.989 88.8224 125.216C87.936 124.443 86.6746 124.057 85.0383 124.057H79.4303V132.699ZM109.801 153H101.892L113.943 118.091H123.454L135.489 153H127.579L118.835 126.068H118.562L109.801 153ZM109.307 139.278H127.989V145.04H109.307V139.278ZM139.69 153V118.091H153.463C156.111 118.091 158.366 118.597 160.23 119.608C162.094 120.608 163.514 122 164.491 123.784C165.48 125.557 165.974 127.602 165.974 129.92C165.974 132.239 165.474 134.284 164.474 136.057C163.474 137.83 162.026 139.21 160.128 140.199C158.241 141.188 155.957 141.682 153.275 141.682H144.497V135.767H152.082C153.503 135.767 154.673 135.523 155.594 135.034C156.526 134.534 157.219 133.847 157.673 132.972C158.139 132.085 158.372 131.068 158.372 129.92C158.372 128.761 158.139 127.75 157.673 126.886C157.219 126.011 156.526 125.335 155.594 124.858C154.662 124.369 153.48 124.125 152.048 124.125H147.071V153H139.69ZM181.878 153V118.091H189.258V132.494H204.241V118.091H211.605V153H204.241V138.58H189.258V153H181.878ZM217.69 153V118.091H241.213V124.176H225.071V132.494H240.003V138.58H225.071V146.915H241.281V153H217.69ZM245.189 161.42V147.119H247.558C248.365 146.54 249.104 145.722 249.774 144.665C250.445 143.597 251.018 142.125 251.496 140.25C251.973 138.364 252.314 135.898 252.518 132.852L253.507 118.091H276.604V147.119H280.422V161.386H273.331V153H252.28V161.42H245.189ZM256.081 147.119H269.513V124.176H260.155L259.609 132.852C259.462 135.159 259.217 137.205 258.876 138.989C258.547 140.773 258.143 142.335 257.666 143.676C257.2 145.006 256.672 146.153 256.081 147.119ZM284.909 153V118.091H308.432V124.176H292.29V132.494H307.222V138.58H292.29V146.915H308.5V153H284.909ZM312.408 153V147.068L313.396 146.983C314.669 146.881 315.697 146.398 316.481 145.534C317.266 144.659 317.851 143.267 318.237 141.358C318.635 139.438 318.891 136.858 319.004 133.619L319.584 118.091H343.277V153H336.101V124.006H326.436L325.891 136.159C325.709 140.068 325.243 143.261 324.493 145.739C323.754 148.216 322.572 150.045 320.947 151.227C319.334 152.409 317.123 153 314.317 153H312.408ZM349.362 118.091H356.726V140.045H357.016L372.101 118.091H378.561V153H371.18V131.028H370.925L355.754 153H349.362V118.091ZM393.199 118.091L392.534 142.534H386.295L385.614 118.091H393.199ZM389.415 153.443C388.29 153.443 387.324 153.045 386.517 152.25C385.71 151.443 385.312 150.477 385.324 149.352C385.312 148.239 385.71 147.284 386.517 146.489C387.324 145.693 388.29 145.295 389.415 145.295C390.494 145.295 391.443 145.693 392.261 146.489C393.079 147.284 393.494 148.239 393.506 149.352C393.494 150.102 393.295 150.79 392.909 151.415C392.534 152.028 392.04 152.523 391.426 152.898C390.812 153.261 390.142 153.443 389.415 153.443Z" stroke="white" stroke-width="2" mask="url(#path-1-outside-1_59_25)"/>
</svg>
